<?xml version="1.0" standalone="no"?>
<!DOCTYPE svg PUBLIC "-//W3C//DTD SVG 1.1//EN" "http://www.w3.org/Graphics/SVG/1.1/DTD/svg11.dtd" >
<svg xmlns="http://www.w3.org/2000/svg" xmlns:xlink="http://www.w3.org/1999/xlink" version="1.1">
<metadata>
Created by FontForge 20170731 at Thu Feb 10 18:12:16 2005
 By Aleksey,,,
Font software Copyright 1994 Adobe Systems Incorporated. Typeface designs Copyright 1994 The Monotype Corporation. All rights reserved.
</metadata>
<defs>
<font id="BaskervilleMTStd-SemiBdIt" horiz-adv-x="292" >
  <font-face 
    font-family="Baskerville MT Std SemiBd"
    font-weight="600"
    font-style="italic"
    font-stretch="normal"
    units-per-em="1000"
    panose-1="2 2 7 3 5 4 5 9 3 4"
    ascent="682"
    descent="-318"
    x-height="409"
    cap-height="662"
    bbox="-236 -246 1220 903"
    underline-thickness="50"
    underline-position="-200"
    slope="-17"
    unicode-range="U+0020-FB04"
  />
<missing-glyph horiz-adv-x="500" 
d="M12 0v665h475v-665h-475zM88 618l162 -243l161 243h-323zM60 575v-484l40 61l80 120l41 61zM440 575l-162 -242l162 -243v485zM411 48l-161 242l-162 -242h323z" />
    <glyph glyph-name="f_f" unicode="ff" horiz-adv-x="625" 
d="M614 531l-40 -131h81l-14 -45h-81l-83 -272q-17 -55 -28.5 -88t-35.5 -79t-54 -78q-80 -83 -182 -83q-54 0 -89.5 24.5t-36.5 60.5h-2q-58 -85 -160 -85q-63 0 -87.5 26t-24.5 52q0 25 16.5 40.5t38.5 15.5q46 0 51 -53q3 -39 28 -39t42 34q22 45 46 124l122 400h-85
l14 45h85l9 29q23 74 52 124t63 75.5t67.5 35.5t74.5 10q40 0 69 -9.5t41.5 -24t18 -26.5t5.5 -22h2q59 82 150 82q55 0 78.5 -23t23.5 -50q0 -21 -14.5 -35t-32.5 -14q-15 0 -26.5 10.5t-16 20t-11.5 27.5q-6 19 -22 19q-13 0 -22.5 -16t-29.5 -82zM458 400l7 24
q27 87 47 126l-2 2q-6 -6 -22 -6q-33 0 -49 35q-10 21 -15.5 30t-15.5 16t-25 7q-17 0 -31.5 -8t-24 -18.5t-19.5 -33.5t-15.5 -39.5t-15.5 -48.5l-26 -86h207zM325 -35l119 390h-207l-88 -288q-25 -83 -37.5 -116t-35.5 -69l2 -2q9 7 26 7q38 0 69 -49q19 -30 28 -35
q7 -3 16 -3q32 0 57.5 41.5t50.5 123.5z" />
    <glyph glyph-name="fi" unicode="fi" horiz-adv-x="604" 
d="M558 408l-93 -303q-9 -27 -9 -42q0 -17 13 -17t31.5 21t33.5 54h45q-62 -135 -157 -135q-37 0 -59 20t-22 49q0 26 16 76l68 224h-187l-87 -287q-12 -39 -19.5 -62t-22 -60.5t-27 -60.5t-33 -50.5t-42.5 -43t-52 -26t-64 -10.5q-43 0 -79 19t-36 58q0 24 16 40t40 16
q51 0 51 -50q0 -14 8 -27t23 -13q22 0 39 29t36 92l133 436h-88l14 45h88l5 15q18 54 36.5 93t49 80.5t75 63.5t101.5 22q64 0 101.5 -25.5t37.5 -56.5q0 -17 -13 -31.5t-33 -14.5q-36 0 -56 43q-6 13 -10.5 20t-15.5 14.5t-26 7.5q-66 0 -101 -117l-35 -114h128q82 0 135 8
h43z" />
    <glyph glyph-name="fl" unicode="fl" horiz-adv-x="604" 
d="M252 400h187l44 148q-18 8 -25.5 16t-16.5 27q-18 40 -53 40q-65 0 -100 -115zM606 674h34l-172 -560q-6 -19 -8.5 -29.5t-3.5 -20.5t2.5 -14t11.5 -4q26 0 64 73h45q-63 -133 -157 -133q-54 0 -70.5 35t-1.5 85l76 249h-188l-87 -287q-12 -39 -19 -61.5t-22 -60.5
t-27.5 -60.5t-33 -50.5t-42.5 -43t-52 -26t-64 -11q-43 0 -79 19t-36 58q0 23 14 39.5t43 16.5q47 0 51 -56q5 -34 30 -34q22 0 39 29t36 92l133 436h-88l15 45h88l5 15q36 108 72 158q71 101 191 101q45 0 81 -12q68 0 120 12z" />
    <glyph glyph-name="f_f_i" unicode="ffi" horiz-adv-x="917" 
d="M598 516l-35 -116h128q88 0 135 8h47l-91 -294q-12 -40 -12 -53q0 -16 13 -16t32 21.5t33 52.5h45q-62 -133 -157 -133q-37 0 -59 20t-22 48q0 25 16 75l69 226h-191l-83 -271q-18 -59 -29 -90t-35 -77.5t-53 -78.5q-34 -37 -81.5 -60t-96.5 -23t-84 23t-39 58
q-62 -81 -159 -81q-63 0 -88 26t-25 52q0 25 16.5 40.5t38.5 15.5q47 0 51 -53q5 -33 20 -38q4 -1 9 -1q22 0 39 29t48 129l123 400h-91l14 45h91l9 29q40 127 100 186t151 59q68 0 102.5 -29t27.5 -64l2 -2q32 44 82.5 69.5t105.5 25.5q69 0 106.5 -25t37.5 -55
q0 -17 -13 -31.5t-34 -14.5q-34 0 -56 43q-7 15 -11.5 21.5t-15.5 13t-27 6.5q-38 0 -62 -29t-42 -87zM447 400l5 17q27 87 58 137l-2 2q-10 -10 -29 -10q-34 0 -52 41q-13 27 -22 37t-27 10q-14 0 -25 -5t-20.5 -16.5t-16.5 -22t-15 -31.5t-12 -34l-12 -39l-26 -86h196z
M314 -34l119 389h-196l-88 -288q-26 -86 -37.5 -115.5t-34.5 -68.5q15 5 23 5q37 0 70 -49q8 -13 12.5 -19.5t12 -11.5t16.5 -5q53 0 103 163z" />
    <glyph glyph-name="f_f_l" unicode="ffl" horiz-adv-x="917" 
d="M920 674h34l-172 -560q-12 -39 -12 -53q0 -16 12 -16q15 0 34.5 24.5t31.5 49.5h45q-7 -15 -15.5 -29.5t-29 -42t-50 -44.5t-62.5 -17q-37 0 -59 20t-22 49q0 24 16 74l69 226h-191l-83 -271q-18 -59 -29 -90t-35 -77.5t-53 -78.5q-34 -37 -81.5 -60t-96.5 -23t-84 23
t-39 58q-62 -81 -159 -81q-63 0 -88 26t-25 52q0 25 16.5 40.5t38.5 15.5q47 0 51 -53q5 -33 20 -38q4 -1 9 -1q22 0 39 29t48 129l123 400h-91l14 45h91l8 29q67 245 252 245q67 0 102 -29t28 -64l2 -2q32 44 82 69.5t106 25.5q48 0 84 -12q86 4 121 12zM447 400l5 17
q24 84 58 137l-2 2q-10 -10 -29 -10q-34 0 -52 41q-13 27 -22 37t-27 10q-14 0 -25 -5t-20.5 -16.5t-16.5 -22t-15 -31.5t-12 -34l-12 -39l-26 -86h196zM314 -34l119 389h-196l-88 -288q-26 -85 -38 -116t-34 -66l2 -2q7 5 22 5q37 0 69 -49q2 -2 5.5 -8.5t5 -8t5 -6t5.5 -6
t5.5 -4t7 -3t7.5 -0.5q53 0 103 163zM563 400h191l41 136q4 12 4 13q-28 6 -43 38q0 1 -3 7l-3.5 7t-3.5 6.5t-5 7t-5 5.5t-6.5 5t-8 3.5t-9.5 3t-11 0.5q-40 0 -63.5 -32t-39.5 -84z" />
    <glyph glyph-name=".notdef" horiz-adv-x="500" 
d="M12 0v665h475v-665h-475zM88 618l162 -243l161 243h-323zM60 575v-484l40 61l80 120l41 61zM440 575l-162 -242l162 -243v485zM411 48l-161 242l-162 -242h323z" />
    <glyph glyph-name=".null" horiz-adv-x="0" 
 />
    <glyph glyph-name="nonmarkingreturn" horiz-adv-x="333" 
 />
    <glyph glyph-name="space" unicode=" " horiz-adv-x="250" 
 />
    <glyph glyph-name="exclam" unicode="!" horiz-adv-x="271" 
d="M97 113q26 0 45 -18.5t19 -44.5t-19 -45t-45 -19t-44.5 19t-18.5 45t18.5 44.5t44.5 18.5zM159 186h-42l75 375q5 25 9 39.5t13 34.5t23 29.5t34 9.5q25 0 40 -17t15 -45q0 -29 -23 -80z" />
    <glyph glyph-name="quotedbl" unicode="&#x22;" horiz-adv-x="521" 
d="M184 366h-22l2 177q0 43 12.5 72t31 40.5t31 15t23.5 3.5q24 0 37.5 -14t13.5 -33q0 -26 -32 -84zM408 366h-22l2 177q0 43 12.5 72t31 40.5t31 15t23.5 3.5q24 0 37.5 -14t13.5 -33q0 -26 -32 -84z" />
    <glyph glyph-name="numbersign" unicode="#" horiz-adv-x="667" 
d="M213 489l40 191h81l-40 -191h183l40 191h81l-40 -191h87v-81h-104l-33 -159h137v-81h-154l-40 -190h-81l40 190h-183l-40 -190h-81l40 190h-88v81h105l33 159h-138v81h155zM460 408h-183l-33 -159h183z" />
    <glyph glyph-name="dollar" unicode="$" horiz-adv-x="469" 
d="M161 38l76 248q-58 58 -83.5 99.5t-25.5 93.5q0 72 57.5 128t164.5 49l6 18h44l-8 -25q49 -13 77.5 -43t28.5 -55q0 -15 -10.5 -26.5t-25.5 -11.5q-18 0 -28 9.5t-25 34.5q-15 24 -33 40l-68 -222q58 -56 87 -99.5t29 -91.5q0 -76 -62 -138t-172 -59l-27 -87h-44l28 92
q-55 12 -92.5 43t-37.5 63q0 16 11 27t28 11q6 0 11.5 -1.5t9 -3t8 -5.5t7 -6t6.5 -8l5 -7.5t5 -8.5t4 -8q22 -41 49 -50zM274 408l63 206q-52 1 -84 -28.5t-32 -71.5q0 -53 53 -106zM270 251l-67 -221q62 -3 96.5 26t34.5 74q0 55 -64 121z" />
    <glyph glyph-name="percent" unicode="%" horiz-adv-x="802" 
d="M678 311q-28 0 -49 -37q-18 -33 -48.5 -115.5t-30.5 -109.5q0 -13 7 -21t18 -8q10 0 19 4.5t16.5 14.5t11 16t9.5 19.5t6 14.5q9 20 35.5 99.5t26.5 97.5q0 25 -21 25zM143 0l542 664h57l-546 -664h-53zM675 339q29 0 48.5 -10t27.5 -25.5t10.5 -27t2.5 -22.5
q0 -28 -10 -68t-30.5 -85.5t-60 -77t-89.5 -31.5q-29 0 -49 10t-27.5 26.5t-10 27.5t-2.5 23q0 16 5 44t18.5 66.5t34 71t55 55.5t77.5 23zM300 657q29 0 48.5 -10t27.5 -25.5t10.5 -27t2.5 -22.5q0 -28 -10 -68t-30.5 -85.5t-60 -77t-89.5 -31.5q-29 0 -49 10t-27.5 26.5
t-10 27.5t-2.5 23q0 16 5 44t18.5 66.5t34 71t55 55.5t77.5 23zM303 629q-28 0 -49 -37q-18 -33 -48.5 -115.5t-30.5 -109.5q0 -13 7 -21t18 -8q10 0 19 4.5t16.5 14.5t11 16t9.5 19.5t6 14.5q9 20 35.5 99.5t26.5 97.5q0 25 -21 25z" />
    <glyph glyph-name="ampersand" unicode="&#x26;" horiz-adv-x="750" 
d="M523 369l14 45h204l-14 -45q-33 -7 -54.5 -24t-49.5 -51q-92 -113 -128 -149q48 -55 87 -55q20 0 38 13t24 22t17 27h54q-72 -164 -176 -164q-39 0 -66 19.5t-57 59.5q-4 0 -4 5q-41 -28 -62.5 -42t-60.5 -28t-76 -14q-69 0 -117 46.5t-48 121.5q0 57 40 108.5t159 115.5
q-15 65 -15 117q0 77 45 127t114 50q59 0 93 -35.5t34 -80.5q0 -32 -13.5 -59t-42 -50t-49 -36t-56.5 -33q44 -104 109 -197q35 36 64.5 80t29.5 73q0 33 -37 33zM342 426q62 35 90.5 65.5t28.5 67.5q0 32 -19 49.5t-44 17.5q-31 0 -53 -26t-22 -71q0 -51 19 -103zM262 335
q-111 -61 -111 -142q0 -46 35.5 -86.5t88.5 -40.5q48 0 109 46q-79 113 -122 223z" />
    <glyph glyph-name="quotesingle" unicode="'" horiz-adv-x="271" 
d="M174 366h-22l2 177q0 43 12.5 72t31 40.5t31 15t23.5 3.5q24 0 37.5 -14t13.5 -33q0 -26 -32 -84z" />
    <glyph glyph-name="parenleft" unicode="(" horiz-adv-x="271" 
d="M153 -227l-44 -18q-64 156 -64 316q0 95 27 184t61 148t89 120t85 87.5t76 62.5l34 -33q-51 -47 -77.5 -75.5t-65 -94t-71.5 -158.5q-76 -209 -76 -369q0 -93 26 -170z" />
    <glyph glyph-name="parenright" unicode=")" horiz-adv-x="271" 
d="M132 656l44 18q64 -156 64 -316q0 -95 -27 -184t-61 -148t-89 -120t-85 -87.5t-76 -62.5l-34 33q51 47 77.5 75.5t65 94t71.5 158.5q76 209 76 369q0 93 -26 170z" />
    <glyph glyph-name="asterisk" unicode="*" horiz-adv-x="531" 
d="M306 412q-31 -20 -68 -75q-13 -18 -20 -27.5t-26.5 -23.5t-38.5 -14q-14 0 -29 11t-15 31q0 16 6.5 28.5t20.5 21.5t24.5 13.5t27.5 10.5q70 25 98 50q-26 20 -105 46l-11 4q-10 3 -12 4t-11.5 4.5t-12 5.5t-9.5 6.5t-9.5 8.5t-6.5 9.5t-5.5 12.5t-1.5 14q0 19 13 31
t33 12q25 0 44 -17.5t57 -65.5q18 -24 54 -49q14 40 14 81q0 71 5 88q6 19 20 30t30 11q19 0 32.5 -15t13.5 -36q0 -22 -30 -69q-3 -5 -10 -15.5l-9 -13.5t-7 -11t-6 -10.5t-4.5 -8.5t-4.5 -8.5t-3.5 -7t-3.5 -8t-2.5 -8t-2.5 -9.5q44 0 101 19q45 15 65 15q22 0 40 -13
t18 -37q0 -20 -17 -33.5t-42 -13.5q-22 0 -57 12q-60 20 -108 20q7 -32 46 -83q43 -56 43 -88q0 -19 -13 -34t-32 -15t-31 10.5t-17.5 31t-7 33.5t-2.5 35q-3 65 -15 99z" />
    <glyph glyph-name="plus" unicode="+" horiz-adv-x="667" 
d="M82 368h224v224h90v-224h224v-90h-224v-224h-90v224h-224v90z" />
    <glyph glyph-name="comma" unicode="," horiz-adv-x="271" 
d="M-44 -187l14 45q53 10 88.5 35.5t46.5 45t11 32.5q0 14 -19 14q-22 0 -41.5 17.5t-19.5 46.5q0 28 18.5 46t44.5 18q36 0 56 -29.5t20 -68.5q0 -66 -57.5 -129t-161.5 -73z" />
    <glyph glyph-name="hyphen" unicode="-" horiz-adv-x="313" 
d="M19 157l26 87h234l-27 -87h-233z" />
    <glyph glyph-name="period" unicode="." horiz-adv-x="271" 
d="M99 113q26 0 45 -18.5t19 -44.5t-19 -45t-45 -19t-44.5 19t-18.5 45t18.5 44.5t44.5 18.5z" />
    <glyph glyph-name="slash" unicode="/" 
d="M310 674l-204 -690h-88l204 690h88z" />
    <glyph glyph-name="zero" unicode="0" horiz-adv-x="500" 
d="M356 657q46 0 76.5 -19.5t42.5 -50.5t16 -51.5t4 -40.5q0 -41 -9.5 -100t-33.5 -131.5t-57.5 -134t-89 -103t-121.5 -41.5q-38 0 -66 13.5t-42 32t-22 44.5t-10 43t-2 36q0 64 27.5 172t81.5 200q77 131 205 131zM355 616q-23 0 -44.5 -17.5t-30.5 -31.5t-15 -28
q-38 -81 -87 -244.5t-49 -206.5q0 -5 1 -12t5.5 -20t16.5 -21.5t31 -8.5q55 0 90 87q33 82 82 248.5t49 200.5q0 23 -12.5 38.5t-36.5 15.5z" />
    <glyph glyph-name="one" unicode="1" horiz-adv-x="500" 
d="M459 657l-158 -519q-15 -49 -15 -65q0 -10 5 -16t18.5 -8.5t23 -3.5t31.5 -2l-13 -43h-292l14 43h22q42 0 54 10t30 67l107 349q10 32 10 33q6 21 6 30q0 33 -70 33h-37l13 42q94 8 133.5 18t74.5 32h43z" />
    <glyph glyph-name="two" unicode="2" horiz-adv-x="500" 
d="M335 -31h-45q13 31 -20 31h-268l20 66q32 26 112 99.5t134 131.5q46 50 76 109.5t30 111.5q0 42 -23 69t-66 27t-64 -20.5t-21 -45.5q0 -28 29 -57q11 -11 11 -14q0 -5 -14 -13l-33 -19q-10 -6 -20 -6q-13 0 -32.5 25.5t-19.5 59.5q0 53 48 93t132 40q92 0 139.5 -41
t47.5 -104q0 -54 -22 -101t-74 -96.5t-112 -95t-159 -116.5q-10 -7 -15 -10h268z" />
    <glyph glyph-name="three" unicode="3" horiz-adv-x="500" 
d="M291 362q18 -1 34.5 -5t39 -16t36 -41t13.5 -72q0 -107 -83 -175t-192 -68q-63 0 -104.5 29t-41.5 66q0 21 13 36t35 15q14 0 24.5 -4.5t17.5 -14t10 -16t7 -18.5q18 -50 56 -50q36 0 67 31.5t49 75t27.5 82.5t9.5 62q0 16 -10 35.5t-33 19.5q-19 0 -48 -22
q-22 -18 -29 -18q-6 0 -12.5 5.5t-6.5 18.5q0 10 9.5 17.5t43.5 27.5q97 56 138 93t41 89q0 25 -19.5 47t-54.5 22q-34 0 -57 -21.5t-23 -53.5q0 -11 2.5 -19.5t2.5 -10.5q0 -5 -25.5 -22.5t-29.5 -17.5t-10.5 8.5t-12 24t-5.5 31.5q0 49 42.5 86.5t124.5 37.5q75 0 118 -32
t43 -78q0 -93 -200 -182q-5 -2 -7 -3z" />
    <glyph glyph-name="four" unicode="4" horiz-adv-x="500" 
d="M23 193l9 63l361 401h91l-123 -401h22q29 0 39 6t21 35h43l-30 -104h-115l-22 -74q-10 -37 -10 -45q0 -33 79 -31l-12 -43h-291l12 43h21q40 0 54.5 11.5t30.5 66.5l21 72h-201zM87 256h157l83 265z" />
    <glyph glyph-name="five" unicode="5" horiz-adv-x="500" 
d="M230 642h291l-11 -29q-17 -44 -33.5 -54t-55.5 -10h-177l-46 -133q41 34 88 34q55 0 100.5 -48.5t45.5 -134.5q0 -119 -86 -200.5t-199 -81.5q-56 0 -100 27t-44 64q0 21 14.5 34.5t33.5 13.5q37 0 59 -51q7 -14 11.5 -22t16 -15.5t26.5 -7.5q38 0 72.5 38.5t55 92
t32 104t11.5 81.5t-18 47t-43 16q-58 0 -107 -82h-44z" />
    <glyph glyph-name="six" unicode="6" horiz-adv-x="500" 
d="M250 422q41 17 73 17q59 0 96 -43t37 -110q0 -37 -10 -77.5t-31 -80.5t-50.5 -72t-73 -51.5t-94.5 -19.5q-74 0 -108 48t-34 110q0 44 20.5 128t68.5 178q106 208 285 208q35 0 59.5 -9t34.5 -23t13.5 -24.5t3.5 -20.5q0 -18 -9.5 -29t-28.5 -11q-25 0 -48 34
q-19 27 -27 34t-26 7q-35 0 -70 -44.5t-81 -148.5zM144 90q0 -30 14 -46.5t40 -16.5q22 0 40.5 12.5t24.5 22.5t9 16q17 36 52.5 135t35.5 132q0 19 -13.5 37t-43.5 18q-35 0 -58 -28t-44 -80q-57 -145 -57 -202z" />
    <glyph glyph-name="seven" unicode="7" horiz-adv-x="500" 
d="M205 680h43q-6 -26 2 -32t45 -6h255v-21l-302 -518q-41 -70 -61.5 -94t-49.5 -24q-19 0 -33 12t-14 31q0 21 10 39t45 64l313 418h-166q-52 0 -69 -8.5t-32 -49.5h-43z" />
    <glyph glyph-name="eight" unicode="8" horiz-adv-x="500" 
d="M304 338q115 -28 115 -143q0 -47 -24.5 -94t-76.5 -81.5t-118 -34.5q-70 0 -120.5 42t-50.5 114q0 92 73 154q53 43 143 43q-108 19 -108 120q0 73 53.5 136t146.5 63q42 0 74 -14t48.5 -37t24.5 -46t8 -45q0 -15 -2.5 -30.5t-14 -40.5t-30.5 -44.5t-55.5 -37
t-85.5 -24.5zM344 614q-33 0 -49.5 -20.5t-32.5 -79.5q-23 -87 -23 -108q0 -17 10 -32t35 -15q48 0 72 61q9 23 22 75.5t13 71.5q0 9 -3 18.5t-14.5 19t-29.5 9.5zM261 317q-53 0 -78 -51q-8 -18 -27.5 -83t-19.5 -96q0 -29 16 -44t43 -15q52 0 78 59q18 40 31.5 93t13.5 78
q0 59 -57 59z" />
    <glyph glyph-name="nine" unicode="9" horiz-adv-x="500" 
d="M311 225q-44 -18 -70 -18q-56 0 -96 38.5t-40 119.5q0 45 16.5 94t47 94t81.5 74.5t113 29.5q64 0 102.5 -38.5t38.5 -110.5q0 -85 -43.5 -209.5t-127.5 -225.5q-75 -88 -182 -88q-59 0 -88 28.5t-29 58.5q0 21 13.5 33.5t32.5 12.5q16 0 26.5 -9.5t23.5 -38.5
q6 -13 9.5 -19t11.5 -13t19 -7q18 0 38 17.5t40 52.5t32.5 59.5t30.5 64.5zM363 617q-55 0 -85 -60q-26 -52 -51.5 -137.5t-25.5 -116.5q0 -26 14.5 -41t39.5 -15q19 0 39 11.5t32 30.5q17 26 28 56.5t43 138.5q18 61 18 84t-13.5 36t-38.5 13z" />
    <glyph glyph-name="colon" unicode=":" horiz-adv-x="271" 
d="M188 414q26 0 45 -18.5t19 -44.5t-19 -45t-45 -19t-44.5 19t-18.5 45t18.5 44.5t44.5 18.5zM99 113q26 0 45 -18.5t19 -44.5t-19 -45t-45 -19t-44.5 19t-18.5 45t18.5 44.5t44.5 18.5z" />
    <glyph glyph-name="semicolon" unicode=";" horiz-adv-x="271" 
d="M-44 -187l14 45q53 10 88.5 35.5t46.5 45t11 32.5q0 14 -19 14q-22 0 -41.5 17.5t-19.5 46.5q0 28 18.5 46t44.5 18q36 0 56 -29.5t20 -68.5q0 -66 -57.5 -129t-161.5 -73zM188 414q26 0 45 -18.5t19 -44.5t-19 -45t-45 -19t-44.5 19t-18.5 45t18.5 44.5t44.5 18.5z" />
    <glyph glyph-name="less" unicode="&#x3c;" horiz-adv-x="667" 
d="M619 589v-97l-416 -169l416 -169v-97l-538 225v82z" />
    <glyph glyph-name="equal" unicode="=" horiz-adv-x="667" 
d="M82 484h538v-90h-538v90zM82 252h538v-90h-538v90z" />
    <glyph glyph-name="greater" unicode="&#x3e;" horiz-adv-x="667" 
d="M82 57v97l416 169l-416 169v97l538 -225v-82z" />
    <glyph glyph-name="question" unicode="?" horiz-adv-x="458" 
d="M188 185h-43l59 194h21q4 -39 30 -39q35 0 60 86.5t25 138.5q0 26 -12 47.5t-41 21.5q-18 0 -29 -10t-25 -34q-17 -30 -40 -30q-16 0 -25 11t-9 26q0 30 31 53.5t87 23.5q75 0 122 -46.5t47 -118.5q0 -82 -49.5 -146t-128.5 -64q-21 0 -43 6zM126 113q26 0 45 -18.5
t19 -44.5t-19 -45t-45 -19t-44.5 19t-18.5 45t18.5 44.5t44.5 18.5z" />
    <glyph glyph-name="at" unicode="@" horiz-adv-x="792" 
d="M496 449l119 5l-90 -307q-14 -51 -14 -77q0 -14 11 -26t27 -12q27 0 62 21.5t69 58.5t57.5 97t23.5 127q0 127 -83 217.5t-230 90.5q-81 0 -151.5 -25.5t-121 -69t-87 -100.5t-54.5 -122.5t-18 -133.5q0 -174 109.5 -279.5t272.5 -105.5q75 0 148.5 24.5t145 88
t106.5 157.5h30q-32 -82 -84 -143q-131 -154 -347 -154q-185 0 -308.5 119.5t-123.5 309.5q0 128 57.5 233t166.5 168t248 63q89 0 158 -28.5t110 -76t62 -104.5t21 -120q0 -88 -34 -166.5t-102.5 -130t-156.5 -51.5q-28 0 -48 8.5t-29.5 19t-15 25t-6 20.5t-0.5 11
q0 27 14 77q-50 -87 -82 -118q-43 -43 -89 -43q-30 0 -49.5 19.5t-26 42t-6.5 46.5q0 71 27 140.5t66.5 116.5t83 76t76.5 29q63 0 69 -79zM420 432q-32 0 -65.5 -63.5t-52.5 -133.5t-19 -104q0 -18 8.5 -31.5t20.5 -13.5q23 0 57.5 44t61 112.5t26.5 126.5q0 63 -37 63z
" />
    <glyph glyph-name="A" unicode="A" horiz-adv-x="615" 
d="M393 236h-208l-71 -104q-26 -38 -26 -56q0 -31 60 -31h28l-14 -45h-237l14 45q34 3 67.5 34t72.5 86l359 509h85l-7 -552q-1 -46 16 -61.5t65 -15.5l-13 -45h-301l14 45q56 0 76 22t20 86v83zM218 281h175l5 259z" />
    <glyph glyph-name="B" unicode="B" horiz-adv-x="635" 
d="M186 662h266q84 0 130 -26q73 -41 73 -118q0 -61 -53.5 -108t-149.5 -62q133 -43 133 -156q0 -53 -30.5 -95t-73.5 -65q-58 -32 -185 -32h-290l14 45q33 0 48 18t27 56l127 414q8 25 8 38q0 46 -57 46zM381 614l-75 -243h45q77 0 117 37q24 22 40.5 65t16.5 75
q0 19 -7 32.5t-15 20t-25.5 9.5t-27 3.5t-30.5 0.5h-39zM361 323h-69l-58 -188q-8 -24 -8 -42q0 -17 17 -31t58 -14q81 0 118 78q30 60 30 118q0 28 -8 45.5t-24 24t-27 8t-29 1.5z" />
    <glyph glyph-name="C" unicode="C" horiz-adv-x="688" 
d="M738 658l-49 -226h-47q2 52 -10.5 91t-30 58.5t-41.5 31t-39 14t-29 2.5q-57 0 -109 -42.5t-86.5 -107t-55 -139t-20.5 -140.5q0 -68 32 -115t95 -47q64 0 133.5 50.5t103.5 135.5h47l-65 -219h-41q5 34 0 67q-33 -36 -83.5 -60t-107.5 -24q-109 0 -182 74.5t-73 183.5
q0 86 36 166.5t92 137t126.5 90.5t138.5 34q109 0 180 -87q25 26 40 71h45z" />
    <glyph glyph-name="D" unicode="D" horiz-adv-x="740" 
d="M179 662h233q38 0 60 -1t58.5 -10t66.5 -26q132 -75 132 -239q0 -58 -15 -114t-55.5 -114.5t-102.5 -97.5q-44 -28 -102 -42t-93.5 -16t-93.5 -2h-263l14 45q19 0 32 5.5t21.5 19t12 22t9.5 27.5l126 410q9 31 9 43q0 15 -6 25t-19 14t-18.5 4.5t-18.5 1.5zM403 614h-24
l-146 -477q-9 -33 -9 -42q0 -47 83 -47q164 0 237 176q44 102 44 206q0 59 -16.5 98.5t-46.5 56.5t-57.5 23t-64.5 6z" />
    <glyph glyph-name="E" unicode="E" horiz-adv-x="646" 
d="M293 319l-58 -188q-7 -21 -7 -39q0 -21 21.5 -32.5t84.5 -11.5q47 0 83 10.5t60.5 32.5t38 40.5t30.5 47.5h49l-55 -179h-532l14 45q25 0 41.5 13t22 25.5t12.5 35.5l126 414q9 28 9 39q0 45 -62 45l13 45h461l5 -161h-46q-13 34 -26.5 55.5t-24 33t-28.5 17t-30 6.5
t-40 1h-72l-75 -247h33q66 0 90.5 20.5t42.5 77.5h48l-80 -261h-48q12 38 12 60q0 55 -81 55h-32z" />
    <glyph glyph-name="F" unicode="F" horiz-adv-x="552" 
d="M293 319l-56 -184q-9 -31 -9 -43q0 -26 20.5 -36.5t41.5 -10.5h23l-14 -45h-291l14 45q25 0 41.5 13t22 25.5t12.5 35.5l126 414q9 30 9 39q0 45 -68 45l12 45h464l5 -162h-47q-12 34 -23 54t-22 33t-29 18.5t-35 7t-50 1.5h-56l-76 -247h32q48 0 75 12.5t37 29.5t23 57
h48l-80 -261h-48q13 37 13 60q0 54 -75 54h-40z" />
    <glyph glyph-name="G" unicode="G" horiz-adv-x="750" 
d="M478 286h267l-15 -45q-32 -1 -46 -17t-28 -60l-49 -159l-58 37q-112 -54 -211 -54q-130 0 -195 75t-65 183q0 104 54 202.5t149.5 162t205.5 63.5q122 0 172 -85q23 21 40 69h46l-50 -228h-45q0 66 -19 112q-37 87 -131 87q-64 0 -119 -43t-89 -108.5t-53.5 -138.5
t-19.5 -138q0 -24 4.5 -47t17 -51.5t42.5 -46.5t73 -18q51 0 98.5 26.5t64.5 86.5l5 18q5 17 5 27q0 45 -65 45z" />
    <glyph glyph-name="H" unicode="H" horiz-adv-x="792" 
d="M290 323l-58 -188q-9 -31 -9 -42q0 -20 14.5 -31.5t26 -14t19.5 -2.5l-14 -45h-271l14 45q21 0 35.5 5.5t23 18.5t12.5 21.5t10 28.5l125 409q9 31 9 41q0 26 -17.5 37t-36.5 11l14 45h285l-14 -45q-51 0 -68.5 -12t-32.5 -61l-52 -169h282l47 153q9 27 9 40q0 49 -59 49
l14 45h286l-14 -45q-47 0 -64 -12.5t-32 -60.5l-125 -409q-9 -28 -9 -42q0 -27 21.5 -37.5t42.5 -10.5l-13 -45h-296l14 45q50 0 68 14t32 60l63 204h-282z" />
    <glyph glyph-name="I" unicode="I" horiz-adv-x="385" 
d="M190 662h258l-14 -45q-31 -1 -44.5 -17t-26.5 -57l-124 -408q-9 -28 -9 -43q0 -47 68 -47l-13 -45h-275l14 45q25 0 41 12.5t21.5 25.5t12.5 36l125 408q9 31 9 43q0 41 -57 47z" />
    <glyph glyph-name="J" unicode="J" horiz-adv-x="385" 
d="M194 662h279l-14 -45q-43 0 -59.5 -14.5t-30.5 -59.5l-152 -496q-43 -141 -120 -211t-175 -70q-64 0 -111 27.5t-47 66.5q0 24 16.5 39.5t41.5 15.5q44 0 66 -55q18 -46 56 -46q31 0 54.5 24.5t33 49t23.5 67.5l175 572q9 28 9 42q0 6 -1.5 12t-6.5 15t-18.5 15t-32.5 6z
" />
    <glyph glyph-name="K" unicode="K" horiz-adv-x="719" 
d="M268 239l-32 -104q-9 -31 -9 -43q0 -47 65 -47l-13 -45h-280l14 45q29 0 46.5 11t23.5 23.5t14 39.5l124 409q10 34 10 42q0 47 -64 47l14 45h291l-13 -45q-49 0 -66 -12t-32 -62l-71 -230l292 215q44 33 44 57q0 32 -59 32h-14l14 45h291l-14 -45q-22 -1 -31.5 -2
t-40 -15.5t-71.5 -44.5l-238 -172l153 -279q20 -36 36 -47.5t56 -11.5l-14 -45h-298l14 45q15 0 24 0.5t21.5 3t18.5 9.5t6 18q0 14 -8 28l-111 203z" />
    <glyph glyph-name="L" unicode="L" horiz-adv-x="594" 
d="M175 662h301l-14 -45q-51 0 -68 -12.5t-32 -60.5l-119 -389q-13 -44 -13 -63q0 -44 92 -44q43 0 72.5 4t62 16.5t58.5 40.5t48 71h48l-55 -180h-556l14 45q22 0 36.5 5t23.5 17.5t13 21.5t10 30l131 426q8 27 -3 49.5t-50 22.5h-15z" />
    <glyph glyph-name="M" unicode="M" horiz-adv-x="948" 
d="M180 662h239l35 -505l345 505h235l-14 -45q-55 0 -73.5 -18t-34.5 -78l-99 -386q-8 -31 -8 -45q0 -26 21 -35.5t61 -9.5l-14 -45h-309l14 45q54 0 71.5 13t29.5 61l116 457l-391 -576h-63l-37 575l-164 -432q-14 -38 -14 -49q0 -40 78 -48q4 -1 6 -1l-14 -45h-219l14 45
q32 4 59 37t45 78l145 379q14 35 -2.5 56.5t-59.5 21.5h-11z" />
    <glyph glyph-name="N" unicode="N" horiz-adv-x="729" 
d="M149 662h180l222 -493l95 311q19 65 19 77q0 21 -18.5 40.5t-64.5 19.5l14 45h231l-13 -45q-20 -2 -32 -5.5t-26.5 -14t-25.5 -33t-22 -58.5l-157 -511h-62l-224 496l-103 -338q-10 -34 -10 -50q0 -33 24.5 -45.5t55.5 -12.5l-14 -45h-222l14 45q24 4 42 15.5t30 32.5
t17.5 36t13.5 40l119 392l-11 18q-16 26 -31 32t-55 6z" />
    <glyph glyph-name="O" unicode="O" horiz-adv-x="792" 
d="M361 -12q-77 0 -134.5 25t-88.5 66t-46 85.5t-15 91.5q0 71 30.5 144t84.5 134.5t138 100.5t180 39q75 0 131 -24.5t87 -65t46 -86.5t15 -97q0 -68 -30.5 -140t-84.5 -133t-136.5 -100.5t-176.5 -39.5zM357 33q153 0 236 192q61 144 61 243q0 161 -149 161
q-129 0 -204 -136q-35 -63 -62 -147.5t-27 -156.5q0 -156 145 -156z" />
    <glyph glyph-name="P" unicode="P" horiz-adv-x="646" 
d="M285 299l-50 -164q-9 -31 -9 -43q0 -26 20 -36.5t42 -10.5h14l-14 -45h-282l14 45q31 0 47.5 16.5t28.5 57.5l126 414q9 28 9 39q0 45 -70 45l13 45h271q95 0 146 -30q85 -51 85 -138q0 -48 -26 -92t-83 -71q-67 -32 -218 -32h-64zM382 614l-82 -267h59q78 0 114 30
q28 24 47 62t19 80q0 95 -110 95h-47z" />
    <glyph glyph-name="Q" unicode="Q" horiz-adv-x="792" 
d="M368 -12l-62 -61q37 8 81 8q42 0 72.5 -9t78.5 -31q95 -45 159 -45q37 0 68.5 12t47 23.5t39.5 33.5l46 -15q-41 -62 -95 -100t-140 -38q-41 0 -80.5 11t-64.5 24t-72 40q-74 42 -125 42q-32 0 -50.5 -10.5t-36.5 -33.5q-13 -16 -19 -22.5t-14 -12t-16 -5.5t-16 7.5
t-8 18.5q0 14 10 27t39 40l103 98q-108 11 -172 85.5t-64 179.5q0 71 30.5 144t84.5 135t138 101t180 39q75 0 131.5 -25t87.5 -66t45.5 -86.5t14.5 -94.5q0 -68 -30 -139.5t-82.5 -132.5t-134 -100.5t-174.5 -41.5zM357 35q154 0 236 190q61 144 61 243q0 161 -149 161
q-129 0 -204 -136q-35 -63 -62 -147.5t-27 -156.5q0 -154 145 -154z" />
    <glyph glyph-name="R" unicode="R" horiz-adv-x="719" 
d="M286 302l-51 -167q-9 -28 -9 -42q0 -17 8 -27.5t23.5 -14.5t26 -5t26.5 -1l-14 -45h-300l14 45q39 0 55.5 14.5t30.5 59.5l126 414q9 30 9 39q0 24 -17.5 34.5t-39.5 10.5h-19l13 45h314q99 0 151 -27q88 -46 88 -140q0 -26 -9.5 -52.5t-32 -56.5t-70 -50.5t-113.5 -24.5
q25 -20 39.5 -44.5t32.5 -81.5q9 -27 13 -39.5t14.5 -33.5t22 -31.5t31 -21t45.5 -14.5l-14 -45h-170q-14 18 -25.5 43.5t-37.5 99.5l-20 57q-1 4 -6.5 19t-6.5 18t-5.5 15t-7 14t-8 10.5t-10 10t-12 6t-15.5 5.5t-18.5 2.5t-23.5 1.5h-28zM381 614l-80 -264h51
q110 0 152 24q37 21 58.5 59.5t21.5 78.5q0 29 -12 50t-26 30.5t-38 15t-36 6t-32 0.5h-59z" />
    <glyph glyph-name="S" unicode="S" horiz-adv-x="552" 
d="M45 5l31 231h46q2 -55 18.5 -96.5t42 -62.5t51.5 -31t53 -10q43 0 71.5 29t28.5 70q0 38 -20.5 65t-88.5 91q-63 60 -87.5 100.5t-24.5 86.5q0 80 61 138t142 58q79 0 145 -63q22 29 32 51h45l-30 -198h-47q-24 162 -144 162q-44 0 -73 -24t-29 -65q0 -38 26 -71.5
t80 -79.5q62 -53 93.5 -97t31.5 -103q0 -78 -59.5 -138t-155.5 -60q-89 0 -162 72q-12 -12 -31 -55h-46z" />
    <glyph glyph-name="T" unicode="T" horiz-adv-x="656" 
d="M522 614l-147 -479q-9 -28 -9 -43q0 -19 13 -30.5t24.5 -14t23.5 -2.5h24l-14 -45h-328l13 45h16q50 0 67.5 14t30.5 59l151 496h-36h-6q-19 0 -31 -1t-36 -8t-42 -21t-40 -42.5t-40 -69.5h-47l58 190h611l-58 -190h-46q4 22 4 45q0 34 -9.5 56t-27.5 29.5t-29.5 9.5
t-31.5 2h-58z" />
    <glyph glyph-name="U" unicode="U" horiz-adv-x="688" 
d="M149 662h300l-14 -45q-50 0 -69 -13t-34 -60l-102 -336q-14 -48 -14 -74q0 -44 35 -70t87 -26q31 0 57.5 8t45 19.5t35 30t26 33.5t18.5 37.5t13 34.5t9 30l83 291q7 23 7 36q0 55 -84 59l14 45h246l-14 -45q-51 -4 -77.5 -29.5t-40.5 -77.5l-78 -279q-8 -27 -12.5 -42
t-16.5 -44t-24.5 -47t-34.5 -41.5t-47.5 -36.5t-62.5 -22.5t-80 -9.5q-100 0 -166 44t-66 114q0 36 19 100l86 282q10 34 10 44q0 41 -68 45z" />
    <glyph glyph-name="V" unicode="V" horiz-adv-x="635" 
d="M159 662h263l-14 -45q-18 0 -30 -1.5t-24.5 -7.5t-19 -19t-7.5 -33l-13 -428l259 400q17 26 17 44q0 16 -7.5 26t-22 13.5t-24 4.5t-26.5 1l13 45h261l-10 -45q-41 0 -77 -22t-74 -80l-346 -527h-93l18 573q1 20 -2.5 32t-13.5 17t-17.5 6t-23.5 1z" />
    <glyph glyph-name="W" unicode="W" horiz-adv-x="917" 
d="M138 662h269l-13 -45q-43 0 -61.5 -12t-20.5 -49l-22 -385l316 491h70l-13 -491l210 351q20 34 20 49q0 46 -72 46l14 45h212l-14 -45q-34 -12 -58.5 -37t-59.5 -83l-309 -509h-75l14 491l-319 -491h-75l32 573q1 20 -2.5 32t-14 17t-18.5 6t-24 1z" />
    <glyph glyph-name="X" unicode="X" horiz-adv-x="688" 
d="M438 420l110 100q43 40 43 60q0 37 -56 37l13 45h242l-14 -45q-18 0 -32 -4t-45 -25.5t-77 -63.5l-166 -152l89 -242q10 -26 15 -36.5t16 -24.5t27 -19t40 -5l-13 -45h-303l14 45q81 0 81 40q0 18 -10 45l-56 149l-119 -110q-25 -23 -33.5 -31.5t-15 -20.5t-6.5 -26
q0 -25 21.5 -35.5t47.5 -10.5l-14 -45h-288l14 45q30 0 69 21.5t64 42.5t63 56l179 163l-81 217q-18 48 -31.5 60t-53.5 12l13 45h285l-14 -45q-22 0 -35 -2t-24 -11.5t-11 -27.5q0 -16 8 -37z" />
    <glyph glyph-name="Y" unicode="Y" horiz-adv-x="635" 
d="M278 288l-75 267q-10 37 -25.5 49.5t-61.5 12.5l13 45h292l-14 -45q-16 0 -25 -1t-22.5 -4.5t-20.5 -14t-7 -26.5q0 -11 7 -37l53 -194l113 159q37 52 37 74q0 15 -6.5 25t-19 13.5t-21 4.5t-21.5 1l13 45h244l-11 -45q-42 0 -71.5 -21.5t-75.5 -84.5l-161 -223l-47 -153
q-9 -31 -9 -43q0 -17 8 -27t24 -14t27 -5t31 -1l-14 -45h-326l14 45q55 0 73 13t33 61z" />
    <glyph glyph-name="Z" unicode="Z" horiz-adv-x="615" 
d="M167 662h507v-38l-489 -576h150q156 0 222 149h48l-61 -197h-526v47l484 567h-150q-23 0 -38.5 -2.5t-45 -13t-57.5 -39t-51 -74.5h-47z" />
    <glyph glyph-name="bracketleft" unicode="[" horiz-adv-x="344" 
d="M-14 -233l274 895h167l-13 -42q-45 -2 -60.5 -17.5t-28.5 -59.5l-197 -643q-10 -34 -10 -48q0 -43 74 -43l-13 -42h-193z" />
    <glyph glyph-name="backslash" unicode="\" 
d="M18 674h88l204 -690h-88z" />
    <glyph glyph-name="bracketright" unicode="]" horiz-adv-x="344" 
d="M365 662l-274 -895h-167l13 42q45 2 60.5 17.5t28.5 59.5l197 643q10 34 10 48q0 43 -74 43l13 42h193z" />
    <glyph glyph-name="asciicircum" unicode="^" horiz-adv-x="542" 
d="M66 311l200 351h40l198 -351h-78l-144 250l-142 -250h-74z" />
    <glyph glyph-name="underscore" unicode="_" horiz-adv-x="500" 
d="M-6 -75h512v-50h-512v50z" />
    <glyph glyph-name="grave" unicode="`" horiz-adv-x="333" 
d="M247 643l51 -167h-35l-144 167h128z" />
    <glyph glyph-name="a" unicode="a" horiz-adv-x="531" 
d="M487 402l-91 -298q-10 -32 -10 -39q0 -15 14 -15q31 0 68 67h47q-28 -59 -70.5 -95t-88.5 -36q-23 0 -39.5 8.5t-24 18.5t-11.5 27.5t-4.5 26.5t-0.5 24q-19 -22 -31.5 -35t-35 -32t-47 -28.5t-50.5 -9.5q-42 0 -63.5 33.5t-21.5 82.5q0 66 32 137.5t91 123t127 51.5
q19 0 34 -6t23 -12.5t14.5 -19.5t8 -18t4.5 -17l18 61h108zM291 370q-37 0 -72.5 -44.5t-55.5 -101t-20 -99.5q0 -59 37 -59q53 0 103 87q50 85 50 159q0 58 -42 58z" />
    <glyph glyph-name="b" unicode="b" horiz-adv-x="542" 
d="M318 674l-101 -329l14 12q14 12 24.5 19t28.5 17.5t40.5 15.5t47.5 5q56 0 94 -37t38 -105q0 -106 -88.5 -196t-206.5 -90q-80 0 -123 40t-43 93q0 35 18 94l107 349q6 21 6 28q0 27 -57 27h-14l14 45q116 0 168 12h33zM318 351q-81 0 -133 -119q-17 -39 -26.5 -79.5
t-9.5 -57.5q0 -29 18 -48.5t50 -19.5q41 0 74.5 27.5t53 67.5t29.5 79t10 69q0 35 -16.5 58t-49.5 23z" />
    <glyph glyph-name="c" unicode="c" horiz-adv-x="458" 
d="M344 122h53q-34 -52 -97 -94t-140 -42q-68 0 -105 33.5t-37 91.5q0 109 87.5 206t213.5 97q58 0 92.5 -30.5t34.5 -71.5q0 -29 -17.5 -49.5t-45.5 -20.5q-21 0 -34 12t-13 30q0 11 4 26q4 13 4 24q0 16 -10.5 25.5t-19 11.5t-15.5 2q-44 0 -83 -50t-58.5 -109.5
t-19.5 -100.5q0 -69 65 -69q79 0 141 78z" />
    <glyph glyph-name="d" unicode="d" horiz-adv-x="573" 
d="M600 674l-173 -562q-11 -38 -11 -49q0 -17 16 -17q33 0 70 67h47q-7 -16 -19 -34t-32 -41t-49 -37.5t-61 -14.5q-25 0 -42 8t-25.5 18.5t-12.5 27.5t-4 26v24q-31 -42 -78.5 -73t-98.5 -31q-52 0 -80 33.5t-28 84.5q0 115 82.5 212.5t189.5 97.5q28 0 50 -10.5
t29.5 -18.5t17.5 -22l58 190q10 30 10 37q0 13 -10 19t-21.5 7t-36.5 1l12 45q118 1 166 12h34zM189 63q65 0 121 86q52 80 52 154q0 32 -16.5 52.5t-43.5 20.5q-43 0 -83 -45t-62 -102.5t-22 -103.5q0 -33 16 -47.5t38 -14.5z" />
    <glyph glyph-name="e" unicode="e" horiz-adv-x="469" 
d="M344 123h52q-18 -27 -44.5 -54t-80.5 -55t-113 -28q-58 0 -100 31t-42 93q0 116 91.5 210t219.5 94q67 0 96.5 -23t29.5 -58q0 -14 -6 -30.5t-26 -40t-51.5 -44t-88 -39.5t-129.5 -30l-12 -1q-4 -20 -4 -36q0 -68 68 -68q74 0 140 79zM150 192q99 16 149.5 56t50.5 87
q0 16 -11 29.5t-31 13.5q-28 0 -53.5 -17.5t-42 -39.5t-31.5 -53.5t-20.5 -46t-10.5 -29.5z" />
    <glyph glyph-name="f" unicode="f" horiz-adv-x="302" 
d="M135 400l9 31q11 37 19.5 61.5t28 62.5t41 61t57 40.5t77.5 17.5q41 0 70 -19t29 -53q0 -21 -14 -36t-35 -15q-22 0 -31.5 13t-19.5 43q-8 24 -25 24q-20 0 -31 -38l-59 -193h82l-14 -45h-82l-85 -278q-14 -44 -21.5 -68t-23 -63.5t-28 -61.5t-33.5 -50.5t-42.5 -43
t-51 -25t-63.5 -10.5q-54 0 -83.5 23.5t-29.5 53.5q0 23 16 39.5t40 16.5q16 0 27 -5.5t15.5 -16t6 -17.5t2.5 -18q3 -33 28 -33t40.5 26.5t33.5 85.5l136 445h-86l14 45h86z" />
    <glyph glyph-name="g" unicode="g" horiz-adv-x="490" 
d="M138 149q-38 15 -56.5 45t-18.5 63q0 62 55.5 109.5t139.5 47.5q83 0 125 -39q39 39 75 39q18 0 30 -10t12 -28q0 -16 -10.5 -23t-20.5 -7q-13 0 -25 9q-8 6 -15 6q-12 0 -19 -14q21 -34 21 -69q0 -21 -8 -43.5t-28.5 -49.5t-66.5 -44t-110 -17q-62 0 -82.5 -11
t-20.5 -31q0 -15 17 -23t77 -24q39 -11 64 -18q132 -37 132 -122q0 -58 -62 -99t-201 -41q-27 0 -56 3t-71.5 13t-69.5 34.5t-27 61.5q0 35 22 58t46 23q22 0 22 -13q0 -6 -10 -19q-17 -22 -17 -39q0 -25 18.5 -42.5t48.5 -24.5t52 -9.5t43 -2.5q69 0 109.5 18t40.5 49
q0 21 -20.5 32.5t-104.5 38.5q-81 25 -114.5 48t-33.5 65q0 41 35 66.5t83 33.5zM270 378q-45 0 -72.5 -54.5t-27.5 -100.5q0 -58 53 -58q34 0 59 30t34 63t9 60q0 25 -14.5 42.5t-40.5 17.5z" />
    <glyph glyph-name="h" unicode="h" horiz-adv-x="573" 
d="M330 674l-127 -415l14 19q14 19 17 23t17.5 21.5t22 24t22 20.5t26.5 19.5t28 13.5t32 11t34 3q35 0 58.5 -17.5t23.5 -45.5q0 -22 -18 -80l-49 -161q-8 -28 -8 -36q0 -16 12 -16q29 0 73 71h50q-31 -58 -75.5 -97t-98.5 -39q-40 0 -60 18t-20 44q0 14 13 57l37 124
q11 35 11 59q0 35 -29 35q-38 0 -87 -62t-69 -111q-41 -101 -47 -124l-9 -33h-116l167 547q11 33 11 42q0 28 -53 28h-15l15 45q117 2 164 12h33z" />
    <glyph glyph-name="i" unicode="i" horiz-adv-x="313" 
d="M56 279h-43q29 64 75 99.5t92 35.5q32 0 53.5 -16t21.5 -42q0 -28 -11 -56l-76 -205q-8 -21 -8 -34q0 -7 4.5 -12t10.5 -5q29 0 69 73h45q-8 -17 -18 -33.5t-30.5 -41.5t-50 -40.5t-62.5 -15.5q-42 0 -62 20t-20 48q0 30 18 79l63 172q9 23 9 32q0 5 -4.5 9.5t-9.5 4.5
q-17 0 -36 -25t-30 -47zM198 611q0 25 18.5 44t45.5 19q26 0 44.5 -18.5t18.5 -44.5q0 -27 -18.5 -45.5t-44.5 -18.5q-27 0 -45.5 19t-18.5 45z" />
    <glyph glyph-name="j" unicode="j" horiz-adv-x="313" 
d="M70 280h-45q65 134 172 134q35 0 54.5 -18t19.5 -42q0 -16 -11 -51l-82 -269q-14 -46 -27 -80t-34.5 -74t-46 -65.5t-60.5 -42.5t-79 -17q-46 0 -76.5 21.5t-30.5 55.5q0 25 16 41t40 16q51 0 51 -60q0 -31 22 -31q25 0 40 27t32 85l115 380q12 42 12 47q0 14 -14 14
q-31 0 -68 -71zM203 611q0 26 19 44.5t45 18.5t44.5 -18.5t18.5 -44.5q0 -27 -18.5 -45.5t-44.5 -18.5t-45 18.5t-19 45.5z" />
    <glyph glyph-name="k" unicode="k" horiz-adv-x="563" 
d="M329 674l-132 -429q8 8 38 35.5t40 36t35 29.5t39.5 29t37 19.5t42.5 15.5t42 4q38 0 60.5 -15t22.5 -40q0 -19 -15.5 -33.5t-35.5 -14.5q-21 0 -53 16q-26 13 -44 13q-53 0 -148 -89q40 1 78 -18q19 -11 31 -25t17 -35t6.5 -33t3.5 -38q3 -40 12 -47q5 -4 12 -4
q21 0 42 24.5t32 50.5h46q-20 -52 -61.5 -92.5t-104.5 -40.5q-50 0 -72 25t-22 55q0 9 3 39t3 42q0 64 -65 61l-43 -41l-53 -174h-116l165 540q13 44 13 49q0 13 -9.5 19.5t-21 7.5t-37.5 1l13 45q114 0 166 12h33z" />
    <glyph glyph-name="l" unicode="l" horiz-adv-x="313" 
d="M329 674l-171 -560q-13 -43 -13 -52q0 -18 14 -18q13 0 35 22t36 53h46q-70 -133 -164 -133q-38 0 -59.5 20t-21.5 49q0 24 15 74l125 407q17 53 8.5 67t-62.5 14l12 45h30.5h30.5t26.5 0.5t28 1.5t24.5 3.5t27 6.5h33z" />
    <glyph glyph-name="m" unicode="m" horiz-adv-x="948" 
d="M31 0l85 280q14 47 14 57q0 8 -5.5 12.5t-10.5 4.5q-12 0 -30.5 -17t-38.5 -59h-43q20 53 60.5 94.5t100.5 41.5q33 0 56 -17.5t23 -53.5q0 -29 -16 -83l-14 -47q58 97 123 149t126 52q40 0 66 -21t26 -56q0 -27 -15 -77l-13 -43q29 50 62.5 90t85 73.5t104.5 33.5
q45 0 67.5 -25.5t22.5 -53.5q0 -22 -15 -71l-47 -151q-9 -33 -9 -39q0 -16 15 -16q37 0 78 71h48q-73 -136 -179 -136q-38 0 -58.5 20.5t-20.5 46.5q0 18 11 54l38 122q13 41 13 56q0 18 -11 28t-28 10q-62 0 -131.5 -95.5t-104.5 -211.5l-7 -23h-116l75 245q9 31 9 47
q0 38 -36 38q-65 0 -134 -100t-105 -214l-5 -16h-116z" />
    <glyph glyph-name="n" unicode="n" horiz-adv-x="583" 
d="M27 0l88 286q12 44 12 50q0 18 -14 18q-20 0 -37.5 -25t-28.5 -51h-41q18 52 57 94t98 42q38 0 57 -20.5t19 -43.5q0 -31 -18 -87l-17 -50q28 43 49 71t51.5 62t64 51t67.5 17q38 0 55 -22t17 -47q0 -16 -12 -59l-51 -170q-9 -32 -9 -44q0 -14 12 -14q13 0 34 19t40 51
h49q-11 -19 -24.5 -38t-36 -43t-52.5 -39t-63 -15q-36 0 -57 18t-21 46q0 22 12 61l36 118q15 48 15 66q0 10 -6.5 19t-18.5 9q-40 0 -103.5 -97.5t-106.5 -232.5h-116z" />
    <glyph glyph-name="o" unicode="o" horiz-adv-x="531" 
d="M26 162q0 102 79 177t190 75q90 0 140.5 -50.5t50.5 -121.5q0 -102 -76 -179t-192 -77q-87 0 -139.5 49t-52.5 127zM294 373q-37 0 -67.5 -29t-48 -70.5t-27 -82t-9.5 -69.5q0 -42 19 -68.5t54 -26.5q38 0 69.5 28.5t49 70t27 81.5t9.5 69q0 45 -19.5 71t-56.5 26z" />
    <glyph glyph-name="p" unicode="p" horiz-adv-x="573" 
d="M161 38l-52 -171q-7 -22 -7 -29q0 -16 16.5 -22t54.5 -6h24l-13 -43h-309l13 43h19q48 0 62 12t29 62l127 416q7 21 7 35q0 21 -16 21q-33 0 -67 -80h-47q54 138 156 138q82 0 82 -83q78 83 159 83q40 0 69 -16t42.5 -40.5t19 -46.5t5.5 -42q0 -107 -76.5 -195
t-183.5 -88q-72 0 -114 52zM354 359q-66 0 -120 -106q-46 -90 -46 -154q0 -32 19 -54.5t51 -22.5q46 0 84 47.5t55.5 106t17.5 105.5q0 30 -16 54t-45 24z" />
    <glyph glyph-name="q" unicode="q" horiz-adv-x="563" 
d="M541 415l-168 -548q-6 -18 -6 -29q0 -16 16.5 -22t54.5 -6h14l-14 -43h-310l13 43h30q49 0 63 11.5t29 62.5l55 181q-88 -79 -166 -79q-59 0 -95 38.5t-36 96.5q0 103 81.5 198t185.5 95q84 0 122 -89q29 26 68 90h63zM371 261q0 108 -73 108q-45 0 -83.5 -42.5
t-57 -94.5t-18.5 -92q0 -32 17.5 -56t55.5 -24q75 0 122 85q37 67 37 116z" />
    <glyph glyph-name="r" unicode="r" horiz-adv-x="438" 
d="M35 0l77 274q12 42 12 55q0 17 -14 17q-33 0 -68 -75h-45q39 79 83 111t82 32q21 0 35.5 -9t19 -24t6 -23t1.5 -16q0 -44 -27 -134q20 34 31.5 53t34.5 52.5t41 52t41.5 33.5t45.5 15q27 0 42 -14.5t17.5 -26t2.5 -23.5q0 -30 -17 -54t-43 -24q-22 0 -43 26
q-12 15 -23 15q-29 0 -83.5 -90.5t-87.5 -202.5l-6 -20h-115z" />
    <glyph glyph-name="s" unicode="s" horiz-adv-x="458" 
d="M106 297q0 16 7 33.5t25 37.5t58 33t96 13q84 0 117 -25.5t33 -57.5q0 -20 -13 -35t-37 -15q-17 0 -28 8.5t-16 19t-13 34.5q-3 10 -6.5 16t-16 12.5t-31.5 6.5q-27 0 -46.5 -13t-19.5 -35q0 -14 10 -29.5t21 -26t35 -30.5q34 -28 47.5 -40.5t28.5 -38t15 -53.5
q0 -52 -45.5 -89t-144.5 -37q-51 0 -88.5 12t-54.5 30.5t-24 34t-7 27.5q0 22 15 38.5t40 16.5q49 0 57 -64q2 -13 4 -20.5t8 -18t19 -15.5t34 -5q33 0 54 16.5t21 42.5q0 27 -37 59q-63 54 -90 87t-27 70z" />
    <glyph glyph-name="t" unicode="t" horiz-adv-x="333" 
d="M129 400l45 149h116l-45 -149h97l-14 -45h-97l-74 -241q-8 -26 -8 -38q0 -11 6.5 -19t17.5 -8q42 0 88 87h46q-21 -47 -47.5 -79t-52 -46t-44.5 -19.5t-37 -5.5q-42 0 -65.5 24.5t-23.5 64.5q0 22 15 76l63 204h-91l14 45h91z" />
    <glyph glyph-name="u" unicode="u" horiz-adv-x="583" 
d="M38 276h-45q82 133 176 133q17 0 31.5 -4t28.5 -21t14 -45q0 -23 -6 -43l-40 -130q-14 -45 -14 -65q0 -11 6.5 -20.5t18.5 -9.5q37 0 94.5 83.5t113.5 245.5h116l-91 -298q-9 -31 -9 -38t4.5 -12.5t10.5 -5.5q28 0 64 77h46q-57 -137 -160 -137q-40 0 -56.5 21.5
t-16.5 49.5q0 20 17 77l16 55q-23 -38 -41.5 -64t-50 -62.5t-67 -56.5t-72.5 -20q-35 0 -53.5 20t-18.5 47q0 26 14 70l49 161q10 30 10 42q0 18 -16 18q-28 0 -73 -68z" />
    <glyph glyph-name="v" unicode="v" horiz-adv-x="531" 
d="M53 305h-41q33 109 100 109q32 0 71 -32q21 -17 33 -17q21 0 28 27q5 22 20 22q24 0 24 -26q0 -38 -51 -119q-69 -110 -69 -160q0 -29 18.5 -42t42.5 -13q71 0 130 73t59 131q0 23 -8 53q-7 25 -7 45q0 31 14.5 44.5t30.5 13.5q22 0 36.5 -20.5t14.5 -54.5
q0 -73 -46.5 -155t-124.5 -140t-156 -58q-44 0 -80 25t-36 79q0 44 23.5 79t68.5 73q36 30 53.5 49t30.5 45q-36 -26 -73 -26q-23 0 -51 15q-16 9 -25 9q-23 0 -30 -29z" />
    <glyph glyph-name="w" unicode="w" horiz-adv-x="813" 
d="M57 305h-41q36 109 100 109q30 0 73 -35q17 -13 30 -13t18.5 7.5t10.5 23.5q5 17 21 17q20 0 20 -20q0 -36 -55 -130q-27 -45 -37 -64t-18.5 -43t-8.5 -46q0 -29 17 -43t40 -14q61 0 134 52q-6 33 -6 51q0 32 11 74.5t29.5 84t48.5 70t64 28.5q29 0 46 -25.5t17 -55.5
q0 -96 -112 -196q27 -77 86 -77q62 0 107 65t45 130q0 22 -14 77q-3 12 -3 24q0 28 14 43t32 15q22 0 36 -22.5t14 -60.5q0 -70 -39.5 -150t-109 -137.5t-143.5 -57.5q-79 0 -113 80q-120 -80 -203 -80q-44 0 -77 27.5t-33 76.5q0 25 7 45.5t23.5 41t30 33.5t40.5 37
q44 38 70 85q-41 -23 -63 -23q-21 0 -48 14q-21 11 -31 11q-20 0 -30 -29zM447 179q85 85 85 153q0 15 -7.5 27.5t-22.5 12.5q-26 0 -43.5 -38.5t-17.5 -96.5q0 -28 6 -58z" />
    <glyph glyph-name="x" unicode="x" horiz-adv-x="552" 
d="M320 287l75 81q44 46 79 46q55 0 55 -67q0 -31 -9 -60h-47q10 34 10 61q0 21 -18 21q-8 0 -13.5 -4.5t-26.5 -26.5l-91 -96l41 -129q15 -49 31 -49q12 0 24 17t17.5 31.5t8.5 24.5h44q-21 -77 -60.5 -114t-78.5 -37t-59.5 27t-35.5 75l-19 61l-107 -114q-46 -49 -78 -49
q-43 0 -43 57q0 39 17 81h53q-18 -50 -18 -65t9 -15q8 0 27 19l125 133l-24 76q-15 47 -26 55q-5 4 -13 4q-27 0 -47 -72h-45q48 155 136 155q66 0 99 -102z" />
    <glyph glyph-name="y" unicode="y" horiz-adv-x="531" 
d="M56 254h-40q6 53 23 88.5t39 49t36.5 18t28.5 4.5q128 0 128 -270q0 -91 -10 -150q89 104 94 112q51 76 51 127q0 23 -17 66t-17 62q0 24 12.5 38.5t29.5 14.5q26 0 45.5 -24.5t19.5 -67.5q0 -84 -60 -187t-145.5 -185.5t-184.5 -138.5t-172 -56q-33 0 -56.5 13.5
t-23.5 40.5q0 21 17 34.5t39 13.5t61 -14q42 -14 61 -14q62 0 102 69q40 70 40 198q0 127 -19 203q-11 41 -35 41q-38 0 -47 -86z" />
    <glyph glyph-name="z" unicode="z" horiz-adv-x="490" 
d="M122 287h-42q54 127 150 127q34 0 82 -28q5 -3 13 -7.5t11 -6.5t8 -4.5t8 -3.5t7.5 -1.5t8.5 -0.5q27 0 45 31q13 21 27 21q13 0 19.5 -8t6.5 -16q0 -26 -66.5 -93.5t-166.5 -136.5q-74 -51 -103 -75q54 16 95 16q34 0 75 -11q22 -6 33 -6q35 0 59 39h44
q-19 -50 -61 -93.5t-104 -43.5q-39 0 -80 26q-50 32 -76 32q-29 0 -46 -28q-17 -30 -34 -30q-10 0 -17 7.5t-7 16.5q0 15 13 33.5t47 47t57 46t78 57.5q109 79 158 126q-30 -14 -77 -14q-24 0 -69 11q-31 7 -41 7q-16 0 -27.5 -6.5t-16 -12.5t-11.5 -18z" />
    <glyph glyph-name="braceleft" unicode="{" horiz-adv-x="375" 
d="M67 201v25q46 9 75 37t29 70q0 21 -12 79.5t-12 81.5q0 13 4 31.5t16.5 44t32.5 46.5t56.5 38t82.5 20v-21q-37 -3 -70.5 -32.5t-33.5 -74.5q0 -20 10.5 -80t10.5 -86q0 -18 -7.5 -40.5t-23 -47.5t-47 -46t-73.5 -31q63 -16 107.5 -63.5t44.5 -102.5q0 -20 -11 -82.5
t-11 -82.5q0 -85 104 -110v-20q-64 2 -110 34t-64 70t-18 73q0 28 12 84t12 82q0 83 -104 104z" />
    <glyph glyph-name="bar" unicode="|" horiz-adv-x="563" 
d="M254 674h91v-907h-91v907z" />
    <glyph glyph-name="braceright" unicode="}" horiz-adv-x="375" 
d="M324 201q-104 -21 -104 -104q0 -26 12 -82t12 -84q0 -35 -18 -73t-64 -70t-110 -34v20q104 25 104 110q0 20 -11 82.5t-11 82.5q0 55 44.5 102.5t107.5 63.5q-42 10 -73.5 31t-47 46t-23 47.5t-7.5 40.5q0 26 10.5 86t10.5 80q0 45 -33.5 74.5t-70.5 32.5v21
q46 -3 82.5 -20t56.5 -38t32.5 -46.5t16.5 -44t4 -31.5q0 -23 -12 -81.5t-12 -79.5q0 -42 29 -70t75 -37v-25z" />
    <glyph glyph-name="asciitilde" unicode="~" horiz-adv-x="667" 
d="M589 412h31q-2 -51 -17 -86.5t-38 -51.5t-42.5 -22.5t-39.5 -6.5q-31 0 -63 10t-121 47q-72 30 -101 30q-68 0 -84 -87h-31q3 69 25 105q37 62 108 62q55 0 187 -57q73 -31 102 -31t54 20t30 68z" />
    <glyph glyph-name="uni00A0" unicode="&#xa0;" horiz-adv-x="250" 
 />
    <glyph glyph-name="exclamdown" unicode="&#xa1;" horiz-adv-x="271" 
d="M194 316q-26 0 -45 18.5t-19 44.5t19 45t45 19t44.5 -19t18.5 -45t-18.5 -44.5t-44.5 -18.5zM132 243h42l-75 -375q-5 -25 -9 -39.5t-13 -34.5t-23 -29.5t-34 -9.5q-25 0 -40 17t-15 45q0 29 23 80z" />
    <glyph glyph-name="cent" unicode="&#xa2;" horiz-adv-x="458" 
d="M339 415l89 167h48l-94 -178q64 -30 64 -91q0 -30 -17 -50.5t-46 -20.5q-21 0 -34 12.5t-13 31.5q0 9 5 27.5t5 27.5l-154 -297q80 -8 152 78h53q-19 -29 -46 -56t-79.5 -54t-110.5 -28l-69 -130h-48l71 135q-96 22 -96 124q0 52 24.5 107.5t65.5 101t102 72t128 21.5z
M154 63l162 308q-8 2 -19 2q-60 0 -109.5 -94.5t-49.5 -166.5q0 -30 16 -49z" />
    <glyph glyph-name="sterling" unicode="&#xa3;" horiz-adv-x="719" 
d="M9 110l36 66h148q28 63 73.5 148t74.5 131q36 55 79 101t114 84t145 38q58 0 87 -24t29 -59q0 -28 -19.5 -44t-45.5 -16q-5 0 -8.5 0.5t-7 1.5t-5.5 2t-4.5 4t-3.5 4.5t-3.5 6t-3.5 7t-4 9t-4 9.5q-21 47 -62 47q-23 0 -43 -9.5t-34 -21.5t-32.5 -40t-29.5 -48t-33 -62
q-3 -5 -4 -7.5t-3.5 -7t-4.5 -8.5l-12 -24t-23.5 -46t-29 -54.5t-36 -63t-36.5 -58.5h163l-37 -66h-171q-43 -60 -115 -129q48 13 70 13q35 0 56.5 -15t57.5 -55q32 -36 53.5 -47.5t47.5 -11.5q44 0 66.5 29t22.5 63q0 8 -3 27.5t-3 23.5q0 17 13.5 31.5t38.5 14.5t38 -14
t13 -32q0 -65 -83.5 -138.5t-187.5 -73.5q-37 0 -64 11t-39 22.5t-32 36.5q-27 34 -42.5 47t-35.5 13q-15 0 -40 -9q-52 -71 -81 -96.5t-57 -25.5q-33 0 -33 31q0 25 33 58t103 63q16 21 35 50t32 51t25 42l12 20h-150z" />
    <glyph glyph-name="currency" unicode="&#xa4;" horiz-adv-x="467" 
d="M454 175l-37 -39l-67 65q-60 -39 -117 -39t-117 39l-67 -65l-38 39l66 63q-38 64 -38 116q0 54 38 116l-66 64l38 39l67 -65q62 38 117 38q57 0 117 -38l67 65l37 -39l-65 -64q39 -64 39 -116q0 -50 -39 -116zM373 355q0 58 -42.5 98t-97.5 40q-58 0 -98.5 -40.5
t-40.5 -97.5t41 -98t98 -41t98.5 41t41.5 98z" />
    <glyph glyph-name="yen" unicode="&#xa5;" horiz-adv-x="635" 
d="M263 340l-60 215q-11 37 -26 49.5t-61 12.5l13 45h292l-14 -45q-16 0 -25 -1t-22.5 -4.5t-20.5 -14t-7 -26.5q0 -12 8 -40l52 -191l113 159q37 52 37 74q0 15 -6.5 25t-19 13.5t-21 4.5t-21.5 1l13 45h244l-11 -45q-42 0 -71.5 -21.5t-75.5 -84.5l-123 -171h187l-17 -56
h-209l-24 -79h214l-18 -56h-213l-6 -19q-8 -26 -8 -38q0 -17 8 -27t24 -14t27 -5t31 -1l-14 -45h-326l14 45q55 0 73.5 13t32.5 61l9 30h-197l18 56h196l25 79h-202l18 56h170z" />
    <glyph glyph-name="brokenbar" unicode="&#xa6;" horiz-adv-x="563" 
d="M254 142h91v-375h-91v375zM254 674h91v-375h-91v375z" />
    <glyph glyph-name="section" unicode="&#xa7;" horiz-adv-x="448" 
d="M170 399q-30 55 -30 99q0 64 47.5 111t115.5 47q56 0 99 -32.5t43 -87.5q0 -23 -12.5 -39t-33.5 -16q-16 0 -26 10t-12.5 19t-5.5 25q-8 48 -22 62q-15 16 -42 16q-29 0 -49 -20.5t-20 -51.5q0 -25 11.5 -50t25.5 -43.5t51 -63.5q47 -57 68 -98.5t21 -84.5
q0 -59 -37.5 -101.5t-107.5 -57.5q37 -60 37 -118q0 -75 -51.5 -122t-123.5 -47q-68 0 -110.5 37t-42.5 83q0 21 13.5 37t35.5 16q42 0 49 -54q6 -46 17 -59q14 -17 44 -17q33 0 60 21t27 63q0 29 -16 63t-67 103q-36 48 -51 71t-28 56t-13 66q0 51 33 98t103 60zM106 288
q0 -37 45 -103q39 -58 64.5 -75.5t49.5 -17.5q25 0 40 18t15 42q0 40 -50 114q-55 84 -106 84q-22 0 -40 -17t-18 -45z" />
    <glyph glyph-name="dieresis" unicode="&#xa8;" horiz-adv-x="333" 
d="M94 560q0 21 15.5 37t38.5 16q22 0 37.5 -16t15.5 -37q0 -22 -15.5 -37.5t-37.5 -15.5t-38 15.5t-16 37.5zM283 560q0 22 15 37.5t38 15.5t38 -15.5t15 -37.5t-15.5 -37.5t-37.5 -15.5t-37.5 15.5t-15.5 37.5z" />
    <glyph glyph-name="copyright" unicode="&#xa9;" horiz-adv-x="708" 
d="M536 537v-129h-19q-8 43 -34 68.5t-46 31t-40 5.5q-38 0 -65 -18t-39 -47.5t-17 -56.5t-5 -55q0 -96 32 -137q36 -46 92 -46q73 0 127 68v-35q-59 -62 -155 -62q-84 0 -145 52t-61 147q0 96 62.5 155.5t152.5 59.5q39 0 96 -20q16 -6 23 -6q18 0 22 25h19zM372 674
q143 0 245 -101t102 -245q0 -143 -102 -244.5t-245 -101.5t-244.5 101.5t-101.5 244.5q0 144 102 245t244 101zM372 630q-125 0 -213.5 -88.5t-88.5 -213.5t88.5 -213.5t213.5 -88.5t214 88.5t89 213.5t-89 213.5t-214 88.5z" />
    <glyph glyph-name="ordfeminine" unicode="&#xaa;" horiz-adv-x="344" 
d="M397 669l-56 -172q-9 -27 -9 -31q0 -7 6 -7q14 0 37 39h41q-43 -85 -110 -85q-18 0 -29.5 5t-17 15t-7 16.5t-2.5 17.5q-52 -54 -100 -54q-28 0 -44 19.5t-16 52.5q0 63 49 126t117 63q16 0 27 -4.5t15 -9t11 -13.5l7 22h81zM265 643q-33 0 -61.5 -53t-28.5 -91
q0 -31 19 -31q30 0 61 49.5t31 93.5q0 32 -21 32z" />
    <glyph glyph-name="guillemotleft" unicode="&#xab;" horiz-adv-x="563" 
d="M418 205l27 -205h-42l-103 216l199 215h49zM162 205l27 -205h-42l-102 216l199 215h49z" />
    <glyph glyph-name="logicalnot" unicode="&#xac;" horiz-adv-x="667" 
d="M82 484h538v-322h-90v232h-448v90z" />
    <glyph glyph-name="uni00AD" unicode="&#xad;" horiz-adv-x="313" 
d="M19 157l26 87h234l-27 -87h-233z" />
    <glyph glyph-name="registered" unicode="&#xae;" horiz-adv-x="708" 
d="M187 529h176q93 0 129 -24q45 -30 45 -83q0 -77 -87 -101l66 -122q23 -42 51 -48v-17h-117l-100 180h-23v-97q0 -40 10.5 -52.5t48.5 -13.5v-17h-207v17q28 -1 39.5 10.5t11.5 55.5v231q0 38 -8 50t-35 14v17zM327 508v-169q10 -2 27 -2q29 0 53.5 21.5t24.5 65.5
q0 84 -87 84h-18zM372 674q143 0 245 -101t102 -245q0 -143 -102 -244.5t-245 -101.5t-244.5 101.5t-101.5 244.5q0 144 102 245t244 101zM372 630q-125 0 -213.5 -88.5t-88.5 -213.5t88.5 -213.5t213.5 -88.5t214 88.5t89 213.5t-89 213.5t-214 88.5z" />
    <glyph glyph-name="macron" unicode="&#xaf;" horiz-adv-x="333" 
d="M91 527l21 67h273l-21 -67h-273z" />
    <glyph glyph-name="degree" unicode="&#xb0;" horiz-adv-x="375" 
d="M233 657q70 0 120.5 -50.5t50.5 -120.5t-50.5 -120.5t-120.5 -50.5t-120.5 50.5t-50.5 120.5t50.5 120.5t120.5 50.5zM233 587q-43 0 -72 -28.5t-29 -72.5t29 -72.5t72 -28.5t72 29t29 72q0 44 -28.5 72.5t-72.5 28.5z" />
    <glyph glyph-name="plusminus" unicode="&#xb1;" horiz-adv-x="667" 
d="M82 491h224v224h90v-224h224v-90h-224v-224h-90v224h-224v90zM82 90h538v-90h-538v90z" />
    <glyph glyph-name="two.superior" unicode="&#xb2;" 
d="M254 302h-39q9 16 -8 16h-161l13 37q84 60 148 120q59 55 59 108q0 20 -11.5 33t-34.5 13q-44 0 -44 -31q0 -9 10 -22q2 -3 7.5 -6.5t5.5 -6.5q0 -5 -18 -14t-28 -9q-11 0 -23.5 14.5t-12.5 32.5q0 27 30 48.5t83 21.5t84 -21t31 -55q0 -43 -36.5 -83t-116.5 -87l-69 -40
h157z" />
    <glyph glyph-name="three.superior" unicode="&#xb3;" 
d="M207 579q0 -3 -18 -14q-15 -9 -21 -9q-8 0 -15 12t-7 23q0 27 27.5 46.5t76.5 19.5q47 0 74 -17t27 -42q0 -16 -11 -30.5t-34 -28t-34.5 -19t-35.5 -15.5q37 -3 51 -25.5t14 -43.5q0 -55 -50.5 -90.5t-116.5 -35.5q-41 0 -67 16t-26 36q0 12 10 20t24 8q30 0 41 -27
q3 -8 5.5 -12.5t8.5 -8.5t14 -4q35 0 59.5 46t24.5 78q0 3 -1 7.5t-5.5 11t-12.5 6.5q-11 0 -34 -15q-8 -5 -12 -5q-6 0 -11.5 4.5t-5.5 10.5q0 3 3.5 6.5t10 7.5t12 7t14.5 7.5t12 5.5q31 16 45.5 24.5t27 23.5t12.5 33q0 12 -10 22t-28 10q-19 0 -30.5 -10t-11.5 -25
q0 -1 2 -7.5t2 -7.5z" />
    <glyph glyph-name="acute" unicode="&#xb4;" horiz-adv-x="333" 
d="M224 643h128l-144 -167h-35z" />
    <glyph glyph-name="mu" unicode="&#xb5;" horiz-adv-x="542" 
d="M135 400h115l-69 -243q-13 -45 -13 -69q0 -14 7.5 -22t14 -10t11.5 -2q36 0 73 52t56 118l51 176h116l-89 -306q-17 -56 19 -56q26 0 52 65l17 -9q-36 -108 -123 -108q-43 0 -60.5 25t-17.5 51q0 30 5 45q-78 -121 -161 -121q-22 0 -37.5 7.5t-21 14.5t-12.5 19
q-20 -58 -23 -125q-1 -23 -2.5 -36t-7 -32.5t-18.5 -29.5t-32 -10q-20 0 -32.5 15t-12.5 35q0 29 37 90q27 45 39 71.5t26 73.5z" />
    <glyph glyph-name="paragraph" unicode="&#xb6;" horiz-adv-x="479" 
d="M294 627v-799h-46v404q-132 6 -191 64q-59 59 -59 156q0 108 86 171q30 22 73 30.5t151 8.5h204v-21h-20q-20 0 -33 -5t-20 -11t-10.5 -20.5t-4 -25t-0.5 -32.5v-719h-45v799h-85z" />
    <glyph glyph-name="periodcentered" unicode="&#xb7;" horiz-adv-x="271" 
d="M152 384q26 0 45 -18.5t19 -44.5t-19 -45t-45 -19t-44.5 19t-18.5 45t18.5 44.5t44.5 18.5z" />
    <glyph glyph-name="cedilla" unicode="&#xb8;" horiz-adv-x="333" 
d="M46 -97l55 103l47 -6l-20 -41q80 -10 80 -76q0 -67 -89 -99q-34 -12 -67 -14.5t-102 -2.5l19 45q50 -2 81 4q22 4 40 18.5t18 34.5q0 34 -62 34z" />
    <glyph glyph-name="one.superior" unicode="&#xb9;" 
d="M329 657l-94 -267q-9 -26 -9 -31q0 -8 7 -9.5t40 -3.5l-10 -28h-184l11 28h18q23 0 28.5 4.5t15.5 32.5l66 189q5 14 5 19q0 13 -35 13h-29l10 28q89 6 126 25h34z" />
    <glyph glyph-name="ordmasculine" unicode="&#xba;" horiz-adv-x="344" 
d="M101 520q0 62 52 108t126 46q61 0 94.5 -31.5t33.5 -73.5q0 -62 -50.5 -109t-126.5 -47q-58 0 -93.5 30t-35.5 77zM279 642q-41 0 -66.5 -51.5t-25.5 -93.5q0 -20 9.5 -36t31.5 -16q42 0 67.5 50.5t25.5 92.5q0 54 -42 54z" />
    <glyph glyph-name="guillemotright" unicode="&#xbb;" horiz-adv-x="563" 
d="M125 227l-27 204h42l103 -216l-199 -215h-49zM381 227l-27 204h42l102 -216l-199 -215h-49z" />
    <glyph glyph-name="onequarter" unicode="&#xbc;" horiz-adv-x="771" 
d="M449 98l6 36l216 206h64l-73 -204q20 0 25 3t12 18h36l-19 -59h-68l-8 -23q-10 -30 -10 -35q0 -15 48 -12l-9 -28h-184l9 28h18h5q14 0 19 1.5t10 9.5t11 27l10 32h-118zM119 0l543 664h57l-547 -664h-53zM504 136h78l41 116zM329 657l-94 -267q-9 -26 -9 -31
q0 -8 7 -9.5t40 -3.5l-10 -28h-184l11 28h18q23 0 28.5 4.5t15.5 32.5l66 189q5 14 5 19q0 13 -35 13h-29l10 28q89 6 126 25h34z" />
    <glyph glyph-name="onehalf" unicode="&#xbd;" horiz-adv-x="771" 
d="M119 0l543 664h57l-547 -664h-53zM329 657l-94 -267q-9 -26 -9 -31q0 -8 7 -9.5t40 -3.5l-10 -28h-184l11 28h18q23 0 28.5 4.5t15.5 32.5l66 189q5 14 5 19q0 13 -35 13h-29l10 28q89 6 126 25h34zM644 -16h-38l4 8q4 8 -5 8h-169l13 38q77 53 148 119q60 56 60 108
q0 46 -47 46q-44 0 -44 -30q0 -17 20 -30q3 -3 3 -6q0 -2 -8 -7t-19 -10t-18 -5q-11 0 -24 14.5t-13 31.5q0 28 30.5 49.5t83.5 21.5t84 -21.5t31 -55.5q0 -42 -36.5 -82t-116.5 -88l-50 -30q-9 -9 -15 -7v-2h152z" />
    <glyph glyph-name="threequarters" unicode="&#xbe;" horiz-adv-x="771" 
d="M449 98l6 36l216 206h64l-73 -204q20 0 25 3t12 18h36l-19 -59h-68l-8 -23q-10 -30 -10 -35q0 -15 48 -12l-9 -28h-184l9 28h18h5q14 0 19 1.5t10 9.5t11 27l10 32h-118zM119 0l543 664h57l-547 -664h-53zM504 136h78l41 116zM207 579q0 -3 -18 -14q-15 -9 -21 -9
q-8 0 -15 12t-7 23q0 27 27.5 46.5t76.5 19.5q47 0 74 -17t27 -42q0 -16 -11 -30.5t-34 -28t-34.5 -19t-35.5 -15.5q37 -3 51 -25.5t14 -43.5q0 -55 -50.5 -90.5t-116.5 -35.5q-41 0 -67 16t-26 36q0 12 10 20t24 8q30 0 41 -27q3 -8 5.5 -12.5t8.5 -8.5t14 -4q35 0 59.5 46
t24.5 78q0 3 -1 7.5t-5.5 11t-12.5 6.5q-11 0 -34 -15q-8 -5 -12 -5q-6 0 -11.5 4.5t-5.5 10.5q0 3 3.5 6.5t10 7.5t12 7t14.5 7.5t12 5.5q31 16 45.5 24.5t27 23.5t12.5 33q0 12 -10 22t-28 10q-19 0 -30.5 -10t-11.5 -25q0 -1 2 -7.5t2 -7.5z" />
    <glyph glyph-name="questiondown" unicode="&#xbf;" horiz-adv-x="458" 
d="M260 244h43l-59 -194h-21q-4 39 -30 39q-35 0 -60 -86.5t-25 -138.5q0 -26 12 -47.5t41 -21.5q18 0 29 10t25 34q17 30 40 30q16 0 25 -11t9 -26q0 -30 -31 -53.5t-87 -23.5q-75 0 -122 46.5t-47 118.5q0 82 49.5 146t128.5 64q21 0 43 -6zM322 316q-26 0 -45 18.5
t-19 44.5t19 45t45 19t44.5 -19t18.5 -45t-18.5 -44.5t-44.5 -18.5z" />
    <glyph glyph-name="Agrave" unicode="&#xc0;" horiz-adv-x="615" 
d="M393 236h-208l-71 -104q-26 -38 -26 -56q0 -31 60 -31h28l-14 -45h-237l14 45q34 3 67.5 34t72.5 86l359 509h85l-7 -552q-1 -46 16 -61.5t65 -15.5l-13 -45h-301l14 45q56 0 76 22t20 86v83zM218 281h175l5 259zM483 891l51 -167h-35l-144 167h128z" />
    <glyph glyph-name="Aacute" unicode="&#xc1;" horiz-adv-x="615" 
d="M393 236h-208l-71 -104q-26 -38 -26 -56q0 -31 60 -31h28l-14 -45h-237l14 45q34 3 67.5 34t72.5 86l359 509h85l-7 -552q-1 -46 16 -61.5t65 -15.5l-13 -45h-301l14 45q56 0 76 22t20 86v83zM218 281h175l5 259zM485 891h128l-144 -167h-35z" />
    <glyph glyph-name="Acircumflex" unicode="&#xc2;" horiz-adv-x="615" 
d="M393 236h-208l-71 -104q-26 -38 -26 -56q0 -31 60 -31h28l-14 -45h-237l14 45q34 3 67.5 34t72.5 86l359 509h85l-7 -552q-1 -46 16 -61.5t65 -15.5l-13 -45h-301l14 45q56 0 76 22t20 86v83zM218 281h175l5 259zM498 834l-155 -106h-29l141 172h117l28 -172h-28z" />
    <glyph glyph-name="Atilde" unicode="&#xc3;" horiz-adv-x="615" 
d="M393 236h-208l-71 -104q-26 -38 -26 -56q0 -31 60 -31h28l-14 -45h-237l14 45q34 3 67.5 34t72.5 86l359 509h85l-7 -552q-1 -46 16 -61.5t65 -15.5l-13 -45h-301l14 45q56 0 76 22t20 86v83zM218 281h175l5 259zM325 743h-31q24 130 109 130q31 0 82 -25q56 -28 80 -28
q20 0 33 10t17 19t8 24h30q-7 -58 -36.5 -94.5t-71.5 -36.5q-31 0 -91 30q-48 24 -75 24q-14 0 -24.5 -5t-16.5 -14.5t-8 -16t-5 -17.5z" />
    <glyph glyph-name="Adieresis" unicode="&#xc4;" horiz-adv-x="615" 
d="M393 236h-208l-71 -104q-26 -38 -26 -56q0 -31 60 -31h28l-14 -45h-237l14 45q34 3 67.5 34t72.5 86l359 509h85l-7 -552q-1 -46 16 -61.5t65 -15.5l-13 -45h-301l14 45q56 0 76 22t20 86v83zM218 281h175l5 259zM330 808q0 21 15.5 37t38.5 16q22 0 37.5 -16t15.5 -37
q0 -22 -15.5 -37.5t-37.5 -15.5t-38 15.5t-16 37.5zM519 808q0 22 15 37.5t38 15.5t38 -15.5t15 -37.5t-15.5 -37.5t-37.5 -15.5t-37.5 15.5t-15.5 37.5z" />
    <glyph glyph-name="Aring" unicode="&#xc5;" horiz-adv-x="615" 
d="M393 236h-208l-71 -104q-26 -38 -26 -56q0 -31 60 -31h28l-14 -45h-237l14 45q34 3 67.5 34t72.5 86l359 509h85l-7 -552q-1 -46 16 -61.5t65 -15.5l-13 -45h-301l14 45q56 0 76 22t20 86v83zM218 281h175l5 259zM380 809q0 39 28 66.5t67 27.5t66.5 -27.5t27.5 -66.5
t-27.5 -66.5t-66.5 -27.5t-67 27.5t-28 66.5zM417 809q0 -24 16.5 -40t39.5 -16t39.5 16t16.5 40q0 23 -16.5 39.5t-39.5 16.5t-39.5 -16.5t-16.5 -39.5z" />
    <glyph glyph-name="AE" unicode="&#xc6;" horiz-adv-x="938" 
d="M588 319l-56 -184q-10 -31 -10 -41q0 -26 21.5 -36t73.5 -10q23 0 38 1t42.5 8t48 19.5t45 39t43.5 63.5h48l-52 -179h-560l15 45q56 0 74.5 12.5t33.5 61.5l61 200h-169l-115 -140q-21 -26 -29 -36.5t-14 -24t-6 -26.5q0 -47 77 -47l-14 -45h-245l14 45q54 15 143 122
l304 366q2 2 6.5 8t6 7.5t4.5 6t4.5 7t3 6t2 7t0.5 7.5q0 35 -61 35h-20l14 45h576l3 -162h-43q-25 70 -55 92t-86 22h-77l-75 -247h26q22 0 34 1t29.5 6t28.5 15t22 29t19 47h49l-80 -262h-49q19 72 4.5 94t-69.5 22h-29zM324 367h144l87 279z" />
    <glyph glyph-name="Ccedilla" unicode="&#xc7;" horiz-adv-x="688" 
d="M343 -12l-14 -29q80 -10 80 -76q0 -68 -90 -99q-24 -8 -50.5 -12t-48 -4.5t-69.5 -0.5l19 45q74 0 96 9q42 15 42 48q0 34 -62 34l47 88q-99 17 -156 89.5t-57 164.5q0 87 36 167.5t92 137t126.5 90.5t138.5 34q109 0 180 -87q23 24 40 71h45l-49 -226h-47q2 52 -10.5 91
t-30 58.5t-41.5 31t-39 14t-29 2.5q-57 0 -109 -42.5t-86.5 -107t-55 -139t-20.5 -140.5t32 -114t95 -48q64 0 133.5 50.5t103.5 135.5h47l-65 -219h-41q2 22 2 44q0 11 -2 23q-72 -79 -183 -84z" />
    <glyph glyph-name="Egrave" unicode="&#xc8;" horiz-adv-x="646" 
d="M293 319l-58 -188q-7 -21 -7 -39q0 -21 21.5 -32.5t84.5 -11.5q47 0 83 10.5t60.5 32.5t38 40.5t30.5 47.5h49l-55 -179h-532l14 45q25 0 41.5 13t22 25.5t12.5 35.5l126 414q9 28 9 39q0 45 -62 45l13 45h461l5 -161h-46q-13 34 -26.5 55.5t-24 33t-28.5 17t-30 6.5
t-40 1h-72l-75 -247h33q66 0 90.5 20.5t42.5 77.5h48l-80 -261h-48q12 38 12 60q0 55 -81 55h-32zM464 891l51 -167h-35l-144 167h128z" />
    <glyph glyph-name="Eacute" unicode="&#xc9;" horiz-adv-x="646" 
d="M293 319l-58 -188q-7 -21 -7 -39q0 -21 21.5 -32.5t84.5 -11.5q47 0 83 10.5t60.5 32.5t38 40.5t30.5 47.5h49l-55 -179h-532l14 45q25 0 41.5 13t22 25.5t12.5 35.5l126 414q9 28 9 39q0 45 -62 45l13 45h461l5 -161h-46q-13 34 -26.5 55.5t-24 33t-28.5 17t-30 6.5
t-40 1h-72l-75 -247h33q66 0 90.5 20.5t42.5 77.5h48l-80 -261h-48q12 38 12 60q0 55 -81 55h-32zM471 891h128l-144 -167h-35z" />
    <glyph glyph-name="Ecircumflex" unicode="&#xca;" horiz-adv-x="646" 
d="M293 319l-58 -188q-7 -21 -7 -39q0 -21 21.5 -32.5t84.5 -11.5q47 0 83 10.5t60.5 32.5t38 40.5t30.5 47.5h49l-55 -179h-532l14 45q25 0 41.5 13t22 25.5t12.5 35.5l126 414q9 28 9 39q0 45 -62 45l13 45h461l5 -161h-46q-13 34 -26.5 55.5t-24 33t-28.5 17t-30 6.5
t-40 1h-72l-75 -247h33q66 0 90.5 20.5t42.5 77.5h48l-80 -261h-48q12 38 12 60q0 55 -81 55h-32zM479 834l-155 -106h-29l141 172h117l28 -172h-28z" />
    <glyph glyph-name="Edieresis" unicode="&#xcb;" horiz-adv-x="646" 
d="M293 319l-58 -188q-7 -21 -7 -39q0 -21 21.5 -32.5t84.5 -11.5q47 0 83 10.5t60.5 32.5t38 40.5t30.5 47.5h49l-55 -179h-532l14 45q25 0 41.5 13t22 25.5t12.5 35.5l126 414q9 28 9 39q0 45 -62 45l13 45h461l5 -161h-46q-13 34 -26.5 55.5t-24 33t-28.5 17t-30 6.5
t-40 1h-72l-75 -247h33q66 0 90.5 20.5t42.5 77.5h48l-80 -261h-48q12 38 12 60q0 55 -81 55h-32zM311 808q0 21 15.5 37t38.5 16q22 0 37.5 -16t15.5 -37q0 -22 -15.5 -37.5t-37.5 -15.5t-38 15.5t-16 37.5zM500 808q0 22 15 37.5t38 15.5t38 -15.5t15 -37.5t-15.5 -37.5
t-37.5 -15.5t-37.5 15.5t-15.5 37.5z" />
    <glyph glyph-name="Igrave" unicode="&#xcc;" horiz-adv-x="385" 
d="M190 662h258l-14 -45q-31 -1 -44.5 -17t-26.5 -57l-124 -408q-9 -28 -9 -43q0 -47 68 -47l-13 -45h-275l14 45q25 0 41 12.5t21.5 25.5t12.5 36l125 408q9 31 9 43q0 41 -57 47zM353 891l51 -167h-35l-144 167h128z" />
    <glyph glyph-name="Iacute" unicode="&#xcd;" horiz-adv-x="385" 
d="M190 662h258l-14 -45q-31 -1 -44.5 -17t-26.5 -57l-124 -408q-9 -28 -9 -43q0 -47 68 -47l-13 -45h-275l14 45q25 0 41 12.5t21.5 25.5t12.5 36l125 408q9 31 9 43q0 41 -57 47zM320 891h128l-144 -167h-35z" />
    <glyph glyph-name="Icircumflex" unicode="&#xce;" horiz-adv-x="385" 
d="M190 662h258l-14 -45q-31 -1 -44.5 -17t-26.5 -57l-124 -408q-9 -28 -9 -43q0 -47 68 -47l-13 -45h-275l14 45q25 0 41 12.5t21.5 25.5t12.5 36l125 408q9 31 9 43q0 41 -57 47zM368 834l-155 -106h-29l141 172h117l28 -172h-28z" />
    <glyph glyph-name="Idieresis" unicode="&#xcf;" horiz-adv-x="385" 
d="M190 662h258l-14 -45q-31 -1 -44.5 -17t-26.5 -57l-124 -408q-9 -28 -9 -43q0 -47 68 -47l-13 -45h-275l14 45q25 0 41 12.5t21.5 25.5t12.5 36l125 408q9 31 9 43q0 41 -57 47zM200 808q0 21 15.5 37t38.5 16q22 0 37.5 -16t15.5 -37q0 -22 -15.5 -37.5t-37.5 -15.5
t-38 15.5t-16 37.5zM389 808q0 22 15 37.5t38 15.5t38 -15.5t15 -37.5t-15.5 -37.5t-37.5 -15.5t-37.5 15.5t-15.5 37.5z" />
    <glyph glyph-name="Eth" unicode="&#xd0;" horiz-adv-x="740" 
d="M283 301l-50 -164q-9 -33 -9 -42q0 -47 83 -47q164 0 237 176q24 59 34 117.5t10 88.5q0 59 -16.5 98.5t-46.5 56.5t-57.5 23t-64.5 6h-24l-78 -255h140l-22 -58h-136zM167 359l52 170q9 31 9 43q0 15 -6 25t-19 14t-18.5 4.5t-18.5 1.5l13 45h233q38 0 60 -1t58.5 -10
t66.5 -26q132 -75 132 -239q0 -58 -15 -114t-55.5 -114.5t-102.5 -97.5q-44 -28 -102 -42t-93.5 -16t-93.5 -2h-263l14 45q19 0 32 5.5t21.5 19t12 22t9.5 27.5l56 182h-79l18 58h79z" />
    <glyph glyph-name="Ntilde" unicode="&#xd1;" horiz-adv-x="729" 
d="M149 662h180l222 -493l95 311q19 65 19 77q0 21 -18.5 40.5t-64.5 19.5l14 45h231l-13 -45q-20 -2 -32 -5.5t-26.5 -14t-25.5 -33t-22 -58.5l-157 -511h-62l-224 496l-103 -338q-10 -34 -10 -50q0 -33 24.5 -45.5t55.5 -12.5l-14 -45h-222l14 45q24 4 42 15.5t30 32.5
t17.5 36t13.5 40l119 392l-11 18q-16 26 -31 32t-55 6zM357 743h-31q24 130 109 130q31 0 82 -25q56 -28 80 -28q20 0 33 10t17 19t8 24h30q-7 -58 -36.5 -94.5t-71.5 -36.5q-31 0 -91 30q-48 24 -75 24q-14 0 -24.5 -5t-16.5 -14.5t-8 -16t-5 -17.5z" />
    <glyph glyph-name="Ograve" unicode="&#xd2;" horiz-adv-x="792" 
d="M361 -12q-77 0 -134.5 25t-88.5 66t-46 85.5t-15 91.5q0 71 30.5 144t84.5 134.5t138 100.5t180 39q75 0 131 -24.5t87 -65t46 -86.5t15 -97q0 -68 -30.5 -140t-84.5 -133t-136.5 -100.5t-176.5 -39.5zM357 33q153 0 236 192q61 144 61 243q0 161 -149 161
q-129 0 -204 -136q-35 -63 -62 -147.5t-27 -156.5q0 -156 145 -156zM547 891l51 -167h-35l-144 167h128z" />
    <glyph glyph-name="Oacute" unicode="&#xd3;" horiz-adv-x="792" 
d="M361 -12q-77 0 -134.5 25t-88.5 66t-46 85.5t-15 91.5q0 71 30.5 144t84.5 134.5t138 100.5t180 39q75 0 131 -24.5t87 -65t46 -86.5t15 -97q0 -68 -30.5 -140t-84.5 -133t-136.5 -100.5t-176.5 -39.5zM357 33q153 0 236 192q61 144 61 243q0 161 -149 161
q-129 0 -204 -136q-35 -63 -62 -147.5t-27 -156.5q0 -156 145 -156zM514 891h128l-144 -167h-35z" />
    <glyph glyph-name="Ocircumflex" unicode="&#xd4;" horiz-adv-x="792" 
d="M361 -12q-77 0 -134.5 25t-88.5 66t-46 85.5t-15 91.5q0 71 30.5 144t84.5 134.5t138 100.5t180 39q75 0 131 -24.5t87 -65t46 -86.5t15 -97q0 -68 -30.5 -140t-84.5 -133t-136.5 -100.5t-176.5 -39.5zM357 33q153 0 236 192q61 144 61 243q0 161 -149 161
q-129 0 -204 -136q-35 -63 -62 -147.5t-27 -156.5q0 -156 145 -156zM552 834l-155 -106h-29l141 172h117l28 -172h-28z" />
    <glyph glyph-name="Otilde" unicode="&#xd5;" horiz-adv-x="792" 
d="M361 -12q-77 0 -134.5 25t-88.5 66t-46 85.5t-15 91.5q0 71 30.5 144t84.5 134.5t138 100.5t180 39q75 0 131 -24.5t87 -65t46 -86.5t15 -97q0 -68 -30.5 -140t-84.5 -133t-136.5 -100.5t-176.5 -39.5zM357 33q153 0 236 192q61 144 61 243q0 161 -149 161
q-129 0 -204 -136q-35 -63 -62 -147.5t-27 -156.5q0 -156 145 -156zM379 743h-31q24 130 109 130q31 0 82 -25q56 -28 80 -28q20 0 33 10t17 19t8 24h30q-7 -58 -36.5 -94.5t-71.5 -36.5q-31 0 -91 30q-48 24 -75 24q-14 0 -24.5 -5t-16.5 -14.5t-8 -16t-5 -17.5z" />
    <glyph glyph-name="Odieresis" unicode="&#xd6;" horiz-adv-x="792" 
d="M361 -12q-77 0 -134.5 25t-88.5 66t-46 85.5t-15 91.5q0 71 30.5 144t84.5 134.5t138 100.5t180 39q75 0 131 -24.5t87 -65t46 -86.5t15 -97q0 -68 -30.5 -140t-84.5 -133t-136.5 -100.5t-176.5 -39.5zM357 33q153 0 236 192q61 144 61 243q0 161 -149 161
q-129 0 -204 -136q-35 -63 -62 -147.5t-27 -156.5q0 -156 145 -156zM384 808q0 21 15.5 37t38.5 16q22 0 37.5 -16t15.5 -37q0 -22 -15.5 -37.5t-37.5 -15.5t-38 15.5t-16 37.5zM573 808q0 22 15 37.5t38 15.5t38 -15.5t15 -37.5t-15.5 -37.5t-37.5 -15.5t-37.5 15.5
t-15.5 37.5z" />
    <glyph glyph-name="multiply" unicode="&#xd7;" horiz-adv-x="667" 
d="M163 575l189 -189l188 188l63 -63l-188 -188l189 -189l-64 -64l-189 189l-188 -188l-64 64l188 188l-188 188z" />
    <glyph glyph-name="Oslash" unicode="&#xd8;" horiz-adv-x="792" 
d="M219 129l406 449q-31 51 -120 51q-129 0 -204 -136q-35 -63 -62 -147.5t-27 -156.5q0 -41 7 -60zM239 84q38 -51 118 -51q153 0 236 192q61 144 61 243q0 34 -8 66zM156 59q-79 79 -79 197q0 71 30.5 144t84.5 134.5t137.5 100.5t180.5 39q95 0 164 -42l37 42l34 -30
l-35 -40q79 -79 79 -203q0 -68 -30.5 -140t-84.5 -133t-136.5 -100.5t-176.5 -39.5t-169 43l-40 -43l-33 30z" />
    <glyph glyph-name="Ugrave" unicode="&#xd9;" horiz-adv-x="688" 
d="M149 662h300l-14 -45q-50 0 -69 -13t-34 -60l-102 -336q-14 -48 -14 -74q0 -44 35 -70t87 -26q31 0 57.5 8t45 19.5t35 30t26 33.5t18.5 37.5t13 34.5t9 30l83 291q7 23 7 36q0 55 -84 59l14 45h246l-14 -45q-51 -4 -77.5 -29.5t-40.5 -77.5l-78 -279q-8 -27 -12.5 -42
t-16.5 -44t-24.5 -47t-34.5 -41.5t-47.5 -36.5t-62.5 -22.5t-80 -9.5q-100 0 -166 44t-66 114q0 36 19 100l86 282q10 34 10 44q0 41 -68 45zM505 891l51 -167h-35l-144 167h128z" />
    <glyph glyph-name="Uacute" unicode="&#xda;" horiz-adv-x="688" 
d="M149 662h300l-14 -45q-50 0 -69 -13t-34 -60l-102 -336q-14 -48 -14 -74q0 -44 35 -70t87 -26q31 0 57.5 8t45 19.5t35 30t26 33.5t18.5 37.5t13 34.5t9 30l83 291q7 23 7 36q0 55 -84 59l14 45h246l-14 -45q-51 -4 -77.5 -29.5t-40.5 -77.5l-78 -279q-8 -27 -12.5 -42
t-16.5 -44t-24.5 -47t-34.5 -41.5t-47.5 -36.5t-62.5 -22.5t-80 -9.5q-100 0 -166 44t-66 114q0 36 19 100l86 282q10 34 10 44q0 41 -68 45zM512 891h128l-144 -167h-35z" />
    <glyph glyph-name="Ucircumflex" unicode="&#xdb;" horiz-adv-x="688" 
d="M149 662h300l-14 -45q-50 0 -69 -13t-34 -60l-102 -336q-14 -48 -14 -74q0 -44 35 -70t87 -26q31 0 57.5 8t45 19.5t35 30t26 33.5t18.5 37.5t13 34.5t9 30l83 291q7 23 7 36q0 55 -84 59l14 45h246l-14 -45q-51 -4 -77.5 -29.5t-40.5 -77.5l-78 -279q-8 -27 -12.5 -42
t-16.5 -44t-24.5 -47t-34.5 -41.5t-47.5 -36.5t-62.5 -22.5t-80 -9.5q-100 0 -166 44t-66 114q0 36 19 100l86 282q10 34 10 44q0 41 -68 45zM520 834l-155 -106h-29l141 172h117l28 -172h-28z" />
    <glyph glyph-name="Udieresis" unicode="&#xdc;" horiz-adv-x="688" 
d="M149 662h300l-14 -45q-50 0 -69 -13t-34 -60l-102 -336q-14 -48 -14 -74q0 -44 35 -70t87 -26q31 0 57.5 8t45 19.5t35 30t26 33.5t18.5 37.5t13 34.5t9 30l83 291q7 23 7 36q0 55 -84 59l14 45h246l-14 -45q-51 -4 -77.5 -29.5t-40.5 -77.5l-78 -279q-8 -27 -12.5 -42
t-16.5 -44t-24.5 -47t-34.5 -41.5t-47.5 -36.5t-62.5 -22.5t-80 -9.5q-100 0 -166 44t-66 114q0 36 19 100l86 282q10 34 10 44q0 41 -68 45zM352 808q0 21 15.5 37t38.5 16q22 0 37.5 -16t15.5 -37q0 -22 -15.5 -37.5t-37.5 -15.5t-38 15.5t-16 37.5zM541 808q0 22 15 37.5
t38 15.5t38 -15.5t15 -37.5t-15.5 -37.5t-37.5 -15.5t-37.5 15.5t-15.5 37.5z" />
    <glyph glyph-name="Yacute" unicode="&#xdd;" horiz-adv-x="635" 
d="M278 288l-75 267q-10 37 -25.5 49.5t-61.5 12.5l13 45h292l-14 -45q-16 0 -25 -1t-22.5 -4.5t-20.5 -14t-7 -26.5q0 -11 7 -37l53 -194l113 159q37 52 37 74q0 15 -6.5 25t-19 13.5t-21 4.5t-21.5 1l13 45h244l-11 -45q-42 0 -71.5 -21.5t-75.5 -84.5l-161 -223l-47 -153
q-9 -31 -9 -43q0 -17 8 -27t24 -14t27 -5t31 -1l-14 -45h-326l14 45q55 0 73 13t33 61zM445 891h128l-144 -167h-35z" />
    <glyph glyph-name="Thorn" unicode="&#xde;" horiz-adv-x="646" 
d="M449 662l-14 -45q-33 0 -48 -17t-25 -50l-6 -20h50q97 0 146 -30q85 -52 85 -138q0 -48 -26.5 -92.5t-82.5 -71.5q-63 -31 -218 -31h-63l-13 -35q-8 -20 -8 -41q0 -24 19.5 -35t42.5 -11h14l-14 -45h-282l14 45q31 0 47 16t29 58l126 411q9 31 9 41q0 46 -71 46l14 45
h275zM343 482l-82 -267h59q80 0 114 30q28 25 47 63t19 79q0 95 -110 95h-47z" />
    <glyph glyph-name="germandbls" unicode="&#xdf;" horiz-adv-x="563" 
d="M295 346l13 42q39 -3 69 12.5t45 37t24.5 50t12 46t2.5 29.5q0 35 -19.5 52.5t-48.5 17.5q-21 0 -38 -10t-28 -22.5t-22.5 -39t-17.5 -45t-17 -54.5l-133 -436q-40 -130 -98 -200.5t-150 -70.5q-53 0 -83 23t-30 57q0 19 14 36.5t42 17.5q23 0 37 -14t14 -37
q0 -17 8 -28.5t21 -11.5q6 0 12 2.5t10.5 5.5t9.5 9.5t8 11.5t7.5 13.5t6.5 13.5t5.5 14t4.5 13t4 12.5t3 9.5l161 525q10 31 15 47t17.5 46.5t24 47.5t31.5 40t42 35t53 21t67 9q78 0 125 -37.5t47 -105.5q0 -63 -45.5 -110.5t-126.5 -56.5q124 -29 124 -142
q0 -91 -64.5 -163.5t-155.5 -72.5q-42 0 -72 22t-30 58q0 28 14 41.5t32 13.5q8 0 16.5 -2.5t17.5 -14.5t9 -32q0 -17 1 -24.5t6 -14t15 -6.5q38 0 67.5 77.5t29.5 131.5q0 31 -10 53t-21.5 32.5t-30.5 16.5t-26.5 6.5t-20.5 1.5z" />
    <glyph glyph-name="agrave" unicode="&#xe0;" horiz-adv-x="531" 
d="M487 402l-91 -298q-10 -32 -10 -39q0 -15 14 -15q31 0 68 67h47q-28 -59 -70.5 -95t-88.5 -36q-23 0 -39.5 8.5t-24 18.5t-11.5 27.5t-4.5 26.5t-0.5 24q-19 -22 -31.5 -35t-35 -32t-47 -28.5t-50.5 -9.5q-42 0 -63.5 33.5t-21.5 82.5q0 66 32 137.5t91 123t127 51.5
q19 0 34 -6t23 -12.5t14.5 -19.5t8 -18t4.5 -17l18 61h108zM291 370q-37 0 -72.5 -44.5t-55.5 -101t-20 -99.5q0 -59 37 -59q53 0 103 87q50 85 50 159q0 58 -42 58zM346 643l51 -167h-35l-144 167h128z" />
    <glyph glyph-name="aacute" unicode="&#xe1;" horiz-adv-x="531" 
d="M487 402l-91 -298q-10 -32 -10 -39q0 -15 14 -15q31 0 68 67h47q-28 -59 -70.5 -95t-88.5 -36q-23 0 -39.5 8.5t-24 18.5t-11.5 27.5t-4.5 26.5t-0.5 24q-19 -22 -31.5 -35t-35 -32t-47 -28.5t-50.5 -9.5q-42 0 -63.5 33.5t-21.5 82.5q0 66 32 137.5t91 123t127 51.5
q19 0 34 -6t23 -12.5t14.5 -19.5t8 -18t4.5 -17l18 61h108zM291 370q-37 0 -72.5 -44.5t-55.5 -101t-20 -99.5q0 -59 37 -59q53 0 103 87q50 85 50 159q0 58 -42 58zM323 643h128l-144 -167h-35z" />
    <glyph glyph-name="acircumflex" unicode="&#xe2;" horiz-adv-x="531" 
d="M487 402l-91 -298q-10 -32 -10 -39q0 -15 14 -15q31 0 68 67h47q-28 -59 -70.5 -95t-88.5 -36q-23 0 -39.5 8.5t-24 18.5t-11.5 27.5t-4.5 26.5t-0.5 24q-19 -22 -31.5 -35t-35 -32t-47 -28.5t-50.5 -9.5q-42 0 -63.5 33.5t-21.5 82.5q0 66 32 137.5t91 123t127 51.5
q19 0 34 -6t23 -12.5t14.5 -19.5t8 -18t4.5 -17l18 61h108zM291 370q-37 0 -72.5 -44.5t-55.5 -101t-20 -99.5q0 -59 37 -59q53 0 103 87q50 85 50 159q0 58 -42 58zM361 586l-155 -106h-29l141 172h117l28 -172h-28z" />
    <glyph glyph-name="atilde" unicode="&#xe3;" horiz-adv-x="531" 
d="M487 402l-91 -298q-10 -32 -10 -39q0 -15 14 -15q31 0 68 67h47q-28 -59 -70.5 -95t-88.5 -36q-23 0 -39.5 8.5t-24 18.5t-11.5 27.5t-4.5 26.5t-0.5 24q-19 -22 -31.5 -35t-35 -32t-47 -28.5t-50.5 -9.5q-42 0 -63.5 33.5t-21.5 82.5q0 66 32 137.5t91 123t127 51.5
q19 0 34 -6t23 -12.5t14.5 -19.5t8 -18t4.5 -17l18 61h108zM291 370q-37 0 -72.5 -44.5t-55.5 -101t-20 -99.5q0 -59 37 -59q53 0 103 87q50 85 50 159q0 58 -42 58zM188 495h-31q24 130 109 130q31 0 82 -25q56 -28 80 -28q20 0 33 10t17 19t8 24h30q-7 -58 -36.5 -94.5
t-71.5 -36.5q-31 0 -91 30q-48 24 -75 24q-14 0 -24.5 -5t-16.5 -14.5t-8 -16t-5 -17.5z" />
    <glyph glyph-name="adieresis" unicode="&#xe4;" horiz-adv-x="531" 
d="M487 402l-91 -298q-10 -32 -10 -39q0 -15 14 -15q31 0 68 67h47q-28 -59 -70.5 -95t-88.5 -36q-23 0 -39.5 8.5t-24 18.5t-11.5 27.5t-4.5 26.5t-0.5 24q-19 -22 -31.5 -35t-35 -32t-47 -28.5t-50.5 -9.5q-42 0 -63.5 33.5t-21.5 82.5q0 66 32 137.5t91 123t127 51.5
q19 0 34 -6t23 -12.5t14.5 -19.5t8 -18t4.5 -17l18 61h108zM291 370q-37 0 -72.5 -44.5t-55.5 -101t-20 -99.5q0 -59 37 -59q53 0 103 87q50 85 50 159q0 58 -42 58zM193 560q0 21 15.5 37t38.5 16q22 0 37.5 -16t15.5 -37q0 -22 -15.5 -37.5t-37.5 -15.5t-38 15.5t-16 37.5
zM382 560q0 22 15 37.5t38 15.5t38 -15.5t15 -37.5t-15.5 -37.5t-37.5 -15.5t-37.5 15.5t-15.5 37.5z" />
    <glyph glyph-name="aring" unicode="&#xe5;" horiz-adv-x="531" 
d="M487 402l-91 -298q-10 -32 -10 -39q0 -15 14 -15q31 0 68 67h47q-28 -59 -70.5 -95t-88.5 -36q-23 0 -39.5 8.5t-24 18.5t-11.5 27.5t-4.5 26.5t-0.5 24q-19 -22 -31.5 -35t-35 -32t-47 -28.5t-50.5 -9.5q-42 0 -63.5 33.5t-21.5 82.5q0 66 32 137.5t91 123t127 51.5
q19 0 34 -6t23 -12.5t14.5 -19.5t8 -18t4.5 -17l18 61h108zM291 370q-37 0 -72.5 -44.5t-55.5 -101t-20 -99.5q0 -59 37 -59q53 0 103 87q50 85 50 159q0 58 -42 58zM273 561q0 39 27.5 66.5t67.5 27.5q39 0 66.5 -27.5t27.5 -66.5t-27.5 -66.5t-66.5 -27.5t-67 27.5
t-28 66.5zM310 561q0 -24 16.5 -40t39.5 -16t39.5 16t16.5 40q0 23 -16.5 39.5t-39.5 16.5t-39.5 -16.5t-16.5 -39.5z" />
    <glyph glyph-name="ae" unicode="&#xe6;" horiz-adv-x="719" 
d="M591 122h54q-46 -62 -107.5 -99t-130.5 -37q-109 0 -131 107q-31 -37 -76 -72t-88 -35q-39 0 -61.5 32t-22.5 80q0 113 78 213.5t165 100.5q67 0 81 -72l18 64h91l-20 -63q74 71 148 71q51 0 81 -23t30 -53q0 -51 -58 -96.5t-126.5 -68t-116.5 -23.5q-4 -16 -4 -35
q0 -39 21 -54t44 -15q62 0 131 78zM287 369q-31 0 -65 -41.5t-56 -100.5t-22 -110q0 -55 33 -55q51 0 101 100q45 92 45 155q0 52 -36 52zM411 191q87 15 136.5 59t49.5 83q0 15 -10.5 27t-31.5 12q-39 0 -80 -50t-64 -131z" />
    <glyph glyph-name="ccedilla" unicode="&#xe7;" horiz-adv-x="458" 
d="M170 -13l-20 -39q33 -2 54 -22t21 -45q0 -16 -8 -33.5t-27.5 -37t-60 -31.5t-97.5 -12h-30l13 41q54 -2 89 14.5t35 44.5q0 39 -66 37l54 85q-47 4 -78 35.5t-31 86.5q0 109 87.5 206t213.5 97q58 0 92.5 -30.5t34.5 -71.5q0 -29 -17.5 -49.5t-45.5 -20.5q-21 0 -34 12
t-13 30q0 11 4 26q4 13 4 24q0 16 -10.5 25.5t-19 11.5t-15.5 2q-44 0 -83 -50t-58.5 -109.5t-19.5 -100.5q0 -69 65 -69q79 0 141 78h53q-33 -50 -95.5 -92.5t-131.5 -42.5z" />
    <glyph glyph-name="egrave" unicode="&#xe8;" horiz-adv-x="469" 
d="M344 123h52q-18 -27 -44.5 -54t-80.5 -55t-113 -28q-58 0 -100 31t-42 93q0 116 91.5 210t219.5 94q67 0 96.5 -23t29.5 -58q0 -14 -6 -30.5t-26 -40t-51.5 -44t-88 -39.5t-129.5 -30l-12 -1q-4 -20 -4 -36q0 -68 68 -68q74 0 140 79zM150 192q99 16 149.5 56t50.5 87
q0 16 -11 29.5t-31 13.5q-28 0 -53.5 -17.5t-42 -39.5t-31.5 -53.5t-20.5 -46t-10.5 -29.5zM315 643l51 -167h-35l-144 167h128z" />
    <glyph glyph-name="eacute" unicode="&#xe9;" horiz-adv-x="469" 
d="M344 123h52q-18 -27 -44.5 -54t-80.5 -55t-113 -28q-58 0 -100 31t-42 93q0 116 91.5 210t219.5 94q67 0 96.5 -23t29.5 -58q0 -14 -6 -30.5t-26 -40t-51.5 -44t-88 -39.5t-129.5 -30l-12 -1q-4 -20 -4 -36q0 -68 68 -68q74 0 140 79zM150 192q99 16 149.5 56t50.5 87
q0 16 -11 29.5t-31 13.5q-28 0 -53.5 -17.5t-42 -39.5t-31.5 -53.5t-20.5 -46t-10.5 -29.5zM292 643h128l-144 -167h-35z" />
    <glyph glyph-name="ecircumflex" unicode="&#xea;" horiz-adv-x="469" 
d="M344 123h52q-18 -27 -44.5 -54t-80.5 -55t-113 -28q-58 0 -100 31t-42 93q0 116 91.5 210t219.5 94q67 0 96.5 -23t29.5 -58q0 -14 -6 -30.5t-26 -40t-51.5 -44t-88 -39.5t-129.5 -30l-12 -1q-4 -20 -4 -36q0 -68 68 -68q74 0 140 79zM150 192q99 16 149.5 56t50.5 87
q0 16 -11 29.5t-31 13.5q-28 0 -53.5 -17.5t-42 -39.5t-31.5 -53.5t-20.5 -46t-10.5 -29.5zM330 586l-155 -106h-29l141 172h117l28 -172h-28z" />
    <glyph glyph-name="edieresis" unicode="&#xeb;" horiz-adv-x="469" 
d="M344 123h52q-18 -27 -44.5 -54t-80.5 -55t-113 -28q-58 0 -100 31t-42 93q0 116 91.5 210t219.5 94q67 0 96.5 -23t29.5 -58q0 -14 -6 -30.5t-26 -40t-51.5 -44t-88 -39.5t-129.5 -30l-12 -1q-4 -20 -4 -36q0 -68 68 -68q74 0 140 79zM150 192q99 16 149.5 56t50.5 87
q0 16 -11 29.5t-31 13.5q-28 0 -53.5 -17.5t-42 -39.5t-31.5 -53.5t-20.5 -46t-10.5 -29.5zM162 560q0 21 15.5 37t38.5 16q22 0 37.5 -16t15.5 -37q0 -22 -15.5 -37.5t-37.5 -15.5t-38 15.5t-16 37.5zM351 560q0 22 15 37.5t38 15.5t38 -15.5t15 -37.5t-15.5 -37.5
t-37.5 -15.5t-37.5 15.5t-15.5 37.5z" />
    <glyph glyph-name="igrave" unicode="&#xec;" horiz-adv-x="313" 
d="M56 279h-43q29 64 75 99.5t92 35.5q32 0 53.5 -16t21.5 -42q0 -28 -11 -56l-76 -205q-8 -21 -8 -34q0 -7 4.5 -12t10.5 -5q29 0 69 73h45q-8 -17 -18 -33.5t-30.5 -41.5t-50 -40.5t-62.5 -15.5q-42 0 -62 20t-20 48q0 30 18 79l63 172q9 23 9 32q0 5 -4.5 9.5t-9.5 4.5
q-17 0 -36 -25t-30 -47zM237 643l51 -167h-35l-144 167h128z" />
    <glyph glyph-name="iacute" unicode="&#xed;" horiz-adv-x="313" 
d="M56 279h-43q29 64 75 99.5t92 35.5q32 0 53.5 -16t21.5 -42q0 -28 -11 -56l-76 -205q-8 -21 -8 -34q0 -7 4.5 -12t10.5 -5q29 0 69 73h45q-8 -17 -18 -33.5t-30.5 -41.5t-50 -40.5t-62.5 -15.5q-42 0 -62 20t-20 48q0 30 18 79l63 172q9 23 9 32q0 5 -4.5 9.5t-9.5 4.5
q-17 0 -36 -25t-30 -47zM214 643h128l-144 -167h-35z" />
    <glyph glyph-name="icircumflex" unicode="&#xee;" horiz-adv-x="313" 
d="M56 279h-43q29 64 75 99.5t92 35.5q32 0 53.5 -16t21.5 -42q0 -28 -11 -56l-76 -205q-8 -21 -8 -34q0 -7 4.5 -12t10.5 -5q29 0 69 73h45q-8 -17 -18 -33.5t-30.5 -41.5t-50 -40.5t-62.5 -15.5q-42 0 -62 20t-20 48q0 30 18 79l63 172q9 23 9 32q0 5 -4.5 9.5t-9.5 4.5
q-17 0 -36 -25t-30 -47zM252 586l-155 -106h-29l141 172h117l28 -172h-28z" />
    <glyph glyph-name="idieresis" unicode="&#xef;" horiz-adv-x="313" 
d="M56 279h-43q29 64 75 99.5t92 35.5q32 0 53.5 -16t21.5 -42q0 -28 -11 -56l-76 -205q-8 -21 -8 -34q0 -7 4.5 -12t10.5 -5q29 0 69 73h45q-8 -17 -18 -33.5t-30.5 -41.5t-50 -40.5t-62.5 -15.5q-42 0 -62 20t-20 48q0 30 18 79l63 172q9 23 9 32q0 5 -4.5 9.5t-9.5 4.5
q-17 0 -36 -25t-30 -47zM84 560q0 21 15.5 37t38.5 16q22 0 37.5 -16t15.5 -37q0 -22 -15.5 -37.5t-37.5 -15.5t-38 15.5t-16 37.5zM273 560q0 22 15 37.5t38 15.5t38 -15.5t15 -37.5t-15.5 -37.5t-37.5 -15.5t-37.5 15.5t-15.5 37.5z" />
    <glyph glyph-name="eth" unicode="&#xf0;" horiz-adv-x="521" 
d="M361 527l-101 -41l-15 40l101 41q-20 46 -44 84l45 23q30 -37 57 -84l72 29l15 -40l-67 -27q62 -116 62 -241q0 -139 -75.5 -232t-196.5 -93q-93 0 -140.5 52.5t-47.5 120.5q0 96 76 175.5t181 79.5q56 0 98 -34q3 70 -20 147zM294 373q-37 0 -67.5 -29t-48 -70.5
t-27 -82t-9.5 -69.5q0 -42 19 -68.5t54 -26.5q38 0 69.5 28.5t49 70t27 81.5t9.5 69q0 45 -19.5 71t-56.5 26z" />
    <glyph glyph-name="ntilde" unicode="&#xf1;" horiz-adv-x="583" 
d="M27 0l88 286q12 44 12 50q0 18 -14 18q-20 0 -37.5 -25t-28.5 -51h-41q18 52 57 94t98 42q38 0 57 -20.5t19 -43.5q0 -31 -18 -87l-17 -50q28 43 49 71t51.5 62t64 51t67.5 17q38 0 55 -22t17 -47q0 -16 -12 -59l-51 -170q-9 -32 -9 -44q0 -14 12 -14q13 0 34 19t40 51
h49q-11 -19 -24.5 -38t-36 -43t-52.5 -39t-63 -15q-36 0 -57 18t-21 46q0 22 12 61l36 118q15 48 15 66q0 10 -6.5 19t-18.5 9q-40 0 -103.5 -97.5t-106.5 -232.5h-116zM214 495h-31q24 130 109 130q31 0 82 -25q56 -28 80 -28q20 0 33 10t17 19t8 24h30q-7 -58 -36.5 -94.5
t-71.5 -36.5q-31 0 -91 30q-48 24 -75 24q-14 0 -24.5 -5t-16.5 -14.5t-8 -16t-5 -17.5z" />
    <glyph glyph-name="ograve" unicode="&#xf2;" horiz-adv-x="531" 
d="M26 162q0 102 79 177t190 75q90 0 140.5 -50.5t50.5 -121.5q0 -102 -76 -179t-192 -77q-87 0 -139.5 49t-52.5 127zM294 373q-37 0 -67.5 -29t-48 -70.5t-27 -82t-9.5 -69.5q0 -42 19 -68.5t54 -26.5q38 0 69.5 28.5t49 70t27 81.5t9.5 69q0 45 -19.5 71t-56.5 26z
M346 643l51 -167h-35l-144 167h128z" />
    <glyph glyph-name="oacute" unicode="&#xf3;" horiz-adv-x="531" 
d="M26 162q0 102 79 177t190 75q90 0 140.5 -50.5t50.5 -121.5q0 -102 -76 -179t-192 -77q-87 0 -139.5 49t-52.5 127zM294 373q-37 0 -67.5 -29t-48 -70.5t-27 -82t-9.5 -69.5q0 -42 19 -68.5t54 -26.5q38 0 69.5 28.5t49 70t27 81.5t9.5 69q0 45 -19.5 71t-56.5 26z
M323 643h128l-144 -167h-35z" />
    <glyph glyph-name="ocircumflex" unicode="&#xf4;" horiz-adv-x="531" 
d="M26 162q0 102 79 177t190 75q90 0 140.5 -50.5t50.5 -121.5q0 -102 -76 -179t-192 -77q-87 0 -139.5 49t-52.5 127zM294 373q-37 0 -67.5 -29t-48 -70.5t-27 -82t-9.5 -69.5q0 -42 19 -68.5t54 -26.5q38 0 69.5 28.5t49 70t27 81.5t9.5 69q0 45 -19.5 71t-56.5 26z
M361 586l-155 -106h-29l141 172h117l28 -172h-28z" />
    <glyph glyph-name="otilde" unicode="&#xf5;" horiz-adv-x="531" 
d="M26 162q0 102 79 177t190 75q90 0 140.5 -50.5t50.5 -121.5q0 -102 -76 -179t-192 -77q-87 0 -139.5 49t-52.5 127zM294 373q-37 0 -67.5 -29t-48 -70.5t-27 -82t-9.5 -69.5q0 -42 19 -68.5t54 -26.5q38 0 69.5 28.5t49 70t27 81.5t9.5 69q0 45 -19.5 71t-56.5 26z
M188 495h-31q24 130 109 130q31 0 82 -25q56 -28 80 -28q20 0 33 10t17 19t8 24h30q-7 -58 -36.5 -94.5t-71.5 -36.5q-31 0 -91 30q-48 24 -75 24q-14 0 -24.5 -5t-16.5 -14.5t-8 -16t-5 -17.5z" />
    <glyph glyph-name="odieresis" unicode="&#xf6;" horiz-adv-x="531" 
d="M26 162q0 102 79 177t190 75q90 0 140.5 -50.5t50.5 -121.5q0 -102 -76 -179t-192 -77q-87 0 -139.5 49t-52.5 127zM294 373q-37 0 -67.5 -29t-48 -70.5t-27 -82t-9.5 -69.5q0 -42 19 -68.5t54 -26.5q38 0 69.5 28.5t49 70t27 81.5t9.5 69q0 45 -19.5 71t-56.5 26z
M193 560q0 21 15.5 37t38.5 16q22 0 37.5 -16t15.5 -37q0 -22 -15.5 -37.5t-37.5 -15.5t-38 15.5t-16 37.5zM382 560q0 22 15 37.5t38 15.5t38 -15.5t15 -37.5t-15.5 -37.5t-37.5 -15.5t-37.5 15.5t-15.5 37.5z" />
    <glyph glyph-name="divide" unicode="&#xf7;" horiz-adv-x="667" 
d="M82 368h538v-90h-538v90zM352 177q23 0 39 -16.5t16 -39.5t-16 -39t-39 -16t-39.5 16t-16.5 39t16.5 39.5t39.5 16.5zM352 580q23 0 39 -16.5t16 -39.5t-16 -39t-39 -16t-39.5 16t-16.5 39t16.5 39.5t39.5 16.5z" />
    <glyph glyph-name="oslash" unicode="&#xf8;" horiz-adv-x="531" 
d="M391 394l35 41l35 -29l-32 -37q57 -47 57 -126q0 -102 -75.5 -179.5t-193.5 -77.5q-51 0 -95 20l-39 -47l-36 29l37 43q-58 46 -58 130q0 101 78 177t192 76q50 0 95 -20zM143 101l208 245q-22 27 -56 27q-49 0 -87 -50.5t-53.5 -112.5t-11.5 -109zM369 297l-207 -244
q20 -26 53 -26q51 0 90 52.5t54 114t10 103.5z" />
    <glyph glyph-name="ugrave" unicode="&#xf9;" horiz-adv-x="583" 
d="M38 276h-45q82 133 176 133q17 0 31.5 -4t28.5 -21t14 -45q0 -23 -6 -43l-40 -130q-14 -45 -14 -65q0 -11 6.5 -20.5t18.5 -9.5q37 0 94.5 83.5t113.5 245.5h116l-91 -298q-9 -31 -9 -38t4.5 -12.5t10.5 -5.5q28 0 64 77h46q-57 -137 -160 -137q-40 0 -56.5 21.5
t-16.5 49.5q0 20 17 77l16 55q-23 -38 -41.5 -64t-50 -62.5t-67 -56.5t-72.5 -20q-35 0 -53.5 20t-18.5 47q0 26 14 70l49 161q10 30 10 42q0 18 -16 18q-28 0 -73 -68zM312 643l51 -167h-35l-144 167h128z" />
    <glyph glyph-name="uacute" unicode="&#xfa;" horiz-adv-x="583" 
d="M38 276h-45q82 133 176 133q17 0 31.5 -4t28.5 -21t14 -45q0 -23 -6 -43l-40 -130q-14 -45 -14 -65q0 -11 6.5 -20.5t18.5 -9.5q37 0 94.5 83.5t113.5 245.5h116l-91 -298q-9 -31 -9 -38t4.5 -12.5t10.5 -5.5q28 0 64 77h46q-57 -137 -160 -137q-40 0 -56.5 21.5
t-16.5 49.5q0 20 17 77l16 55q-23 -38 -41.5 -64t-50 -62.5t-67 -56.5t-72.5 -20q-35 0 -53.5 20t-18.5 47q0 26 14 70l49 161q10 30 10 42q0 18 -16 18q-28 0 -73 -68zM349 643h128l-144 -167h-35z" />
    <glyph glyph-name="ucircumflex" unicode="&#xfb;" horiz-adv-x="583" 
d="M38 276h-45q82 133 176 133q17 0 31.5 -4t28.5 -21t14 -45q0 -23 -6 -43l-40 -130q-14 -45 -14 -65q0 -11 6.5 -20.5t18.5 -9.5q37 0 94.5 83.5t113.5 245.5h116l-91 -298q-9 -31 -9 -38t4.5 -12.5t10.5 -5.5q28 0 64 77h46q-57 -137 -160 -137q-40 0 -56.5 21.5
t-16.5 49.5q0 20 17 77l16 55q-23 -38 -41.5 -64t-50 -62.5t-67 -56.5t-72.5 -20q-35 0 -53.5 20t-18.5 47q0 26 14 70l49 161q10 30 10 42q0 18 -16 18q-28 0 -73 -68zM387 586l-155 -106h-29l141 172h117l28 -172h-28z" />
    <glyph glyph-name="udieresis" unicode="&#xfc;" horiz-adv-x="583" 
d="M38 276h-45q82 133 176 133q17 0 31.5 -4t28.5 -21t14 -45q0 -23 -6 -43l-40 -130q-14 -45 -14 -65q0 -11 6.5 -20.5t18.5 -9.5q37 0 94.5 83.5t113.5 245.5h116l-91 -298q-9 -31 -9 -38t4.5 -12.5t10.5 -5.5q28 0 64 77h46q-57 -137 -160 -137q-40 0 -56.5 21.5
t-16.5 49.5q0 20 17 77l16 55q-23 -38 -41.5 -64t-50 -62.5t-67 -56.5t-72.5 -20q-35 0 -53.5 20t-18.5 47q0 26 14 70l49 161q10 30 10 42q0 18 -16 18q-28 0 -73 -68zM219 560q0 21 15.5 37t38.5 16q22 0 37.5 -16t15.5 -37q0 -22 -15.5 -37.5t-37.5 -15.5t-38 15.5
t-16 37.5zM408 560q0 22 15 37.5t38 15.5t38 -15.5t15 -37.5t-15.5 -37.5t-37.5 -15.5t-37.5 15.5t-15.5 37.5z" />
    <glyph glyph-name="yacute" unicode="&#xfd;" horiz-adv-x="531" 
d="M56 254h-40q6 53 23 88.5t39 49t36.5 18t28.5 4.5q128 0 128 -270q0 -91 -10 -150q89 104 94 112q51 76 51 127q0 23 -17 66t-17 62q0 24 12.5 38.5t29.5 14.5q26 0 45.5 -24.5t19.5 -67.5q0 -84 -60 -187t-145.5 -185.5t-184.5 -138.5t-172 -56q-33 0 -56.5 13.5
t-23.5 40.5q0 21 17 34.5t39 13.5t61 -14q42 -14 61 -14q62 0 102 69q40 70 40 198q0 127 -19 203q-11 41 -35 41q-38 0 -47 -86zM323 643h128l-144 -167h-35z" />
    <glyph glyph-name="thorn" unicode="&#xfe;" horiz-adv-x="573" 
d="M138 617l12 43q125 3 167 14h25l-104 -346q24 26 43 41.5t51.5 30t67.5 14.5q40 0 68.5 -16t42 -40.5t19 -46.5t5.5 -42q0 -107 -76.5 -195t-183.5 -88q-72 0 -114 52l-51 -168q-8 -24 -8 -32q0 -16 16.5 -22t54.5 -6h26l-15 -43h-309l13 43h19q47 0 61.5 11.5t29.5 62.5
l196 662q12 38 12 44q0 13 -10 19t-21.5 7t-36.5 1zM354 359q-66 0 -120 -106q-46 -90 -46 -154q0 -32 19 -54.5t51 -22.5q40 0 72 32t49.5 77.5t26.5 85.5t9 64q0 30 -16 54t-45 24z" />
    <glyph glyph-name="ydieresis" unicode="&#xff;" horiz-adv-x="531" 
d="M56 254h-40q6 53 23 88.5t39 49t36.5 18t28.5 4.5q128 0 128 -270q0 -91 -10 -150q89 104 94 112q51 76 51 127q0 23 -17 66t-17 62q0 24 12.5 38.5t29.5 14.5q26 0 45.5 -24.5t19.5 -67.5q0 -84 -60 -187t-145.5 -185.5t-184.5 -138.5t-172 -56q-33 0 -56.5 13.5
t-23.5 40.5q0 21 17 34.5t39 13.5t61 -14q42 -14 61 -14q62 0 102 69q40 70 40 198q0 127 -19 203q-11 41 -35 41q-38 0 -47 -86zM193 560q0 21 15.5 37t38.5 16q22 0 37.5 -16t15.5 -37q0 -22 -15.5 -37.5t-37.5 -15.5t-38 15.5t-16 37.5zM382 560q0 22 15 37.5t38 15.5
t38 -15.5t15 -37.5t-15.5 -37.5t-37.5 -15.5t-37.5 15.5t-15.5 37.5z" />
    <glyph glyph-name="dotlessi" unicode="&#x131;" horiz-adv-x="313" 
d="M56 279h-43q29 64 75 99.5t92 35.5q32 0 53.5 -16t21.5 -42q0 -28 -11 -56l-76 -205q-8 -21 -8 -34q0 -7 4.5 -12t10.5 -5q29 0 69 73h45q-8 -17 -18 -33.5t-30.5 -41.5t-50 -40.5t-62.5 -15.5q-42 0 -62 20t-20 48q0 30 18 79l63 172q9 23 9 32q0 5 -4.5 9.5t-9.5 4.5
q-17 0 -36 -25t-30 -47z" />
    <glyph glyph-name="Lslash" unicode="&#x141;" horiz-adv-x="594" 
d="M289 305l-46 -150q-13 -41 -13 -63q0 -44 92 -44q43 0 72.5 4t62 16.5t58.5 40.5t48 71h48l-55 -180h-556l14 45q22 0 36.5 5t23.5 17.5t13 21.5t10 30l27 86l-103 -65l24 80l103 64l79 258q3 16 4 32.5t-13.5 29.5t-42.5 13h-15l15 45h301l-14 -45q-48 0 -66.5 -12
t-33.5 -61l-48 -158l156 97l-26 -84z" />
    <glyph glyph-name="lslash" unicode="&#x142;" horiz-adv-x="313" 
d="M229 347l-71 -233q-13 -40 -13 -52q0 -18 14 -18t35.5 22t35.5 53h46q-70 -133 -164 -133q-38 0 -59.5 20t-21.5 49q0 24 15 74l36 117l-101 -74l24 81l100 68l66 216q17 53 8.5 66.5t-62.5 13.5l12 45h30h30t26.5 0.5t28.5 1.5t25 3.5t27 6.5h33l-78 -254l114 86
l-24 -81z" />
    <glyph glyph-name="OE" unicode="&#x152;" horiz-adv-x="1021" 
d="M662 319l-55 -179q-10 -31 -10 -46q0 -46 104 -46q63 0 106.5 17.5t67 43.5t46.5 70h45l-50 -179h-537q-37 0 -60.5 1.5t-65 14t-75.5 35.5q-100 70 -100 208q0 68 30 138t85 129.5t143 97.5t193 38h492l4 -161h-44q-26 73 -52.5 93t-87.5 20h-90l-73 -247h32
q27 0 38 0.5t27.5 4.5t25 13t18 25.5t19.5 42.5q1 1 2 5l2 4h47l-79 -260h-48l6 22q8 20 8 43q0 19 -15 35.5t-48 16.5h-51zM483 172l93 306q15 47 15 67q0 29 -23 50.5t-73 21.5q-53 0 -100 -32t-78 -80t-54 -105t-33.5 -106t-10.5 -83q0 -78 39.5 -122t96.5 -44
q26 0 47.5 10.5t33.5 22t23.5 34.5t14 31t9.5 29z" />
    <glyph glyph-name="oe" unicode="&#x153;" horiz-adv-x="750" 
d="M628 123h54q-107 -137 -223 -137q-27 0 -50 7.5t-33.5 15t-26.5 21.5q-76 -44 -141 -44q-73 0 -126.5 48t-53.5 127q0 104 80 177.5t177 73.5q45 0 85.5 -20t66.5 -56q94 76 187 76q45 0 78.5 -21.5t33.5 -57.5q0 -45 -47.5 -85.5t-112 -65t-132.5 -35.5q-3 -12 -3 -28
t3.5 -31t17 -29.5t35.5 -14.5q64 0 131 79zM287 375q-33 0 -62 -29t-46 -71t-27 -85.5t-10 -77.5q0 -33 15 -58t51 -25q34 0 63 28.5t46 70.5t26.5 84.5t9.5 75.5q0 39 -16.5 63t-49.5 24zM453 191q50 11 86.5 28.5t54 33.5t27.5 35t11.5 28t1.5 18q0 15 -9 27.5t-25 12.5
q-41 0 -83 -55t-64 -128z" />
    <glyph glyph-name="Scaron" unicode="&#x160;" horiz-adv-x="552" 
d="M45 5l31 231h46q2 -55 18.5 -96.5t42 -62.5t51.5 -31t53 -10q43 0 71.5 29t28.5 70q0 38 -20.5 65t-88.5 91q-63 60 -87.5 100.5t-24.5 86.5q0 80 61 138t142 58q79 0 145 -63q22 29 32 51h45l-30 -198h-47q-24 162 -144 162q-44 0 -73 -24t-29 -65q0 -38 26 -71.5
t80 -79.5q62 -53 93.5 -97t31.5 -103q0 -78 -59.5 -138t-155.5 -60q-89 0 -162 72q-12 -12 -31 -55h-46zM403 794l155 106h29l-141 -172h-117l-28 172h28z" />
    <glyph glyph-name="scaron" unicode="&#x161;" horiz-adv-x="458" 
d="M106 297q0 16 7 33.5t25 37.5t58 33t96 13q84 0 117 -25.5t33 -57.5q0 -20 -13 -35t-37 -15q-17 0 -28 8.5t-16 19t-13 34.5q-3 10 -6.5 16t-16 12.5t-31.5 6.5q-27 0 -46.5 -13t-19.5 -35q0 -14 10 -29.5t21 -26t35 -30.5q34 -28 47.5 -40.5t28.5 -38t15 -53.5
q0 -52 -45.5 -89t-144.5 -37q-51 0 -88.5 12t-54.5 30.5t-24 34t-7 27.5q0 22 15 38.5t40 16.5q49 0 57 -64q2 -13 4 -20.5t8 -18t19 -15.5t34 -5q33 0 54 16.5t21 42.5q0 27 -37 59q-63 54 -90 87t-27 70zM306 546l155 106h29l-141 -172h-117l-28 172h28z" />
    <glyph glyph-name="Ydieresis" unicode="&#x178;" horiz-adv-x="635" 
d="M278 288l-75 267q-10 37 -25.5 49.5t-61.5 12.5l13 45h292l-14 -45q-16 0 -25 -1t-22.5 -4.5t-20.5 -14t-7 -26.5q0 -11 7 -37l53 -194l113 159q37 52 37 74q0 15 -6.5 25t-19 13.5t-21 4.5t-21.5 1l13 45h244l-11 -45q-42 0 -71.5 -21.5t-75.5 -84.5l-161 -223l-47 -153
q-9 -31 -9 -43q0 -17 8 -27t24 -14t27 -5t31 -1l-14 -45h-326l14 45q55 0 73 13t33 61zM305 808q0 21 15.5 37t38.5 16q22 0 37.5 -16t15.5 -37q0 -22 -15.5 -37.5t-37.5 -15.5t-38 15.5t-16 37.5zM494 808q0 22 15 37.5t38 15.5t38 -15.5t15 -37.5t-15.5 -37.5t-37.5 -15.5
t-37.5 15.5t-15.5 37.5z" />
    <glyph glyph-name="Zcaron" unicode="&#x17d;" horiz-adv-x="615" 
d="M167 662h507v-38l-489 -576h150q156 0 222 149h48l-61 -197h-526v47l484 567h-150q-23 0 -38.5 -2.5t-45 -13t-57.5 -39t-51 -74.5h-47zM434 794l155 106h29l-141 -172h-117l-28 172h28z" />
    <glyph glyph-name="zcaron" unicode="&#x17e;" horiz-adv-x="490" 
d="M122 287h-42q54 127 150 127q34 0 82 -28q5 -3 13 -7.5t11 -6.5t8 -4.5t8 -3.5t7.5 -1.5t8.5 -0.5q27 0 45 31q13 21 27 21q13 0 19.5 -8t6.5 -16q0 -26 -66.5 -93.5t-166.5 -136.5q-74 -51 -103 -75q54 16 95 16q34 0 75 -11q22 -6 33 -6q35 0 59 39h44
q-19 -50 -61 -93.5t-104 -43.5q-39 0 -80 26q-50 32 -76 32q-29 0 -46 -28q-17 -30 -34 -30q-10 0 -17 7.5t-7 16.5q0 15 13 33.5t47 47t57 46t78 57.5q109 79 158 126q-30 -14 -77 -14q-24 0 -69 11q-31 7 -41 7q-16 0 -27.5 -6.5t-16 -12.5t-11.5 -18zM322 546l155 106h29
l-141 -172h-117l-28 172h28z" />
    <glyph glyph-name="florin" unicode="&#x192;" horiz-adv-x="479" 
d="M326 360l-49 -244q-29 -143 -49 -197t-49 -90q-54 -68 -124 -68q-35 0 -55.5 17t-20.5 40q0 17 13.5 32.5t36.5 15.5q16 0 30.5 -9t14.5 -29q0 -7 -3 -15.5t-3 -10.5q0 -11 14 -11q15 0 26 15.5t11 47.5q0 15 -2 47.5t-2 40.5q0 55 20 156l53 262h-69l12 59
q49 0 73.5 21.5t49.5 89.5q25 67 60.5 96t85.5 29q32 0 55.5 -15.5t23.5 -47.5q0 -23 -14 -39.5t-38 -16.5q-21 0 -32 14t-11 26q0 10 7.5 27t7.5 18q0 11 -13 11q-17 0 -31.5 -17t-14.5 -51q0 -16 2 -46t2 -39q0 -26 -6 -60h75l-12 -59h-75z" />
    <glyph glyph-name="circumflex" unicode="&#x2c6;" horiz-adv-x="333" 
d="M262 586l-155 -106h-29l141 172h117l28 -172h-28z" />
    <glyph glyph-name="caron" unicode="&#x2c7;" horiz-adv-x="333" 
d="M243 546l155 106h29l-141 -172h-117l-28 172h28z" />
    <glyph glyph-name="uni02C9" unicode="&#x2c9;" horiz-adv-x="333" 
d="M30 529v67h273v-67h-273z" />
    <glyph glyph-name="breve" unicode="&#x2d8;" horiz-adv-x="333" 
d="M119 637h33q23 -78 86 -78q27 0 54.5 19t42.5 59h32q-9 -46 -27 -79.5t-39 -49.5t-38.5 -22.5t-33.5 -6.5q-42 0 -79 38.5t-31 119.5z" />
    <glyph glyph-name="dotaccent" unicode="&#x2d9;" horiz-adv-x="333" 
d="M192 560q0 21 15.5 37t37.5 16q23 0 38 -15.5t15 -37.5t-15.5 -37.5t-37.5 -15.5q-21 0 -37 15.5t-16 37.5z" />
    <glyph glyph-name="ring" unicode="&#x2da;" horiz-adv-x="333" 
d="M174 561q0 39 28 66.5t67 27.5t66.5 -27.5t27.5 -66.5t-27.5 -66.5t-66.5 -27.5t-67 27.5t-28 66.5zM211 561q0 -24 16.5 -40t39.5 -16t39.5 16t16.5 40q0 23 -16.5 39.5t-39.5 16.5t-39.5 -16.5t-16.5 -39.5z" />
    <glyph glyph-name="ogonek" unicode="&#x2db;" horiz-adv-x="333" 
d="M157 8h40q-21 -16 -30 -24t-16.5 -21.5t-7.5 -30.5q0 -5 0.5 -12t6.5 -24t16.5 -30.5t33.5 -26.5t54 -18l12 -17q-38 -21 -76 -21q-58 0 -96 37t-38 81q0 80 101 107z" />
    <glyph glyph-name="tilde" unicode="&#x2dc;" horiz-adv-x="333" 
d="M89 495h-31q24 130 109 130q31 0 82 -25q56 -28 80 -28q20 0 33 10t17 19t8 24h30q-7 -58 -36.5 -94.5t-71.5 -36.5q-31 0 -91 30q-48 24 -75 24q-14 0 -24.5 -5t-16.5 -14.5t-8 -16t-5 -17.5z" />
    <glyph glyph-name="hungarumlaut" unicode="&#x2dd;" horiz-adv-x="333" 
d="M186 643h128l-144 -167h-35zM349 643h128l-144 -167h-34z" />
    <glyph glyph-name="uni03A9" unicode="&#x3a9;" horiz-adv-x="626" 
d="M586 0h-235v153q43 30 64.5 103t21.5 150q0 131 -33 198.5t-92 67.5q-64 0 -96.5 -73t-32.5 -192q0 -92 25 -165t69 -94v-148h-237v171h31q0 -16 0.5 -25.5t4 -23.5t9.5 -21.5t18.5 -13t30.5 -5.5h92v33q-75 32 -127.5 105t-52.5 185q0 135 71.5 221t194.5 86
q120 0 194 -91t74 -211q0 -95 -48.5 -177.5t-129.5 -113.5v-37h89q18 0 30.5 5.5t18.5 13t9.5 21.5t4 23.5t0.5 25.5h32v-171z" />
    <glyph glyph-name="uni03BC" unicode="&#x3bc;" horiz-adv-x="521" 
d="M58 400h126v-254q0 -26 1 -40.5t5 -29.5t12.5 -21.5t23.5 -6.5q45 0 79 56v296h126v-259q0 -25 0.5 -36t3.5 -25.5t9.5 -20t18.5 -5.5q29 0 35 67h20q-1 -42 -15 -72t-34.5 -42.5t-37 -17.5t-32.5 -5q-70 0 -93 73q-65 -73 -135 -73q-45 0 -69 26q0 -46 10 -81
q17 -56 17 -75q0 -62 -55 -62q-17 0 -28.5 7t-15.5 18.5t-5 17.5t-1 12q0 19 18 90q16 64 16 180v283z" />
    <glyph glyph-name="pi" unicode="&#x3c0;" horiz-adv-x="360" 
d="M349 109q-21 -121 -65 -121q-29 0 -43 32q-16 33 -16 124v243h-70v-169q0 -146 -26 -197q-17 -33 -45 -33q-13 0 -23 11t-10 30q0 27 27 42q20 11 25 48.5t5 120.5v147h-12q-17 0 -26.5 -13.5t-14.5 -47.5l-29 8q1 69 24.5 108.5t57.5 39.5h225v-95h-60v-193
q0 -76 6 -100q6 -29 19 -29q10 0 15.5 14t13.5 46z" />
    <glyph glyph-name="figuredash" unicode="&#x2012;" horiz-adv-x="500" 
d="M-6 295h512v-90h-512v90z" />
    <glyph glyph-name="endash" unicode="&#x2013;" horiz-adv-x="500" 
d="M-6 281h512v-64h-512v64z" />
    <glyph glyph-name="emdash" unicode="&#x2014;" horiz-adv-x="1000" 
d="M-6 281h1012v-64h-1012v64z" />
    <glyph glyph-name="quoteleft" unicode="&#x2018;" horiz-adv-x="271" 
d="M367 674l-14 -45q-53 -10 -88.5 -35.5t-46.5 -45t-11 -32.5q0 -14 19 -14q22 0 41.5 -17.5t19.5 -46.5q0 -28 -18.5 -46t-44.5 -18q-36 0 -56 29.5t-20 68.5q0 66 57.5 129t161.5 73z" />
    <glyph glyph-name="quoteright" unicode="&#x2019;" horiz-adv-x="271" 
d="M103 374l14 45q53 10 88.5 35.5t46.5 45t11 32.5q0 14 -19 14q-22 0 -41.5 17.5t-19.5 46.5q0 28 18.5 46t44.5 18q36 0 56 -29.5t20 -68.5q0 -66 -57.5 -129t-161.5 -73z" />
    <glyph glyph-name="quotesinglbase" unicode="&#x201a;" horiz-adv-x="271" 
d="M-44 -187l14 45q53 10 88.5 35.5t46.5 45t11 32.5q0 14 -19 14q-22 0 -41.5 17.5t-19.5 46.5q0 28 18.5 46t44.5 18q36 0 56 -29.5t20 -68.5q0 -66 -57.5 -129t-161.5 -73z" />
    <glyph glyph-name="quotedblleft" unicode="&#x201c;" horiz-adv-x="521" 
d="M618 674l-14 -45q-53 -10 -88.5 -35.5t-46.5 -45t-11 -32.5q0 -14 19 -14q22 0 41.5 -17.5t19.5 -46.5q0 -28 -18.5 -46t-44.5 -18q-36 0 -56 29.5t-20 68.5q0 66 57.5 129t161.5 73zM363 674l-14 -45q-53 -10 -88.5 -35.5t-46.5 -45t-11 -32.5q0 -14 19 -14
q22 0 41.5 -17.5t19.5 -46.5q0 -28 -18.5 -46t-44.5 -18q-36 0 -56 29.5t-20 68.5q0 66 57.5 129t161.5 73z" />
    <glyph glyph-name="quotedblright" unicode="&#x201d;" horiz-adv-x="521" 
d="M104 374l14 45q53 10 88.5 35.5t46.5 45t11 32.5q0 14 -19 14q-22 0 -41.5 17.5t-19.5 46.5q0 28 18.5 46t44.5 18q36 0 56 -29.5t20 -68.5q0 -66 -57.5 -129t-161.5 -73zM359 374l14 45q53 10 88.5 35.5t46.5 45t11 32.5q0 14 -19 14q-22 0 -41.5 17.5t-19.5 46.5
q0 28 18.5 46t44.5 18q36 0 56 -29.5t20 -68.5q0 -66 -57.5 -129t-161.5 -73z" />
    <glyph glyph-name="quotedblbase" unicode="&#x201e;" horiz-adv-x="521" 
d="M-46 -187l14 45q53 10 88.5 35.5t46.5 45t11 32.5q0 14 -19 14q-22 0 -41.5 17.5t-19.5 46.5q0 28 18.5 46t44.5 18q36 0 56 -29.5t20 -68.5q0 -66 -57.5 -129t-161.5 -73zM209 -187l14 45q53 10 88.5 35.5t46.5 45t11 32.5q0 14 -19 14q-22 0 -41.5 17.5t-19.5 46.5
q0 28 18.5 46t44.5 18q36 0 56 -29.5t20 -68.5q0 -66 -57.5 -129t-161.5 -73z" />
    <glyph glyph-name="dagger" unicode="&#x2020;" horiz-adv-x="531" 
d="M134 -245h-45l5 16q62 198 109 444q13 64 28 100t49 63q-30 -1 -97 -21q-40 -12 -63 -12q-26 0 -40 15t-14 34q0 25 19 40.5t42 15.5q27 0 50 -9q80 -22 113 -20q-2 97 6 146q6 35 17.5 58.5t25 33t22.5 12.5t16 3q20 0 33 -14t13 -38q0 -25 -12 -56t-24.5 -53.5
t-44.5 -76.5l-9 -15q70 11 90 16q48 13 68 13q21 0 36 -12t15 -36q0 -26 -16.5 -41.5t-43.5 -15.5q-23 0 -59 13q-60 21 -103 20q2 -22 2 -43q0 -39 -9 -72.5t-38 -99.5q-61 -141 -124 -351z" />
    <glyph glyph-name="daggerdbl" unicode="&#x2021;" horiz-adv-x="510" 
d="M333 419q-3 -19 -5 -41q-3 -44 -8.5 -65t-24.5 -48q-23 -34 -28.5 -45t-5.5 -29q0 -78 -10 -104q-3 -8 -21.5 -40.5t-19.5 -34.5q6 0 51 14q39 13 63 13q26 0 39.5 -14t13.5 -35q0 -24 -14.5 -37t-33.5 -13q-13 0 -65 16q-41 13 -67 13q-6 -29 -6 -85q0 -129 -69 -129
q-24 0 -37.5 15.5t-13.5 39.5q0 35 41 95q28 40 39 64q-20 -5 -69 -20q-28 -9 -43 -9q-29 0 -42 16t-13 34q0 23 14.5 36.5t32.5 13.5q16 0 65 -16q33 -11 68 -12q4 16 5 40q2 45 8 64.5t26 48.5q21 30 27 43.5t6 30.5q0 55 1.5 69t9.5 36q2 7 20 39t20 36q-24 -4 -48 -14
q-34 -14 -66 -14q-27 0 -40 15t-13 34q0 25 15 37.5t32 12.5t66 -16q41 -13 68 -13q6 31 6 85q0 128 69 128q23 0 36.5 -15.5t13.5 -38.5q0 -38 -41 -95q-26 -36 -39 -64q35 9 69 21q22 8 46 8t38 -14t14 -35q0 -27 -16.5 -39t-32.5 -12q-11 0 -62 16q-36 12 -69 13z" />
    <glyph glyph-name="bullet" unicode="&#x2022;" horiz-adv-x="333" 
d="M184 446q55 0 94 -38.5t39 -93.5t-39 -94t-94 -39t-93.5 39t-38.5 94t39 93.5t93 38.5z" />
    <glyph glyph-name="onedotenleader" unicode="&#x2024;" horiz-adv-x="500" 
d="M249 113q26 0 45 -18.5t19 -44.5t-19 -45t-45 -19t-44.5 19t-18.5 45t18.5 44.5t44.5 18.5z" />
    <glyph glyph-name="twodotenleader" unicode="&#x2025;" horiz-adv-x="500" 
d="M374 113q26 0 45 -18.5t19 -44.5t-19 -45t-45 -19t-44.5 19t-18.5 45t18.5 44.5t44.5 18.5zM125 113q26 0 45 -18.5t19 -44.5t-19 -45t-45 -19t-44.5 19t-18.5 45t18.5 44.5t44.5 18.5z" />
    <glyph glyph-name="ellipsis" unicode="&#x2026;" horiz-adv-x="1000" 
d="M109 60q0 32 22 54.5t54 22.5t54.5 -22.5t22.5 -54.5t-22.5 -54t-54.5 -22q-31 0 -53.5 22t-22.5 54zM775 60q0 32 22.5 54.5t54.5 22.5t54 -22.5t22 -54.5t-22.5 -54t-53.5 -22q-32 0 -54.5 22t-22.5 54zM442 60q0 32 22 54.5t54 22.5t54.5 -22.5t22.5 -54.5t-22.5 -54
t-54.5 -22q-31 0 -53.5 22t-22.5 54z" />
    <glyph glyph-name="perthousand" unicode="&#x2030;" horiz-adv-x="990" 
d="M908 311q-28 0 -49 -37q-18 -33 -48.5 -115.5t-30.5 -109.5q0 -13 7 -21t18 -8q10 0 19 4.5t16.5 14.5t11 16t9.5 19.5t6 14.5q9 20 35.5 99.5t26.5 97.5q0 25 -21 25zM83 0l542 664h57l-546 -664h-53zM905 339q29 0 48.5 -10t27.5 -25.5t10.5 -27t2.5 -22.5
q0 -28 -10 -68t-30.5 -85.5t-60 -77t-89.5 -31.5q-29 0 -49 10t-27.5 26.5t-10 27.5t-2.5 23q0 16 5 44t18.5 66.5t34 71t55 55.5t77.5 23zM588 339q29 0 48.5 -10t27.5 -25.5t10.5 -27t2.5 -22.5q0 -28 -10 -68t-30.5 -85.5t-60 -77t-89.5 -31.5q-29 0 -49 10t-27.5 26.5
t-10 27.5t-2.5 23q0 16 5 44t18.5 66.5t34 71t55 55.5t77.5 23zM591 311q-28 0 -49 -37q-18 -33 -48.5 -115.5t-30.5 -109.5q0 -13 7 -21t18 -8q10 0 19 4.5t16.5 14.5t11 16t9.5 19.5t6 14.5q9 20 35.5 99.5t26.5 97.5q0 25 -21 25zM272 657q29 0 48.5 -10t27.5 -25.5
t10.5 -27t2.5 -22.5q0 -28 -10 -68t-30.5 -85.5t-60 -77t-89.5 -31.5q-29 0 -49 10t-27.5 26.5t-10 27.5t-2.5 23q0 16 5 44t18.5 66.5t34 71t55 55.5t77.5 23zM275 629q-28 0 -49 -37q-18 -33 -48.5 -115.5t-30.5 -109.5q0 -13 7 -21t18 -8q10 0 19 4.5t16.5 14.5t11 16
t9.5 19.5t6 14.5q9 20 35.5 99.5t26.5 97.5q0 25 -21 25z" />
    <glyph glyph-name="guilsinglleft" unicode="&#x2039;" horiz-adv-x="313" 
d="M174 205l27 -205h-42l-103 216l199 215h49z" />
    <glyph glyph-name="guilsinglright" unicode="&#x203a;" horiz-adv-x="313" 
d="M134 227l-27 204h42l103 -216l-200 -215h-48z" />
    <glyph glyph-name="fraction" unicode="&#x2044;" horiz-adv-x="188" 
d="M-155 0l543 664h57l-546 -664h-54z" />
    <glyph glyph-name="zero.superior" unicode="&#x2070;" 
d="M260 657q29 0 48.5 -10t27.5 -25.5t10.5 -27t2.5 -22.5q0 -28 -10 -68t-30 -85.5t-59.5 -77t-89.5 -31.5q-29 0 -49 10t-28 26t-10.5 28t-2.5 23q0 22 9.5 60t29 85.5t59.5 81t92 33.5zM261 629q-28 0 -49 -37q-23 -40 -50 -122t-27 -103q0 -29 22 -29q16 0 31 14t33 55
q8 17 35.5 98.5t27.5 98.5q0 25 -23 25z" />
    <glyph glyph-name="four.superior" unicode="&#x2074;" 
d="M59 415l6 35l216 207h64l-74 -204q19 0 24.5 2.5t12.5 17.5h37l-19 -58h-68l-10 -27q-9 -24 -9 -30q0 -12 48 -12l-9 -28h-184l10 28h17q22 0 28.5 5.5t16.5 33.5l11 30h-118zM113 453h78l40 110l-2 2z" />
    <glyph glyph-name="five.superior" unicode="&#x2075;" 
d="M182 651h184l-9 -20q-10 -23 -21.5 -28.5t-35.5 -5.5h-100l-21 -54q22 10 41 10q35 0 63.5 -25.5t28.5 -70.5q0 -63 -53 -105t-119 -42q-39 0 -66 15t-27 34q0 13 10.5 20.5t24.5 7.5q22 0 39 -26q11 -20 20 -22q3 -1 7 -1q29 0 52.5 35t33 70t9.5 52q0 30 -30 30
t-59 -42h-37z" />
    <glyph glyph-name="six.superior" unicode="&#x2076;" 
d="M208 541q20 6 33 6q39 0 62 -23t23 -58q0 -60 -45 -108t-116 -48q-39 0 -63 23t-24 59q0 14 6 41.5t22 67t40 73.5t65.5 58.5t92.5 24.5q19 0 33 -3.5t21.5 -8.5t11.5 -11.5t5 -11t1 -7.5q0 -9 -7 -16.5t-21 -7.5q-17 0 -33 18q-2 2 -4.5 5t-4 4.5l-3.5 3.5l-2.5 2.5
t-2 1.5t-2.5 1.5t-2.5 1t-2.5 0.5h-3q-34 0 -80 -88zM143 367q0 -29 28 -29q18 0 30 13t23 42q33 88 33 103q0 23 -24 23q-29 0 -49 -36q-41 -82 -41 -116z" />
    <glyph glyph-name="seven.superior" unicode="&#x2077;" 
d="M168 670h37q-4 -10 -4 -15q0 -4 5 -4h176v-14l-180 -267q-26 -37 -38 -48.5t-32 -11.5q-13 0 -23 7t-10 18t6.5 21t28.5 34l179 207h-90q-30 0 -38 -4t-17 -26h-36z" />
    <glyph glyph-name="eight.superior" unicode="&#x2078;" 
d="M249 492v-2q54 -18 54 -70q0 -40 -37 -75t-96 -35q-44 0 -75.5 22t-31.5 60q0 44 33 72t78 30v2q-24 10 -34.5 29t-10.5 35q0 36 33 66.5t89 30.5q46 0 70.5 -23t24.5 -52q0 -33 -26.5 -58.5t-70.5 -31.5zM254 629q-20 0 -32 -22q-6 -11 -15 -39t-9 -40q0 -22 21 -22
q27 0 37 30q5 10 13 36t8 36q0 21 -23 21zM205 478q-25 0 -39 -25q-28 -50 -28 -87q0 -28 28 -28q30 0 44 30q24 50 24 83q0 27 -29 27z" />
    <glyph glyph-name="nine.superior" unicode="&#x2079;" 
d="M225 426q-20 -6 -33 -6q-39 0 -62 23t-23 58q0 60 45 108t116 48q39 0 63 -23t24 -59q0 -14 -6 -41.5t-22 -67t-40 -73.5t-65.5 -58.5t-92.5 -24.5q-19 0 -33 3.5t-21.5 8.5t-11.5 11.5t-5 11t-1 7.5q0 9 7 16.5t21 7.5q17 0 33 -18q2 -2 4.5 -5t4 -4.5l3.5 -3.5
l2.5 -2.5t2 -1.5t2.5 -1.5t2.5 -1t2.5 -0.5h3q34 0 80 88zM290 600q0 29 -28 29q-18 0 -30 -13t-23 -42q-33 -88 -33 -103q0 -23 24 -23q29 0 49 36q41 82 41 116z" />
    <glyph glyph-name="parenleft.superior" unicode="&#x207d;" horiz-adv-x="167" 
d="M159 186l-37 -14q-43 91 -43 191q0 54 15.5 104t34.5 84t54.5 71t57 55t59.5 47l29 -26q-34 -28 -51.5 -45.5t-41.5 -56t-46 -93.5q-47 -120 -47 -215q0 -56 16 -102z" />
    <glyph glyph-name="parenright.superior" unicode="&#x207e;" horiz-adv-x="167" 
d="M134 710l38 14q43 -98 43 -194q0 -54 -16 -103.5t-35.5 -83.5t-55 -70.5t-57 -54.5t-58.5 -46l-29 26q34 28 51.5 45.5t41.5 56t46 93.5q48 120 48 215q0 54 -17 102z" />
    <glyph glyph-name="n.superior" unicode="&#x207f;" horiz-adv-x="375" 
d="M32 318l57 175q7 21 7 29q0 6 -4 6q-15 0 -37 -45h-37q14 39 41 63q28 25 65 25q25 0 40 -12.5t15 -29.5q0 -8 -11 -44l2 -2q65 88 128 88q25 0 39 -13t14 -31q0 -9 -8 -38l-30 -89q-9 -27 -9 -34q0 -6 5 -6q7 0 20.5 14.5t19.5 25.5h44q-21 -36 -50 -59q-34 -27 -70 -27
q-25 0 -41 11t-16 30q0 13 9 38l23 70q9 27 9 38q0 13 -10 13q-12 0 -31.5 -19t-47 -66t-50.5 -111h-86z" />
    <glyph glyph-name="zero.inferior" unicode="&#x2080;" 
d="M207 340q29 0 48.5 -10t27.5 -25.5t10.5 -27t2.5 -23.5q0 -27 -10 -67.5t-30 -86t-59.5 -77t-89.5 -31.5q-29 0 -49 10t-28 26.5t-10.5 28t-2.5 23.5q0 16 5 43.5t18.5 66t34 71.5t55 56t77.5 23zM208 313q-30 0 -49 -39q-22 -42 -50.5 -123.5t-28.5 -101.5q0 -29 24 -29
q16 0 31 14t33 55q63 164 63 198q0 26 -23 26z" />
    <glyph glyph-name="one.inferior" unicode="&#x2081;" 
d="M276 339l-94 -266q-9 -26 -9 -32q0 -8 7 -9.5t40 -3.5l-10 -28h-184l11 28h18q23 0 28.5 5t15.5 33l66 188q5 12 5 19q0 13 -35 13h-29l10 28q92 6 126 25h34z" />
    <glyph glyph-name="two.inferior" unicode="&#x2082;" 
d="M201 -16h-39q5 5 5 12q0 3 -6 3l-19 1h-149l13 37q84 60 148 120q59 55 59 108q0 20 -11.5 33t-34.5 13q-44 0 -44 -31q0 -13 14 -25q9 -9 9 -10q0 -4 -17.5 -13.5t-28.5 -9.5t-23.5 14.5t-12.5 32.5q0 27 30 48.5t83 21.5t84 -21t31 -55q0 -52 -47 -92.5t-171 -115.5v-2
h153z" />
    <glyph glyph-name="three.inferior" unicode="&#x2083;" 
d="M186 189v-2q34 -5 48 -26t14 -43q0 -55 -50.5 -90.5t-116.5 -35.5q-41 0 -67 16t-26 36q0 12 10 20t24 8q28 0 41 -27q3 -8 5.5 -12.5t8.5 -8.5t14 -4q35 0 59.5 46.5t24.5 77.5q0 3 -1 7.5t-5.5 11t-12.5 6.5q-4 0 -23.5 -10t-22.5 -10q-6 0 -11.5 4.5t-5.5 10.5
q0 10 36 26q38 19 55.5 29.5t31 26t13.5 33.5q0 12 -9.5 22t-27.5 10q-19 0 -30.5 -10t-11.5 -25q0 -1 2 -7.5t2 -7.5q0 -3 -16.5 -13t-22.5 -10q-8 0 -15 12t-7 23q0 27 27.5 46.5t76.5 19.5q47 0 74 -17t27 -42q0 -46 -112 -91z" />
    <glyph glyph-name="four.inferior" unicode="&#x2084;" 
d="M6 97l6 35l216 207h64l-74 -204q20 0 25 2.5t12 17.5h37l-19 -58h-68l-10 -27q-9 -24 -9 -30q0 -12 48 -12l-9 -28h-184l10 28h17q22 0 28.5 5.5t16.5 33.5l11 30h-118zM60 135h78l40 110l-2 2z" />
    <glyph glyph-name="five.inferior" unicode="&#x2085;" 
d="M129 333h184l-9 -20q-10 -23 -22 -28.5t-35 -5.5h-100l-21 -54q22 10 41 10q35 0 63.5 -25.5t28.5 -70.5q0 -63 -53 -105t-119 -42q-39 0 -66 15t-27 34q0 13 10.5 20.5t24.5 7.5q22 0 39 -26q1 -1 2 -3q15 -18 25 -20q29 0 52.5 35t33 70t9.5 52q0 30 -30 30t-59 -42
h-37z" />
    <glyph glyph-name="six.inferior" unicode="&#x2086;" 
d="M155 223q19 6 33 6q39 0 62 -23t23 -58q0 -60 -45 -108t-116 -48q-39 0 -63 23t-24 59q0 14 6 41.5t22 67t40 73.5t65.5 58.5t92.5 24.5q19 0 33 -3.5t21.5 -8.5t11.5 -11.5t5 -11t1 -7.5q0 -9 -7 -16.5t-21 -7.5q-17 0 -33 18q-2 2 -4.5 5t-4 4.5l-3.5 3.5l-2.5 2.5
t-2 1.5t-2.5 1.5t-2.5 1t-2.5 0.5h-3q-34 0 -80 -88zM90 49q0 -29 28 -29q18 0 30 13t23 42q33 88 33 103q0 23 -24 23q-29 0 -49 -36q-41 -82 -41 -116z" />
    <glyph glyph-name="seven.inferior" unicode="&#x2087;" 
d="M115 352h37q-4 -10 -4 -15q0 -4 5 -4h176v-14l-180 -266q-26 -38 -38 -49.5t-32 -11.5q-13 0 -23 7t-10 18t6.5 21t28.5 35l179 206h-90q-30 0 -38 -4t-17 -25h-36z" />
    <glyph glyph-name="eight.inferior" unicode="&#x2088;" 
d="M196 174v-2q54 -18 54 -70q0 -40 -37 -75t-96 -35q-44 0 -75.5 22t-31.5 60q0 44 33 72t78 30v2q-24 10 -34.5 29t-10.5 35q0 36 33 66.5t89 30.5q46 0 70.5 -23t24.5 -52q0 -33 -26.5 -58.5t-70.5 -31.5zM201 311q-20 0 -32 -22q-6 -11 -15 -39t-9 -40q0 -22 21 -22
q27 0 37 30q5 10 13 36t8 36q0 21 -23 21zM152 160q-25 0 -39 -25q-28 -50 -28 -87q0 -28 28 -28q30 0 44 30q24 50 24 83q0 27 -29 27z" />
    <glyph glyph-name="nine.inferior" unicode="&#x2089;" 
d="M173 109q-19 -6 -33 -6q-39 0 -62 23t-23 58q0 60 45 108t116 48q39 0 63 -23t24 -59q0 -14 -6 -41.5t-22 -67t-40 -73.5t-65.5 -58.5t-92.5 -24.5q-19 0 -33 3.5t-21.5 8.5t-11.5 11.5t-5 11t-1 7.5q0 9 7 16.5t21 7.5q17 0 33 -18q2 -2 4.5 -5t4 -4.5l3.5 -3.5
l2.5 -2.5t2 -1.5t2.5 -1.5t2.5 -1t2.5 -0.5h3q34 0 80 88zM238 283q0 29 -28 29q-18 0 -30 -13t-23 -42q-33 -88 -33 -103q0 -23 24 -23q29 0 49 36q41 82 41 116z" />
    <glyph glyph-name="parenleft.inferior" unicode="&#x208d;" horiz-adv-x="167" 
d="M100 -140l-37 -14q-43 91 -43 191q0 54 15.5 104t35 83.5t55 71t57 55t59.5 47.5l28 -26q-34 -28 -51.5 -45.5t-41.5 -56t-46 -93.5q-47 -120 -47 -215q0 -56 16 -102z" />
    <glyph glyph-name="parenright.inferior" unicode="&#x208e;" horiz-adv-x="167" 
d="M75 384l38 14q43 -96 43 -194q0 -54 -16 -103.5t-35.5 -83.5t-55 -70.5t-57 -54.5t-58.5 -46l-29 26q34 29 51.5 46.5t41.5 55.5t46 93q48 120 48 215q0 54 -17 102z" />
    <glyph glyph-name="colonmonetary" unicode="&#x20a1;" horiz-adv-x="688" 
d="M270 -4l-31 -95h-44l35 108q-77 35 -113.5 100.5t-36.5 136.5q0 66 24 135t68.5 130.5t116 106t157.5 57.5l6 17h44l-6 -17q34 -3 61 -13l10 30h44l-15 -47q36 -23 63 -58q23 24 40 71h45l-49 -226h-47q1 33 0 54.5t-17 57.5t-49 60l-181 -559q11 3 28.5 11t49 27
t62.5 56t50 85h47l-65 -219h-41q2 22 2 44q0 11 -2 23q-63 -68 -148 -81l-30 -90h-44l28 86q-37 1 -62 9zM475 628l-186 -575q25 -14 60 -14l189 583q-27 8 -63 6zM254 84l172 529q-55 -28 -97.5 -84t-64.5 -118.5t-32.5 -115.5t-10.5 -91q0 -75 33 -120z" />
    <glyph glyph-name="Euro" unicode="&#x20ac;" horiz-adv-x="500" 
d="M427 297l-15 -47h-233q-3 -24 -3 -48q0 -27 3.5 -52t13 -52t29.5 -43.5t48 -16.5q87 0 148 159l44 -7q-67 -205 -212 -205q-50 0 -87.5 25t-58 65.5t-30 84.5t-8.5 90h-46l15 47h34q2 21 8 55h-42l15 47h39q14 46 37 89.5t55 82.5t76.5 62.5t93.5 23.5q88 0 129 -69
q2 4 20 53h41l-30 -191h-43q0 156 -98 156q-30 0 -58.5 -22t-49 -57t-34 -66.5t-21.5 -61.5h251l-15 -47h-248q-7 -33 -11 -55h243z" />
    <glyph glyph-name="afii61289" unicode="&#x2113;" horiz-adv-x="271" 
d="M300 124q-27 -136 -121 -136q-50 0 -83 30q-40 39 -40 112v56q-2 -4 -39 -52l-22 32q53 64 61 77v235q0 92 37 163t107 71q86 0 86 -99q0 -109 -58 -229q-29 -59 -47 -81v-168q0 -83 33 -83q28 0 47 85zM247 607h-1q0 61 -30 61q-35 0 -35 -126v-162q1 4 11 25t14 33
q18 39 29.5 88.5t11.5 80.5z" />
    <glyph glyph-name="trademark" unicode="&#x2122;" horiz-adv-x="948" 
d="M34 662h360v-105h-16q-2 45 -23.5 63t-66.5 18h-18v-273q0 -38 9 -49.5t39 -11.5v-17h-210v17q34 0 40.5 11t6.5 52v271h-16q-28 0 -46.5 -7.5t-27 -21.5t-12 -25t-4.5 -27h-15v105zM445 662h171l107 -230l106 230h161v-18q-31 0 -39 -12.5t-8 -49.5v-219q0 -33 9 -46
t38 -13v-17h-214v17q34 0 43.5 10t9.5 49v239l-148 -315h-12l-147 314v-236q0 -26 2 -36.5t13.5 -17.5t37.5 -7v-17h-130v17q34 0 42.5 11.5t8.5 50.5v217q0 40 -8.5 51t-42.5 10v18z" />
    <glyph glyph-name="Omega" unicode="&#x2126;" horiz-adv-x="626" 
d="M586 0h-235v153q43 30 64.5 103t21.5 150q0 131 -33 198.5t-92 67.5q-64 0 -96.5 -73t-32.5 -192q0 -92 25 -165t69 -94v-148h-237v171h31q0 -16 0.5 -25.5t4 -23.5t9.5 -21.5t18.5 -13t30.5 -5.5h92v33q-75 32 -127.5 105t-52.5 185q0 135 71.5 221t194.5 86
q120 0 194 -91t74 -211q0 -95 -48.5 -177.5t-129.5 -113.5v-37h89q18 0 30.5 5.5t18.5 13t9.5 21.5t4 23.5t0.5 25.5h32v-171z" />
    <glyph glyph-name="estimated" unicode="&#x212e;" horiz-adv-x="571" 
d="M532 248h-385v-181q55 -56 137 -56q57 0 107.5 30t82.5 88l25 -14q-45 -65 -95 -96t-120 -31q-111 0 -177 73.5t-66 186.5q0 112 65.5 186.5t175.5 74.5q113 0 178.5 -72.5t71.5 -188.5zM420 273v153q-57 60 -139 60q-79 0 -134 -57v-156h273z" />
    <glyph glyph-name="onethird" unicode="&#x2153;" horiz-adv-x="771" 
d="M127 0l543 664h57l-547 -664h-53zM638 189v-2q34 -5 48 -26t14 -43q0 -55 -50.5 -90.5t-116.5 -35.5q-41 0 -67 16t-26 36q0 12 10 20t24 8q28 0 41 -27q3 -8 5.5 -12.5t8.5 -8.5t14 -4q35 0 59.5 46.5t24.5 77.5q0 3 -1 7.5t-5.5 11t-12.5 6.5q-4 0 -23.5 -10t-22.5 -10
q-6 0 -11.5 4.5t-5.5 10.5q0 10 36 26q38 19 55.5 29.5t31 26t13.5 33.5q0 12 -9.5 22t-27.5 10q-19 0 -30.5 -10t-11.5 -25q0 -1 2 -7.5t2 -7.5q0 -3 -16.5 -13t-22.5 -10q-8 0 -15 12t-7 23q0 27 27.5 46.5t76.5 19.5q47 0 74 -17t27 -42q0 -46 -112 -91zM337 657
l-94 -266q-9 -26 -9 -32q0 -8 7 -9.5t40 -3.5l-10 -28h-184l11 28h18q23 0 28.5 5t15.5 33l66 188q5 12 5 19q0 13 -35 13h-29l10 28q92 6 126 25h34z" />
    <glyph glyph-name="twothirds" unicode="&#x2154;" horiz-adv-x="771" 
d="M119 0l543 664h57l-547 -664h-53zM630 189v-2q34 -5 48 -26t14 -43q0 -55 -50.5 -90.5t-116.5 -35.5q-41 0 -67 16t-26 36q0 12 10 20t24 8q28 0 41 -27q3 -8 5.5 -12.5t8.5 -8.5t14 -4q35 0 59.5 46.5t24.5 77.5q0 3 -1 7.5t-5.5 11t-12.5 6.5q-4 0 -23.5 -10t-22.5 -10
q-6 0 -11.5 4.5t-5.5 10.5q0 10 36 26q38 19 55.5 29.5t31 26t13.5 33.5q0 12 -9.5 22t-27.5 10q-19 0 -30.5 -10t-11.5 -25q0 -1 2 -7.5t2 -7.5q0 -3 -16.5 -13t-22.5 -10q-8 0 -15 12t-7 23q0 27 27.5 46.5t76.5 19.5q47 0 74 -17t27 -42q0 -46 -112 -91zM254 302h-39
q5 5 5 12q0 3 -6 3l-19 1h-149l13 37q84 60 148 120q59 55 59 108q0 20 -11.5 33t-34.5 13q-44 0 -44 -31q0 -13 14 -25q9 -9 9 -10q0 -4 -17.5 -13.5t-28.5 -9.5t-23.5 14.5t-12.5 32.5q0 27 30 48.5t83 21.5t84 -21t31 -55q0 -52 -47 -92.5t-171 -115.5v-2h153z" />
    <glyph glyph-name="oneeighth" unicode="&#x215b;" horiz-adv-x="771" 
d="M596 160q-25 0 -39 -25q-28 -50 -28 -87q0 -28 28 -28q30 0 44 30q24 50 24 83q0 27 -29 27zM640 174v-2q54 -18 54 -70q0 -40 -37 -75t-96 -35q-44 0 -75.5 22t-31.5 60q0 44 33 72t78 30v2q-24 10 -34.5 29t-10.5 35q0 36 33 66.5t89 30.5q46 0 70.5 -23t24.5 -52
q0 -33 -26.5 -58.5t-70.5 -31.5zM645 311q-20 0 -32 -22q-6 -11 -15 -39t-9 -40q0 -22 21 -22q27 0 37 30q5 10 13 36t8 36q0 21 -23 21zM119 0l543 664h57l-547 -664h-53zM329 657l-94 -266q-9 -26 -9 -32q0 -8 7 -9.5t40 -3.5l-10 -28h-184l11 28h18q23 0 28.5 5t15.5 33
l66 188q5 12 5 19q0 13 -35 13h-29l10 28q92 6 126 25h34z" />
    <glyph glyph-name="threeeighths" unicode="&#x215c;" horiz-adv-x="771" 
d="M596 160q-25 0 -39 -25q-28 -50 -28 -87q0 -28 28 -28q30 0 44 30q24 50 24 83q0 27 -29 27zM640 174v-2q54 -18 54 -70q0 -40 -37 -75t-96 -35q-44 0 -75.5 22t-31.5 60q0 44 33 72t78 30v2q-24 10 -34.5 29t-10.5 35q0 36 33 66.5t89 30.5q46 0 70.5 -23t24.5 -52
q0 -33 -26.5 -58.5t-70.5 -31.5zM645 311q-20 0 -32 -22q-6 -11 -15 -39t-9 -40q0 -22 21 -22q27 0 37 30q5 10 13 36t8 36q0 21 -23 21zM119 0l543 664h57l-547 -664h-53zM239 507v-2q34 -5 48 -26t14 -43q0 -55 -50.5 -90.5t-116.5 -35.5q-41 0 -67 16t-26 36q0 12 10 20
t24 8q27 0 41 -27q3 -8 5.5 -12.5t8.5 -8.5t14 -4q35 0 59.5 46.5t24.5 77.5q0 3 -1 7.5t-5.5 11t-12.5 6.5q-4 0 -23.5 -10t-22.5 -10q-6 0 -11.5 4.5t-5.5 10.5q0 10 36 26q38 19 55.5 29.5t31 26t13.5 33.5q0 12 -9.5 22t-27.5 10q-19 0 -30.5 -10t-11.5 -25q0 -1 2 -7.5
t2 -7.5q0 -3 -16.5 -13t-22.5 -10q-8 0 -15 12t-7 23q0 27 27.5 46.5t76.5 19.5q47 0 74 -17t27 -42q0 -46 -112 -91z" />
    <glyph glyph-name="fiveeighths" unicode="&#x215d;" horiz-adv-x="771" 
d="M596 160q-25 0 -39 -25q-28 -50 -28 -87q0 -28 28 -28q30 0 44 30q24 50 24 83q0 27 -29 27zM640 174v-2q54 -18 54 -70q0 -40 -37 -75t-96 -35q-44 0 -75.5 22t-31.5 60q0 44 33 72t78 30v2q-24 10 -34.5 29t-10.5 35q0 36 33 66.5t89 30.5q46 0 70.5 -23t24.5 -52
q0 -33 -26.5 -58.5t-70.5 -31.5zM645 311q-20 0 -32 -22q-6 -11 -15 -39t-9 -40q0 -22 21 -22q27 0 37 30q5 10 13 36t8 36q0 21 -23 21zM119 0l543 664h57l-547 -664h-53zM182 651h184l-9 -20q-10 -23 -21.5 -28.5t-35.5 -5.5h-100l-21 -54q22 10 41 10q35 0 63.5 -25.5
t28.5 -70.5q0 -63 -53 -105t-119 -42q-39 0 -66 15t-27 34q0 13 10.5 20.5t24.5 7.5q22 0 39 -26q11 -20 20 -22q3 -1 7 -1q29 0 52.5 35t33 70t9.5 52q0 30 -30 30t-59 -42h-37z" />
    <glyph glyph-name="seveneighths" unicode="&#x215e;" horiz-adv-x="771" 
d="M595 160q-25 0 -39 -25q-28 -50 -28 -87q0 -28 28 -28q30 0 44 30q24 50 24 83q0 27 -29 27zM639 174v-2q54 -18 54 -70q0 -40 -37 -75t-96 -35q-44 0 -75.5 22t-31.5 60q0 44 33 72t78 30v2q-24 10 -34.5 29t-10.5 35q0 36 33 66.5t89 30.5q46 0 70.5 -23t24.5 -52
q0 -33 -26.5 -58.5t-70.5 -31.5zM644 311q-20 0 -32 -22q-6 -11 -15 -39t-9 -40q0 -22 21 -22q27 0 37 30q5 10 13 36t8 36q0 21 -23 21zM108 0l542 664h57l-546 -664h-53zM168 670h37q-4 -10 -4 -15q0 -4 5 -4h176v-14l-180 -267q-26 -37 -38 -48.5t-32 -11.5q-13 0 -23 7
t-10 18q0 15 29 48q4 4 6 7l179 207h-90q-30 0 -38 -4t-17 -26h-36z" />
    <glyph glyph-name="partialdiff" unicode="&#x2202;" horiz-adv-x="432" 
d="M404 488q0 -56 -15 -137t-35 -135q-51 -130 -92.5 -179.5t-100.5 -49.5q-70 0 -105.5 53.5t-35.5 142.5q0 115 56 199t148 84q47 0 73.5 -26t35.5 -59h1q2 29 2 78q0 42 -9 82t-34.5 72.5t-63.5 32.5q-66 0 -115 -65l-17 21q65 122 171 122q42 0 70 -18t42 -52.5t19 -73
t5 -92.5zM328 328q-5 24 -10.5 40t-22 33t-41.5 17q-48 0 -81 -78t-33 -186q0 -57 19.5 -86.5t47.5 -29.5q44 0 75.5 87.5t45.5 202.5z" />
    <glyph glyph-name="Delta" unicode="&#x2206;" horiz-adv-x="479" 
d="M459 0h-435l164 712h110zM325 48l-115 490l-122 -490h237z" />
    <glyph glyph-name="product" unicode="&#x220f;" horiz-adv-x="574" 
d="M542 -131h-216v32h11q22 0 28.5 21.5t6.5 59.5v671h-172v-671q0 -81 33 -81h12v-32h-213v32h11q21 0 27.5 21.5t6.5 59.5v605q0 19 -1 31.5t-4 25t-10 18.5t-18 6h-12v32h510v-32h-11q-22 0 -28 -20.5t-6 -60.5v-605q0 -25 2 -40.5t9.5 -28t21.5 -12.5h12v-32z" />
    <glyph glyph-name="summation" unicode="&#x2211;" horiz-adv-x="416" 
d="M405 51l-10 -182h-379l-1 37l172 358l-166 400v36h363l7 -153h-30q-5 64 -14.5 84.5t-38.5 20.5h-175l136 -320l-177 -364h225q31 0 41 18t16 69z" />
    <glyph glyph-name="minus" unicode="&#x2212;" horiz-adv-x="667" 
d="M82 368h538v-90h-538v90z" />
    <glyph glyph-name="uni2215" unicode="&#x2215;" horiz-adv-x="188" 
d="M-155 0l543 664h57l-546 -664h-54z" />
    <glyph glyph-name="uni2219" unicode="&#x2219;" horiz-adv-x="271" 
d="M152 384q26 0 45 -18.5t19 -44.5t-19 -45t-45 -19t-44.5 19t-18.5 45t18.5 44.5t44.5 18.5z" />
    <glyph glyph-name="radical" unicode="&#x221a;" horiz-adv-x="273" 
d="M234 728l-66 -740h-56l-80 323l-28 -22l-23 31l93 69l65 -298h2l57 637h36z" />
    <glyph glyph-name="infinity" unicode="&#x221e;" horiz-adv-x="573" 
d="M412 155q-43 0 -70 19t-50 58h-1q-51 -77 -129 -77q-52 0 -86 35t-34 88q0 55 33 91t85 36q76 0 117 -76h1q51 76 131 76q50 0 84 -34.5t34 -89.5q0 -54 -33 -90t-82 -36zM414 362q-10 0 -19.5 -2.5t-16 -5t-14.5 -10t-11.5 -10.5t-11 -15t-9 -14.5t-9.5 -17.5t-9 -17
q33 -73 98 -73q35 0 54.5 24.5t19.5 58.5q0 36 -18 59t-54 23zM161 362q-33 0 -55.5 -22t-22.5 -60q0 -37 20 -60t56 -23q15 0 28.5 7.5t22 14.5t20 25t14 23.5t12.5 24.5q-34 70 -95 70z" />
    <glyph glyph-name="integral" unicode="&#x222b;" horiz-adv-x="223" 
d="M216 693q0 -39 -27 -39q-19 0 -29 14q-11 11 -23 11q-16 0 -16 -23q-1 -20 10 -71t14 -73q21 -107 21 -242q0 -171 -10 -245q-18 -129 -27 -160q-11 -37 -26.5 -56.5t-42.5 -19.5q-22 0 -39 14.5t-17 38.5q0 17 9 29t26 12q13 0 25 -18q5 -7 19 -7q15 0 16 41q0 11 -5 35
t-12.5 57.5t-11.5 54.5q-15 98 -15 222q0 104 8 200q8 130 22 195q10 41 29.5 62.5t41.5 21.5q28 0 44 -15.5t16 -38.5z" />
    <glyph glyph-name="approxequal" unicode="&#x2248;" horiz-adv-x="667" 
d="M652 486q-66 -161 -187 -161q-60 0 -162 38q-71 27 -106 27q-45 0 -75 -17.5t-53 -66.5l-54 25q31 77 75.5 118t112.5 41q61 0 146 -32q83 -32 126 -32q44 0 72 20t51 65zM652 307q-65 -160 -187 -160q-64 0 -162 38q-71 27 -106 27q-46 0 -75.5 -18t-52.5 -68l-54 27
q31 77 75.5 118t112.5 41q55 0 146 -32q79 -32 126 -32q44 0 72 20t51 65z" />
    <glyph glyph-name="notequal" unicode="&#x2260;" horiz-adv-x="668" 
d="M613 194h-311l-100 -154h-95l101 154h-154v84h208l54 80h-262v84h314l98 148h95l-98 -148h150v-84h-203l-54 -80h257v-84z" />
    <glyph glyph-name="lessequal" unicode="&#x2264;" horiz-adv-x="667" 
d="M613 0h-559v84h559v-84zM613 144l-559 194v90l559 195v-88l-437 -151l437 -152v-88z" />
    <glyph glyph-name="greaterequal" unicode="&#x2265;" horiz-adv-x="667" 
d="M613 0h-559v84h559v-84zM613 338l-559 -195v88l437 151l-437 152v88l559 -194v-90z" />
    <glyph glyph-name="lozenge" unicode="&#x25ca;" horiz-adv-x="254" 
d="M268 349l-124 -361h-36l-122 361l122 363h36zM219 349l-92 283l-91 -283l91 -282z" />
    <glyph glyph-name="uni2014.alt" unicode="&#xe000;" horiz-adv-x="750" 
d="M-6 295h762v-90h-762v90z" />
    <glyph glyph-name="one.fitted" unicode="&#xf6dc;" horiz-adv-x="469" 
d="M485 678l-165 -543q-10 -34 -10 -42q0 -48 71 -48l-14 -45h-317l14 45q54 0 72.5 13t33.5 61l104 342q17 57 17 71t-6.5 23t-21 12t-24.5 4t-29 1h-18l14 45q154 0 239 61h40z" />
    <glyph glyph-name="R_p" unicode="&#xf6dd;" horiz-adv-x="1260" 
d="M288 302l-51 -167q-9 -28 -9 -42q0 -17 8 -27.5t23.5 -14.5t26 -5t26.5 -1l-14 -45h-301l14 45q39 0 56.5 14.5t30.5 59.5l125 414q9 30 9 40q0 24 -17.5 35t-39.5 11h-19l14 43h314q99 0 151 -27q88 -46 88 -140q0 -26 -9.5 -52.5t-32 -56.5t-70 -50.5t-113.5 -24.5
q28 -23 40 -46.5t42 -111.5q14 -43 38.5 -71t76.5 -37l-13 -45h-170q-14 18 -26 44t-37 99q-31 90 -40.5 111t-25.5 32q-23 16 -67 16h-28zM846 38l-52 -169q-6 -20 -6 -29q0 -16 16.5 -22t53.5 -6h24l-13 -45h-309l14 45h18q48 0 61.5 11.5t29.5 62.5l129 418q6 21 6 31
q0 8 -4.5 14.5t-11.5 6.5q-33 0 -68 -80h-47q56 141 156 141q28 0 46.5 -9t25.5 -26t8.5 -26.5t2.5 -24.5q46 50 87 69q35 17 72 17q39 0 67.5 -15.5t42 -40t19.5 -47t6 -44.5q0 -108 -76.5 -197t-183.5 -89q-72 0 -114 54zM383 617l-81 -267h52q109 0 152 24q37 20 58.5 59
t21.5 79q0 105 -144 105h-59zM911 237l-5 -13q-6 -14 -10.5 -27t-10 -31t-9 -35.5t-3.5 -31.5q0 -31 19 -53.5t51 -22.5q40 0 72 32t49.5 77t26.5 85t9 64q0 31 -15.5 54.5t-45.5 23.5q-32 0 -67.5 -32.5t-60.5 -89.5z" />
    <glyph glyph-name="cent.inferior" unicode="&#xf6df;" horiz-adv-x="271" 
d="M203 218l52 85h40l-57 -93q37 -21 37 -47q0 -18 -11.5 -29t-30.5 -11q-30 0 -34 23l-72 -119q45 5 79 41h43q-51 -69 -144 -76l-41 -67h-39l42 70q-55 15 -55 63q0 56 51.5 108.5t139.5 51.5zM97 43l89 147q-22 -1 -41 -18t-29.5 -39.5t-16.5 -41.5t-6 -28q0 -4 4 -20z
" />
    <glyph glyph-name="cent.superior" unicode="&#xf6e0;" horiz-adv-x="271" 
d="M236 541l52 85h40l-57 -93q37 -21 37 -47q0 -18 -11.5 -29t-30.5 -11q-30 0 -34 23l-72 -119q45 5 79 41h43q-51 -69 -144 -76l-41 -67h-39l42 70q-55 15 -55 63q0 56 51.5 108.5t139.5 51.5zM130 366l89 147q-22 -1 -41 -18t-29.5 -39.5t-16.5 -41.5t-6 -28q0 -4 4 -20z
" />
    <glyph glyph-name="comma.inferior" unicode="&#xf6e1;" horiz-adv-x="167" 
d="M-40 -120l11 32q37 4 65 21.5t28 40.5q0 9 -14 9q-16 0 -27 11t-11 29t13.5 29t32.5 11q26 0 40 -17.5t14 -42.5q0 -38 -36 -77t-116 -46z" />
    <glyph glyph-name="comma.superior" unicode="&#xf6e2;" horiz-adv-x="167" 
d="M18 205l11 32q37 4 65 21.5t28 40.5q0 9 -14 9q-16 0 -27 11t-11 29t13.5 29t32.5 11q26 0 40 -17.5t14 -42.5q0 -38 -36 -77t-116 -46z" />
    <glyph glyph-name="dollar.inferior" unicode="&#xf6e3;" horiz-adv-x="281" 
d="M99 27l43 121q-33 29 -48.5 51t-15.5 48q0 37 33.5 66t98.5 28l3 9h38l-5 -14q27 -8 42 -21.5t17 -20t2 -10.5q0 -8 -7.5 -15.5t-19.5 -7.5q-16 0 -26 12q-3 3 -21 27l-37 -106q68 -56 68 -97q0 -52 -54 -84q-29 -17 -86 -21l-15 -44h-38l17 48q-75 21 -75 56
q0 10 7.5 16.5t20.5 6.5q20 0 33 -18q18 -25 25 -30zM167 219l33 94q-30 -3 -43 -17t-13 -31q0 -21 23 -46zM170 122l-36 -102q65 6 65 49q0 24 -29 53z" />
    <glyph glyph-name="dollar.superior" unicode="&#xf6e4;" horiz-adv-x="281" 
d="M152 353l43 121q-33 29 -48.5 51t-15.5 48q0 37 33.5 66t98.5 28l3 9h38l-5 -14q27 -8 42 -21.5t17 -20t2 -10.5q0 -8 -7.5 -15.5t-19.5 -7.5q-16 0 -26 12q-3 3 -21 27l-37 -106q68 -56 68 -97q0 -52 -54 -84q-29 -17 -86 -21l-15 -44h-38l17 48q-75 21 -75 56
q0 10 7.5 16.5t20.5 6.5q20 0 33 -18q16 -23 25 -30zM220 545l33 94q-30 -3 -43 -17t-13 -31q0 -21 23 -46zM223 448l-36 -102q65 6 65 49q0 24 -29 53z" />
    <glyph glyph-name="hyphen.inferior" unicode="&#xf6e5;" horiz-adv-x="198" 
d="M4 83l19 57h161l-19 -57h-161z" />
    <glyph glyph-name="hyphen.superior" unicode="&#xf6e6;" horiz-adv-x="198" 
d="M63 409l19 57h161l-19 -57h-161z" />
    <glyph glyph-name="period.inferior" unicode="&#xf6e7;" horiz-adv-x="167" 
d="M14 21q0 17 14 29t32 12q19 0 33 -11.5t14 -29.5q0 -17 -14 -28.5t-33 -11.5q-18 0 -32 11.5t-14 28.5z" />
    <glyph glyph-name="period.superior" unicode="&#xf6e8;" horiz-adv-x="167" 
d="M73 347q0 18 13.5 29.5t32.5 11.5t32.5 -11.5t13.5 -29.5q0 -17 -13.5 -28.5t-32.5 -11.5q-18 0 -32 11.5t-14 28.5z" />
    <glyph glyph-name="a.superior" unicode="&#xf6e9;" horiz-adv-x="344" 
d="M320 566l-56 -170q-13 -41 -3 -41q7 0 18.5 13.5t18.5 26.5h41q-25 -46 -55 -67q-25 -18 -55 -18q-23 0 -36 10t-16 19.5t-4 24.5q-31 -32 -52 -43t-47 -11q-28 0 -44 19.5t-16 52.5q0 63 49 126t116 63q16 0 27.5 -4.5t15.5 -9t11 -13.5l7 22h80zM189 539
q-34 0 -62 -52.5t-28 -90.5q0 -31 18 -31q30 0 61.5 49.5t31.5 93.5q0 31 -21 31z" />
    <glyph glyph-name="b.superior" unicode="&#xf6ea;" horiz-adv-x="344" 
d="M230 724l-60 -181l2 -2q39 30 86 30q37 0 63.5 -22.5t26.5 -64.5q0 -64 -58 -119t-136 -55q-51 0 -82 23.5t-31 59.5q0 21 12 57l69 209q3 9 3 13q0 11 -30 11h-17l11 32q69 0 112 9h29zM223 526q-33 0 -58.5 -34t-34.5 -66t-9 -48t10.5 -26t27.5 -10q45 0 72.5 49
t27.5 90q0 45 -36 45z" />
    <glyph glyph-name="d.superior" unicode="&#xf6eb;" horiz-adv-x="365" 
d="M411 724l-114 -344q-5 -14 -5 -21t5 -7q16 0 40 40h42q-12 -28 -39 -53q-34 -29 -71 -29q-19 0 -31.5 4.5t-18 13.5t-7.5 15.5t-3 16.5q-22 -19 -42 -31q-34 -19 -66 -19q-34 0 -54 19.5t-20 53.5q0 69 53.5 128.5t126.5 59.5q32 0 59 -23l34 102q6 18 6 21q0 4 -1.5 6.5
t-8.5 4t-21 1.5h-14l11 32q78 0 109 9h30zM141 363q39 0 72 47.5t33 90.5q0 17 -8.5 28.5t-24.5 11.5q-37 0 -69 -51t-32 -93q0 -34 29 -34z" />
    <glyph glyph-name="e.superior" unicode="&#xf6ec;" 
d="M213 398h44q-23 -35 -65 -61.5t-95 -26.5q-36 0 -66 18t-30 59q0 68 59 126t146 58q28 0 46.5 -6t26 -16t10 -16.5t2.5 -13.5q0 -6 -2 -14t-13.5 -22.5t-30.5 -27.5t-59 -26.5t-94 -21.5q-2 -10 -2 -21q0 -34 36 -34q47 0 87 46zM99 440q57 8 86 32t29 49q0 22 -21 22
q-54 0 -94 -103z" />
    <glyph glyph-name="i.superior" unicode="&#xf6ed;" horiz-adv-x="198" 
d="M119 683q0 16 14 28t33 12q20 0 33.5 -12t13.5 -29t-14 -28.5t-33 -11.5t-33 12t-14 29zM38 484h-38q20 43 51.5 65t62.5 22q22 0 38 -10t16 -28q0 -15 -8 -35l-39 -97q-13 -30 -13 -39t7 -9q7 -1 18 12.5t18 29.5h40q-40 -85 -110 -85q-28 0 -43.5 12t-15.5 31
q0 15 13 50l31 77q17 44 10 44q-4 0 -10.5 -6t-11.5 -12t-10.5 -13.5t-5.5 -8.5z" />
    <glyph glyph-name="l.superior" unicode="&#xf6ee;" horiz-adv-x="198" 
d="M224 723l-112 -336q-8 -16 -8 -26q0 -9 7 -9q13 0 39 43h40q-46 -85 -111 -85q-25 0 -41.5 11.5t-16.5 31.5q0 15 10 47l81 238q9 32 9 34q0 11 -33 11h-14l11 32q76 0 110 8h29z" />
    <glyph glyph-name="m.superior" unicode="&#xf6ef;" horiz-adv-x="604" 
d="M12 318l48 152q13 41 13 45q0 13 -6 13q-10 0 -35 -45h-39q16 40 44.5 64t65.5 24q57 0 57 -46q0 -15 -9 -40l2 -2q68 88 141 88q24 0 44 -12.5t20 -37.5q0 -13 -7 -36l2 -2q67 88 143 88q30 0 46.5 -15.5t16.5 -34.5q0 -13 -10 -44l-33 -100l-2 -5q-1 -5 -1 -7
q0 -7 7 -7q17 0 43 41h42q-23 -41 -51 -62q-31 -23 -70 -23q-26 0 -41.5 12t-15.5 30q0 11 8 33l24 76q8 21 8 31q0 18 -19 18q-36 0 -79.5 -56t-66.5 -125l-5 -15h-85l49 151q6 15 6 26q0 19 -18 19q-34 0 -78 -53.5t-74 -142.5h-85z" />
    <glyph glyph-name="o.superior" unicode="&#xf6f0;" horiz-adv-x="344" 
d="M13 417q0 62 52 108t126 46q61 0 94 -31t33 -74q0 -62 -50 -109t-127 -47q-57 0 -92.5 30t-35.5 77zM191 539q-41 0 -67 -51.5t-26 -93.5q0 -20 10 -36t32 -16q42 0 67.5 50.5t25.5 92.5q0 54 -42 54z" />
    <glyph glyph-name="r.superior" unicode="&#xf6f1;" 
d="M-6 479q49 92 114 92q45 0 45 -46q0 -14 -6 -41l2 -2q56 89 106 89q22 0 33 -11.5t11 -29.5q0 -20 -12 -35t-31 -15q-16 0 -24 8q-16 16 -20 16q-7 0 -24 -20t-39.5 -62t-39.5 -92l-4 -12h-85l52 174q5 15 5 24q0 6 -5 6q-14 0 -37 -43h-41z" />
    <glyph glyph-name="s.superior" unicode="&#xf6f2;" horiz-adv-x="302" 
d="M67 499q0 37 36.5 54.5t88.5 17.5q39 0 63 -10t31 -20.5t7 -21.5q0 -14 -10 -24t-28 -10q-19 0 -27 9.5t-14 28.5q-8 20 -30 20q-36 0 -36 -26q0 -18 39 -48q22 -16 32 -25t19.5 -24.5t9.5 -31.5q0 -31 -30.5 -54.5t-97.5 -23.5q-33 0 -57 7t-36 18t-17.5 21t-5.5 19
q0 14 11 25t29 11q38 0 42 -40q2 -11 4 -16.5t10 -11t22 -5.5q19 0 31 8.5t12 23.5q0 11 -5.5 18t-31.5 28q-20 16 -31 26.5t-20.5 26t-9.5 30.5z" />
    <glyph glyph-name="t.superior" unicode="&#xf6f3;" horiz-adv-x="219" 
d="M81 562l28 88h86l-29 -88h62l-11 -32h-62l-46 -142q-5 -14 -5 -20q0 -13 10 -13q23 0 52 51h41q-47 -96 -123 -96q-29 0 -46 15t-17 41q0 15 10 47l39 117h-58l11 32h58z" />
    <glyph glyph-name="dollar.oldstyle" unicode="&#xf724;" horiz-adv-x="323" 
d="M109 40l48 158q-27 29 -40 44t-23.5 39t-10.5 50q0 51 40.5 90t112.5 36l3 12h43l-6 -19q27 -8 48.5 -29t21.5 -43q0 -11 -9 -20.5t-22 -9.5q-20 0 -31 18q-1 1 -11 16.5t-13 17.5l-42 -138q45 -48 48 -52q30 -42 30 -81q0 -19 -8 -40.5t-25 -44.5t-50.5 -38t-77.5 -15
l-18 -59h-42l20 64q-29 7 -58 28.5t-29 47.5q0 13 9 22.5t24 9.5q11 0 19.5 -6t12.5 -12t11 -18q12 -23 25 -28zM186 294l37 122q-34 -3 -49.5 -21.5t-15.5 -40.5q0 -32 28 -60zM189 165l-41 -133q38 1 56.5 19t18.5 43q0 30 -34 71z" />
    <glyph glyph-name="zero.oldstyle" unicode="&#xf730;" horiz-adv-x="479" 
d="M27 140q0 135 81.5 217.5t178.5 82.5q10 0 22 -1.5t35.5 -10t41.5 -23.5t32 -47t14 -75q0 -126 -77.5 -211.5t-182.5 -85.5q-65 0 -105 42t-40 112zM142 183q-21 -76 -21 -106q0 -20 15 -34.5t41 -14.5q41 0 63.5 27t43.5 87q54 148 54 206q0 24 -15.5 37t-38.5 13
q-46 0 -76.5 -48t-65.5 -167z" />
    <glyph glyph-name="one.oldstyle" unicode="&#xf731;" horiz-adv-x="479" 
d="M437 424l-12 -42q-21 0 -31.5 -1t-23.5 -4.5t-20 -11t-14.5 -20.5t-13.5 -33l-60 -195q-6 -21 -6 -30q0 -39 66 -45l-11 -42h-284l13 42q56 1 71 12t32 58l54 173q13 42 13 57q0 36 -67 40l12 42h282z" />
    <glyph glyph-name="two.oldstyle" unicode="&#xf732;" horiz-adv-x="479" 
d="M360 81l-32 -112h-44q0 21 -6.5 26t-30.5 5h-250l18 62q96 43 162 87q74 49 113 91.5t39 86.5q0 29 -21 48.5t-54 19.5q-30 0 -56.5 -16.5t-26.5 -44.5q0 -25 23 -48q1 -1 9 -8.5t8 -9.5q0 -6 -30.5 -22.5t-44.5 -16.5q-13 0 -25 22.5t-12 48.5q0 53 47 96.5t140 43.5
q64 0 111.5 -27t47.5 -76q0 -18 -4.5 -34.5t-10 -30t-20 -28.5t-25 -25.5t-35 -25.5t-40.5 -24.5t-50.5 -27t-55.5 -27.5t-65 -31v-2h221z" />
    <glyph glyph-name="three.oldstyle" unicode="&#xf733;" horiz-adv-x="479" 
d="M183 302l3 -10q0 -5 -14 -15.5t-28 -18.5t-15 -8q-3 0 -9 8.5t-12 24t-6 31.5q0 54 48 90t125 36q75 0 115.5 -33t40.5 -74q0 -32 -19 -61t-55.5 -53.5t-61.5 -37.5t-66 -31v-2q30 -2 52.5 -13.5t34 -26t19 -34t9 -32.5t1.5 -26q0 -75 -43.5 -131t-105 -81.5
t-127.5 -25.5q-65 0 -114 27.5t-49 70.5q0 19 12.5 32t29.5 13q14 0 25.5 -8t16.5 -16.5t16 -27.5q28 -49 69 -49q47 0 82.5 33.5t51.5 81t23 82t7 52.5q0 20 -11.5 35.5t-29.5 15.5q-9 0 -19.5 -4.5t-17.5 -9t-7 -5.5q-27 -20 -34 -20q-6 0 -13.5 6t-7.5 14q0 12 15 23
t73 43q74 41 110.5 78.5t36.5 80.5q0 33 -21.5 52.5t-49.5 19.5q-30 0 -56.5 -21.5t-26.5 -55.5q0 -10 3 -19z" />
    <glyph glyph-name="four.oldstyle" unicode="&#xf734;" horiz-adv-x="479" 
d="M403 54l-17 -54h-83l-31 -99q-6 -20 -6 -34q0 -17 11.5 -26.5t21.5 -12t28 -4.5l-10 -42h-280l12 42q29 0 41 1.5t26.5 9t22.5 23t17 43.5l30 99h-190l15 87l343 357h85l-122 -390h86zM38 54h164l77 249l-2 2z" />
    <glyph glyph-name="five.oldstyle" unicode="&#xf735;" horiz-adv-x="479" 
d="M108 110h-43l105 314h289q-18 -57 -28.5 -69t-33.5 -12h-209l-48 -138l2 -2q41 33 86 33q63 0 105 -52.5t42 -129.5q0 -82 -45.5 -148t-109 -98t-127.5 -32q-30 0 -62.5 8t-60.5 29.5t-28 51.5q0 18 11 33t31 15q14 0 25 -8.5t15.5 -15.5t12.5 -22t13.5 -23.5t19 -17
t30.5 -8.5q45 0 81.5 41t55.5 97.5t28.5 102.5t9.5 68q0 4 -0.5 8.5t-3.5 16t-8.5 20t-17.5 15.5t-29 7q-25 0 -46.5 -14.5t-32.5 -28t-29 -41.5z" />
    <glyph glyph-name="six.oldstyle" unicode="&#xf736;" horiz-adv-x="479" 
d="M229 419q48 19 73 19q49 0 90.5 -36.5t41.5 -119.5q0 -120 -76 -208t-184 -88q-65 0 -104 42.5t-39 106.5q0 85 36.5 181t82.5 171q102 167 258 167q46 0 78.5 -21t32.5 -59q0 -15 -11.5 -27t-25.5 -12q-6 0 -12 2t-11 5t-9 6.5t-7.5 7t-5.5 6.5t-3 5l-2 2
q-8 14 -12.5 20.5t-14.5 12.5t-25 6q-37 0 -71.5 -42t-79.5 -147zM140 163q-15 -53 -15 -83q0 -52 56 -52q38 0 61 31t45 92q53 147 53 190q0 24 -15 40.5t-40 16.5q-28 0 -47.5 -14t-45 -67t-52.5 -154z" />
    <glyph glyph-name="seven.oldstyle" unicode="&#xf737;" horiz-adv-x="479" 
d="M115 469h44q0 -1 -3.5 -15t-3.5 -16q0 -9 9.5 -11.5t36.5 -2.5h259v-24l-320 -537q-14 -24 -23.5 -38t-29.5 -31.5t-40 -17.5q-5 0 -13 2t-21 13.5t-13 31.5q0 19 10 35.5t48 66.5l312 406h-192q-36 0 -51.5 -15.5t-24.5 -46.5h-44z" />
    <glyph glyph-name="eight.oldstyle" unicode="&#xf738;" horiz-adv-x="479" 
d="M306 337v-2q111 -25 111 -143q0 -77 -60.5 -141.5t-160.5 -64.5q-74 0 -121.5 44.5t-47.5 115.5q0 75 54 133t156 57l2 2q-47 12 -73.5 48.5t-26.5 81.5q0 72 54.5 129t144.5 57q73 0 112.5 -43.5t39.5 -99.5q0 -10 -1 -21t-11 -38t-27.5 -48t-55 -41t-89.5 -26zM234 443
q-6 -23 -6 -43q0 -43 48 -43t73 57q5 11 14 34.5t20 60t11 56.5q0 24 -15 35.5t-33 11.5q-68 0 -112 -169zM135 141q-10 -30 -10 -55q0 -20 13.5 -40t44.5 -20q60 0 91 77q45 107 45 158q0 21 -16 37.5t-45 16.5q-17 0 -30 -4t-24.5 -16.5t-19 -22.5t-17.5 -35.5t-15 -42
t-17 -53.5z" />
    <glyph glyph-name="nine.oldstyle" unicode="&#xf739;" horiz-adv-x="479" 
d="M231 3l-2 2q-31 -19 -66 -19q-59 0 -97.5 41.5t-38.5 111.5q0 121 76.5 211t185.5 90q61 0 101 -42t40 -109q0 -38 -11 -89t-31 -109t-53 -113.5t-73 -101t-94.5 -73t-113.5 -27.5t-85.5 25.5t-26.5 53.5q0 15 11 27.5t30 12.5q12 0 22.5 -7t15.5 -14t14 -21
q2 -5 7 -11.5t16 -13.5t22 -7q36 0 70.5 37.5t80.5 144.5zM132 138q-11 -33 -11 -57q0 -22 16.5 -39t44.5 -17q18 0 33 7.5t24.5 18t19.5 30.5t15.5 34t13.5 39q50 148 50 186q0 21 -14 39.5t-41 18.5q-51 0 -81.5 -58.5t-69.5 -201.5z" />
    <glyph glyph-name="cent.oldstyle" unicode="&#xf7a2;" horiz-adv-x="313" 
d="M228 293l59 114h46l-65 -124q42 -24 42 -64q0 -24 -13.5 -39.5t-35.5 -15.5q-33 0 -38 33l-83 -156q46 0 92 53h49q-63 -99 -168 -104l-46 -89h-46l49 94q-62 19 -62 87q0 49 26.5 98t79 82.5t114.5 30.5zM105 60l101 193q-39 3 -72 -60.5t-33 -107.5q0 -12 4 -25z" />
    </font>
</defs>
</svg>
